<?xml version="1.0" encoding="UTF-8"?><svg id="Capa_2" xmlns="http://www.w3.org/2000/svg" xmlns:xlink="http://www.w3.org/1999/xlink" viewBox="0 0 690 419"><defs><style>.cls-1{font-size:22.05px;}.cls-1,.cls-2,.cls-3{font-family:EffraCC-Medium, 'Effra CC';font-weight:500;}.cls-4,.cls-5{fill:#2da68e;}.cls-6{fill:#0f235f;font-size:33.05px;}.cls-6,.cls-7,.cls-5,.cls-8{font-family:EffraCC-Regular, 'Effra CC';}.cls-9{stroke-width:1.84px;}.cls-9,.cls-10{stroke:#acacac;}.cls-9,.cls-10,.cls-11{fill:none;stroke-miterlimit:10;}.cls-12{filter:url(#drop-shadow-1);}.cls-12,.cls-13,.cls-14{fill:#2dd5fc;}.cls-13{filter:url(#drop-shadow-3);}.cls-14{filter:url(#drop-shadow-4);}.cls-15{fill:#019bd2;}.cls-16{filter:url(#drop-shadow-8);}.cls-16,.cls-17,.cls-18,.cls-19{opacity:.5;}.cls-16,.cls-17,.cls-18,.cls-19,.cls-3,.cls-20,.cls-21{fill:#fff;}.cls-17{filter:url(#drop-shadow-6);}.cls-18{filter:url(#drop-shadow-7);}.cls-19{filter:url(#drop-shadow-5);}.cls-10{stroke-width:1.4px;}.cls-2,.cls-7,.cls-5,.cls-8{font-size:14.46px;}.cls-22{letter-spacing:0em;}.cls-23{fill:#b5ecfd;}.cls-3{font-size:16.49px;}.cls-24{letter-spacing:0em;}.cls-25{letter-spacing:0em;}.cls-20{filter:url(#drop-shadow-9);}.cls-21{filter:url(#drop-shadow-2);}.cls-26{fill:#acacac;}.cls-27{letter-spacing:-.09em;}.cls-28{letter-spacing:-.09em;}.cls-29{letter-spacing:-.06em;}.cls-30{letter-spacing:-.06em;}.cls-31{letter-spacing:-.02em;}.cls-32{letter-spacing:-.02em;}.cls-33{letter-spacing:-.02em;}.cls-34{letter-spacing:-.02em;}.cls-35{letter-spacing:-.01em;}.cls-36{letter-spacing:-.05em;}.cls-37{letter-spacing:-.04em;}.cls-38{letter-spacing:-.03em;}.cls-39{letter-spacing:-.03em;}.cls-11{stroke:#2da68e;stroke-linecap:round;stroke-width:1.4px;}.cls-40{letter-spacing:-.01em;}.cls-41{letter-spacing:-.01em;}.cls-42{letter-spacing:0em;}.cls-43{letter-spacing:0em;}.cls-8,.cls-44{fill:#f2c63d;}</style><filter id="drop-shadow-1" x="0" y="0" width="214" height="88" filterUnits="userSpaceOnUse"><feOffset dx="12.86" dy="12.86"/><feGaussianBlur result="blur" stdDeviation="9.19"/><feFlood flood-color="#888" flood-opacity=".3"/><feComposite in2="blur" operator="in"/><feComposite in="SourceGraphic"/></filter><filter id="drop-shadow-2" x="0" y="47" width="579" height="99" filterUnits="userSpaceOnUse"><feOffset dx="12.86" dy="12.86"/><feGaussianBlur result="blur-2" stdDeviation="9.19"/><feFlood flood-color="#888" flood-opacity=".3"/><feComposite in2="blur-2" operator="in"/><feComposite in="SourceGraphic"/></filter><filter id="drop-shadow-3" x="164" y="0" width="214" height="88" filterUnits="userSpaceOnUse"><feOffset dx="12.86" dy="12.86"/><feGaussianBlur result="blur-3" stdDeviation="9.19"/><feFlood flood-color="#888" flood-opacity=".3"/><feComposite in2="blur-3" operator="in"/><feComposite in="SourceGraphic"/></filter><filter id="drop-shadow-4" x="329" y="0" width="214" height="88" filterUnits="userSpaceOnUse"><feOffset dx="12.86" dy="12.86"/><feGaussianBlur result="blur-4" stdDeviation="9.19"/><feFlood flood-color="#888" flood-opacity=".3"/><feComposite in2="blur-4" operator="in"/><feComposite in="SourceGraphic"/></filter><filter id="drop-shadow-5" x="0" y="96" width="579" height="106" filterUnits="userSpaceOnUse"><feOffset dx="12.86" dy="12.86"/><feGaussianBlur result="blur-5" stdDeviation="9.19"/><feFlood flood-color="#888" flood-opacity=".3"/><feComposite in2="blur-5" operator="in"/><feComposite in="SourceGraphic"/></filter><filter id="drop-shadow-6" x="0" y="153" width="579" height="106" filterUnits="userSpaceOnUse"><feOffset dx="12.86" dy="12.86"/><feGaussianBlur result="blur-6" stdDeviation="9.19"/><feFlood flood-color="#888" flood-opacity=".3"/><feComposite in2="blur-6" operator="in"/><feComposite in="SourceGraphic"/></filter><filter id="drop-shadow-7" x="0" y="212" width="579" height="106" filterUnits="userSpaceOnUse"><feOffset dx="12.86" dy="12.86"/><feGaussianBlur result="blur-7" stdDeviation="9.19"/><feFlood flood-color="#888" flood-opacity=".3"/><feComposite in2="blur-7" operator="in"/><feComposite in="SourceGraphic"/></filter><filter id="drop-shadow-8" x="0" y="270" width="579" height="107" filterUnits="userSpaceOnUse"><feOffset dx="12.86" dy="12.86"/><feGaussianBlur result="blur-8" stdDeviation="9.19"/><feFlood flood-color="#888" flood-opacity=".3"/><feComposite in2="blur-8" operator="in"/><feComposite in="SourceGraphic"/></filter><filter id="drop-shadow-9" x="310" y="71" width="380" height="348" filterUnits="userSpaceOnUse"><feOffset dx="12.86" dy="12.86"/><feGaussianBlur result="blur-9" stdDeviation="9.19"/><feFlood flood-color="#888" flood-opacity=".3"/><feComposite in2="blur-9" operator="in"/><feComposite in="SourceGraphic"/></filter></defs><g id="CONECTADO-DE-EXTREMO-A-EXTREMO"><rect class="cls-12" x="15.17" y="15.5" width="156.54" height="30.37" rx="7.39" ry="7.39"/><rect class="cls-21" x="15.37" y="62.23" width="521.77" height="41.74" rx="5.74" ry="5.74"/><text class="cls-2" transform="translate(29.44 36.05)"><tspan x="0" y="0">Nu</tspan><tspan class="cls-31" x="18.15" y="0">ev</tspan><tspan x="32.6" y="0">o Clien</tspan><tspan class="cls-32" x="75.4" y="0">t</tspan><tspan class="cls-24" x="80.72" y="0">e</tspan></text><text class="cls-2" transform="translate(184.77 88.03)"><tspan class="cls-29" x="0" y="0">A</tspan><tspan class="cls-35" x="8.59" y="0">v</tspan><tspan class="cls-24" x="15.78" y="0">an</tspan><tspan class="cls-32" x="30.99" y="0">c</tspan><tspan class="cls-24" x="37.86" y="0">e</tspan></text><text class="cls-2" transform="translate(296.21 88.03)"><tspan class="cls-36" x="0" y="0">F</tspan><tspan x="6.93" y="0">echa de Inicio</tspan></text><text class="cls-2" transform="translate(413.98 88.03)"><tspan class="cls-36" x="0" y="0">F</tspan><tspan x="6.93" y="0">echa Estimada</tspan></text><text class="cls-6" transform="translate(139.01 41.02)"><tspan x="0" y="0">+</tspan></text><rect class="cls-13" x="179.59" y="15.5" width="156.54" height="30.37" rx="7.39" ry="7.39"/><text class="cls-6" transform="translate(303.44 41.02)"><tspan x="0" y="0">+</tspan></text><rect class="cls-14" x="344.57" y="15.5" width="156.54" height="30.37" rx="7.39" ry="7.39"/><text class="cls-6" transform="translate(468.41 41.02)"><tspan x="0" y="0">+</tspan></text><rect class="cls-23" x="193.85" y="26.15" width="46.42" height="9.1" rx="3.3" ry="3.3"/><rect class="cls-23" x="358.89" y="26.15" width="46.42" height="9.1" rx="3.3" ry="3.3"/><rect class="cls-19" x="15.37" y="111.16" width="521.77" height="49.46" rx="6.25" ry="6.25"/><text class="cls-7" transform="translate(296.67 140.82)"><tspan x="0" y="0">05-10-2025</tspan></text><text class="cls-8" transform="translate(184.77 132.14)"><tspan x="0" y="0">72%</tspan></text><rect class="cls-44" x="185" y="141.03" width="75.44" height="9.1" rx="4.2" ry="4.2"/><rect class="cls-17" x="15.37" y="168.19" width="521.77" height="49.46" rx="6.25" ry="6.25"/><text class="cls-7" transform="translate(36.32 197.85)"><tspan class="cls-27" x="0" y="0">F</tspan><tspan class="cls-25" x="6.42" y="0">ARM</tspan><tspan class="cls-38" x="35.59" y="0">A</tspan><tspan x="44.44" y="0">CIA </tspan><tspan class="cls-39" x="69.71" y="0">A</tspan><tspan x="78.56" y="0">C</tspan></text><text class="cls-7" transform="translate(296.67 197.85)"><tspan x="0" y="0">05-10-2025</tspan></text><text class="cls-5" transform="translate(184.77 189.18)"><tspan x="0" y="0">14%</tspan></text><rect class="cls-4" x="185" y="197.48" width="16.39" height="9.1" rx="4.54" ry="4.54"/><rect class="cls-18" x="15.37" y="227.05" width="521.77" height="49.46" rx="6.25" ry="6.25"/><text class="cls-7" transform="translate(36.32 256.7)"><tspan x="0" y="0">INVE</tspan><tspan class="cls-43" x="31.21" y="0">R</tspan><tspan x="39.6" y="0">SIONES </tspan><tspan class="cls-37" x="92.27" y="0">D</tspan><tspan class="cls-25" x="101.95" y="0">…</tspan></text><text class="cls-7" transform="translate(296.67 256.7)"><tspan x="0" y="0">05-10-2025</tspan></text><text class="cls-8" transform="translate(184.77 248.03)"><tspan x="0" y="0">88%</tspan></text><rect class="cls-44" x="185" y="255.3" width="89.47" height="9.1" rx="4.55" ry="4.55"/><rect class="cls-16" x="15.37" y="285.29" width="521.77" height="49.46" rx="6.25" ry="6.25"/><text class="cls-7" transform="translate(36.32 314.95)"><tspan x="0" y="0">REAL S</tspan><tspan class="cls-28" x="44.91" y="0">TA</tspan><tspan x="60.61" y="0">TE DC</tspan></text><text class="cls-7" transform="translate(296.67 314.95)"><tspan x="0" y="0">05-10-2025</tspan></text><text class="cls-8" transform="translate(184.77 306.28)"><tspan x="0" y="0">75%</tspan></text><rect class="cls-44" x="185" y="312.74" width="78.93" height="9.1" rx="4.3" ry="4.3"/><rect class="cls-20" x="324.96" y="85.96" width="323.59" height="291.68" rx="6.76" ry="6.76"/><rect class="cls-15" x="343.57" y="316.91" width="286.54" height="40.26" rx="7.6" ry="7.6"/><text class="cls-1" transform="translate(344.93 123.38)"><tspan class="cls-30" x="0" y="0">A</tspan><tspan x="13.09" y="0">viso de N</tspan><tspan class="cls-41" x="99.88" y="0">o</tspan><tspan x="112.25" y="0">tificación</tspan></text><text class="cls-7" transform="translate(365.69 180.13)"><tspan x="0" y="0">Descripción</tspan></text><text class="cls-3" transform="translate(398.51 342.13)"><tspan class="cls-42" x="0" y="0">A</tspan><tspan class="cls-33" x="10.62" y="0">c</tspan><tspan class="cls-22" x="18.46" y="0">e</tspan><tspan class="cls-40" x="27.33" y="0">p</tspan><tspan x="36.32" y="0">tar y Seguir </tspan><tspan class="cls-34" x="120.72" y="0">U</tspan><tspan x="131.54" y="0">sando</tspan></text><text class="cls-5" transform="translate(343.38 292.31)"><tspan x="0" y="0">Esta</tspan><tspan class="cls-43" x="27.62" y="0">t</tspan><tspan x="32.99" y="0">us de N</tspan><tspan class="cls-43" x="78.74" y="0">o</tspan><tspan class="cls-25" x="86.83" y="0">tificación</tspan></text><polyline class="cls-11" points="508.51 284.94 502.44 291.01 496.08 284.64"/><rect class="cls-26" x="365.81" y="235.88" width="59.38" height="9.1" rx="3.73" ry="3.73"/><rect class="cls-9" x="344.22" y="151.87" width="285.22" height="62.49" rx="4.68" ry="4.68"/><rect class="cls-10" x="344.22" y="222.28" width="285.22" height="36.3" rx="3.56" ry="3.56"/></g></svg>