<?xml version="1.0" encoding="UTF-8"?><svg id="CONECTADO-DE-EXTREMO-A-EXTREMO" xmlns="http://www.w3.org/2000/svg" xmlns:xlink="http://www.w3.org/1999/xlink" viewBox="0 0 701 458"><defs><style>.cls-1{fill:#2da68e;}.cls-2{fill:#0f235f;font-family:EffraCC-Regular, 'Effra CC';font-size:33.05px;}.cls-3{stroke-width:1.84px;}.cls-3,.cls-4{stroke:#acacac;}.cls-3,.cls-4,.cls-5{fill:none;stroke-miterlimit:10;}.cls-6{filter:url(#drop-shadow-1);}.cls-6,.cls-7,.cls-8{fill:#2dd5fc;}.cls-7{filter:url(#drop-shadow-3);}.cls-8{filter:url(#drop-shadow-4);}.cls-9{fill:#019bd2;}.cls-10{filter:url(#drop-shadow-8);}.cls-10,.cls-11,.cls-12,.cls-13{opacity:.5;}.cls-10,.cls-11,.cls-12,.cls-13,.cls-14,.cls-15,.cls-16{fill:#fff;}.cls-11{filter:url(#drop-shadow-6);}.cls-12{filter:url(#drop-shadow-7);}.cls-13{filter:url(#drop-shadow-5);}.cls-4{stroke-width:1.4px;}.cls-17{fill:#b5ecfd;}.cls-15{filter:url(#drop-shadow-9);}.cls-16{filter:url(#drop-shadow-2);}.cls-18{fill:#acacac;}.cls-5{stroke:#2da68e;stroke-linecap:round;stroke-width:1.4px;}.cls-19{fill:#f2c63d;}</style><filter id="drop-shadow-1" x="20.44" y="33.44" width="214" height="88" filterUnits="userSpaceOnUse"><feOffset dx="12.86" dy="12.86"/><feGaussianBlur result="blur" stdDeviation="9.19"/><feFlood flood-color="#888" flood-opacity=".3"/><feComposite in2="blur" operator="in"/><feComposite in="SourceGraphic"/></filter><filter id="drop-shadow-2" x="20.44" y="80.44" width="579" height="99" filterUnits="userSpaceOnUse"><feOffset dx="12.86" dy="12.86"/><feGaussianBlur result="blur-2" stdDeviation="9.19"/><feFlood flood-color="#888" flood-opacity=".3"/><feComposite in2="blur-2" operator="in"/><feComposite in="SourceGraphic"/></filter><filter id="drop-shadow-3" x="185.44" y="33.44" width="213" height="88" filterUnits="userSpaceOnUse"><feOffset dx="12.86" dy="12.86"/><feGaussianBlur result="blur-3" stdDeviation="9.19"/><feFlood flood-color="#888" flood-opacity=".3"/><feComposite in2="blur-3" operator="in"/><feComposite in="SourceGraphic"/></filter><filter id="drop-shadow-4" x="350.44" y="33.44" width="213" height="88" filterUnits="userSpaceOnUse"><feOffset dx="12.86" dy="12.86"/><feGaussianBlur result="blur-4" stdDeviation="9.19"/><feFlood flood-color="#888" flood-opacity=".3"/><feComposite in2="blur-4" operator="in"/><feComposite in="SourceGraphic"/></filter><filter id="drop-shadow-5" x="20.44" y="129.44" width="579" height="106" filterUnits="userSpaceOnUse"><feOffset dx="12.86" dy="12.86"/><feGaussianBlur result="blur-5" stdDeviation="9.19"/><feFlood flood-color="#888" flood-opacity=".3"/><feComposite in2="blur-5" operator="in"/><feComposite in="SourceGraphic"/></filter><filter id="drop-shadow-6" x="20.44" y="186.44" width="579" height="106" filterUnits="userSpaceOnUse"><feOffset dx="12.86" dy="12.86"/><feGaussianBlur result="blur-6" stdDeviation="9.19"/><feFlood flood-color="#888" flood-opacity=".3"/><feComposite in2="blur-6" operator="in"/><feComposite in="SourceGraphic"/></filter><filter id="drop-shadow-7" x="20.44" y="245.44" width="579" height="106" filterUnits="userSpaceOnUse"><feOffset dx="12.86" dy="12.86"/><feGaussianBlur result="blur-7" stdDeviation="9.19"/><feFlood flood-color="#888" flood-opacity=".3"/><feComposite in2="blur-7" operator="in"/><feComposite in="SourceGraphic"/></filter><filter id="drop-shadow-8" x="20.44" y="303.44" width="579" height="107" filterUnits="userSpaceOnUse"><feOffset dx="12.86" dy="12.86"/><feGaussianBlur result="blur-8" stdDeviation="9.19"/><feFlood flood-color="#888" flood-opacity=".3"/><feComposite in2="blur-8" operator="in"/><feComposite in="SourceGraphic"/></filter><filter id="drop-shadow-9" x="326.44" y="104.44" width="381" height="348" filterUnits="userSpaceOnUse"><feOffset dx="12.86" dy="12.86"/><feGaussianBlur result="blur-9" stdDeviation="9.19"/><feFlood flood-color="#888" flood-opacity=".3"/><feComposite in2="blur-9" operator="in"/><feComposite in="SourceGraphic"/></filter></defs><rect class="cls-6" x="35.81" y="48.94" width="156.54" height="30.37" rx="7.39" ry="7.39"/><rect class="cls-16" x="36.01" y="95.67" width="521.77" height="41.74" rx="5.74" ry="5.74"/><path d="M51.15,59.85h1.5l5.12,7.23v-7.23h1.52v9.65h-1.49l-5.13-7.26v7.26h-1.52v-9.65Z"/><path d="M61.19,66.86v-4.09h1.46v3.89c0,.57.12,1.01.37,1.31.25.3.6.46,1.05.46.56,0,1.01-.21,1.34-.63.33-.42.5-.98.5-1.67v-3.35h1.46v6.73h-1.34l-.06-1.03c-.23.39-.55.69-.95.9-.4.22-.85.33-1.35.33-.77,0-1.38-.25-1.82-.75-.44-.5-.66-1.19-.66-2.09Z"/><path d="M68.81,66.14c0-.69.14-1.31.43-1.85s.69-.96,1.19-1.27,1.09-.46,1.74-.46,1.25.16,1.74.47c.5.31.88.75,1.16,1.32.28.56.42,1.22.42,1.96v.27h-5.24c.06.59.28,1.05.67,1.39.39.34.91.51,1.55.51.78,0,1.48-.27,2.1-.81l.72.91c-.35.36-.78.63-1.29.83-.51.2-1.05.3-1.62.3-.71,0-1.34-.15-1.88-.45-.54-.3-.96-.72-1.27-1.25-.3-.54-.46-1.15-.46-1.86ZM73.49,64.27c-.32-.31-.75-.46-1.27-.46s-.98.16-1.33.47c-.35.31-.55.74-.62,1.27h3.79c-.06-.54-.25-.96-.57-1.27Z"/><path d="M81.38,62.77h1.56l-2.89,6.73h-1.4l-2.89-6.73h1.63l2.01,5.11,1.98-5.11Z"/><path d="M83.22,66.11c0-.67.16-1.28.47-1.82.31-.53.74-.96,1.28-1.27s1.15-.47,1.84-.47,1.3.16,1.84.47.97.74,1.29,1.27c.31.54.47,1.14.47,1.82s-.16,1.3-.47,1.84c-.31.54-.74.97-1.29,1.28s-1.16.46-1.84.46-1.3-.15-1.84-.46-.97-.74-1.28-1.28c-.31-.54-.47-1.16-.47-1.84ZM84.7,66.13c0,.68.2,1.23.59,1.66.39.43.89.64,1.51.64.4,0,.77-.1,1.08-.3.32-.2.57-.47.75-.82.18-.35.27-.74.27-1.19s-.09-.85-.27-1.19c-.18-.34-.43-.61-.74-.81-.32-.2-.68-.3-1.09-.3-.62,0-1.12.21-1.52.64-.4.43-.59.98-.59,1.66Z"/><path d="M94.19,64.69c0-.73.12-1.41.36-2.02.24-.62.58-1.15,1.02-1.61.44-.46.95-.81,1.54-1.06.59-.25,1.23-.38,1.94-.38.8,0,1.53.17,2.19.5.66.33,1.2.8,1.61,1.41l-1.08.93c-.63-.95-1.51-1.43-2.66-1.43-.65,0-1.21.15-1.71.46-.49.31-.88.74-1.16,1.29-.28.55-.42,1.19-.42,1.91s.14,1.35.41,1.9c.27.55.66.98,1.14,1.29s1.05.46,1.7.46c1.07,0,1.98-.48,2.73-1.43l1.06.9c-.43.62-.98,1.09-1.65,1.43-.67.34-1.4.51-2.21.51-.94,0-1.77-.21-2.49-.64-.72-.43-1.29-1.02-1.71-1.78-.41-.76-.62-1.63-.62-2.61Z"/><path d="M104.2,59.85h1.46v9.65h-1.46v-9.65Z"/><path d="M107.35,60.1h1.59v1.5h-1.59v-1.5ZM107.41,62.77h1.46v6.73h-1.46v-6.73Z"/><path d="M110.33,66.14c0-.69.14-1.31.43-1.85s.69-.96,1.19-1.27c.51-.31,1.09-.46,1.74-.46s1.25.16,1.74.47c.5.31.88.75,1.16,1.32.28.56.42,1.22.42,1.96v.27h-5.24c.06.59.28,1.05.67,1.39.39.34.91.51,1.55.51.78,0,1.48-.27,2.1-.81l.72.91c-.35.36-.78.63-1.29.83-.51.2-1.05.3-1.62.3-.71,0-1.34-.15-1.88-.45-.54-.3-.96-.72-1.27-1.25s-.46-1.15-.46-1.86ZM115.01,64.27c-.32-.31-.74-.46-1.27-.46s-.98.16-1.33.47-.55.74-.62,1.27h3.79c-.06-.54-.25-.96-.57-1.27Z"/><path d="M118.4,62.77h1.36l.06.98c.23-.38.55-.67.95-.88.4-.21.86-.32,1.37-.32.8,0,1.42.25,1.86.75.44.5.66,1.19.66,2.08v4.12h-1.46v-3.92c0-.57-.13-1-.38-1.29-.26-.29-.62-.44-1.11-.44-.56,0-1.01.2-1.34.59s-.5.93-.5,1.59v3.47h-1.46v-6.73Z"/><path d="M125.74,62.77h1.19v-2.21h1.46v2.21h1.94v1.19h-1.94v3.3c0,.42.08.73.23.93.15.19.39.29.72.29.37,0,.71-.14,1.03-.42l.62.93c-.51.48-1.13.72-1.87.72s-1.26-.21-1.63-.61-.56-1.01-.56-1.8v-3.33h-1.19v-1.19Z"/><path d="M131.38,66.14c0-.69.14-1.31.43-1.85s.69-.96,1.19-1.27,1.09-.46,1.74-.46,1.25.16,1.74.47c.5.31.88.75,1.16,1.32.28.56.42,1.22.42,1.96v.27h-5.24c.06.59.28,1.05.67,1.39.39.34.91.51,1.55.51.78,0,1.48-.27,2.1-.81l.72.91c-.35.36-.78.63-1.29.83-.51.2-1.05.3-1.62.3-.71,0-1.34-.15-1.88-.45-.54-.3-.96-.72-1.27-1.25-.3-.54-.46-1.15-.46-1.86ZM136.06,64.27c-.32-.31-.75-.46-1.27-.46s-.98.16-1.33.47c-.35.31-.55.74-.62,1.27h3.79c-.06-.54-.25-.96-.57-1.27Z"/><path d="M212.06,118.87h-3.92l-.94,2.6h-1.62l3.75-9.65h1.63l3.73,9.65h-1.69l-.94-2.6ZM210.11,113.45l-1.52,4.18h3.02l-1.5-4.18Z"/><path d="M219.73,114.75h1.56l-2.89,6.73h-1.4l-2.89-6.73h1.63l2.01,5.11,1.98-5.11Z"/><path d="M221.68,119.52c0-.72.27-1.29.8-1.71s1.3-.62,2.29-.62c.45,0,.93.04,1.45.12v-.25c0-.89-.55-1.33-1.65-1.33-.76,0-1.41.21-1.95.62l-.64-.98c.76-.56,1.66-.84,2.71-.84.94,0,1.66.22,2.17.66.51.44.77,1.05.77,1.83v4.45h-1.29l-.06-.87c-.22.34-.53.6-.92.79-.39.19-.84.28-1.34.28-.7,0-1.27-.2-1.7-.59-.43-.39-.64-.91-.64-1.57ZM223.1,119.45c0,.36.11.63.34.82s.54.29.95.29c.35,0,.66-.07.93-.2.28-.13.49-.32.66-.55s.25-.48.25-.75v-.75c-.48-.08-.91-.12-1.29-.12-.59,0-1.04.11-1.36.32s-.48.53-.48.94Z"/><path d="M229.33,114.75h1.36l.06.98c.23-.38.55-.67.95-.88s.86-.32,1.37-.32c.8,0,1.42.25,1.86.75.44.5.66,1.19.66,2.08v4.12h-1.46v-3.92c0-.57-.13-1-.38-1.29-.26-.29-.62-.44-1.11-.44-.56,0-1,.2-1.34.59-.33.4-.5.93-.5,1.59v3.47h-1.46v-6.73Z"/><path d="M236.94,118.13c0-.69.16-1.31.48-1.86.32-.54.75-.97,1.31-1.28.55-.31,1.18-.46,1.87-.46,1.05,0,1.91.38,2.59,1.13l-.88.93c-.21-.25-.46-.44-.75-.58-.29-.13-.6-.2-.94-.2-.42,0-.8.1-1.13.3-.33.2-.58.47-.77.82-.19.35-.28.75-.28,1.2,0,.68.2,1.22.61,1.65.41.42.93.64,1.57.64.7,0,1.29-.27,1.76-.8l.84.94c-.67.75-1.55,1.13-2.66,1.13-.69,0-1.31-.15-1.86-.46-.54-.3-.97-.72-1.29-1.25-.31-.53-.47-1.14-.47-1.84Z"/><path d="M243.85,118.12c0-.69.14-1.31.43-1.85s.69-.96,1.19-1.27c.51-.31,1.09-.46,1.74-.46s1.25.16,1.74.47c.5.31.88.75,1.16,1.32.28.56.42,1.22.42,1.96v.27h-5.24c.06.59.28,1.05.67,1.39.39.34.91.51,1.55.51.78,0,1.48-.27,2.1-.81l.72.91c-.35.36-.78.63-1.29.83-.51.2-1.05.3-1.62.3-.71,0-1.34-.15-1.88-.45-.54-.3-.96-.72-1.27-1.25s-.46-1.15-.46-1.86ZM248.53,116.25c-.32-.31-.74-.46-1.27-.46s-.98.16-1.33.47-.55.74-.62,1.27h3.79c-.06-.54-.25-.96-.57-1.27Z"/><path d="M317.92,111.83h6.18v1.37h-4.61v2.81h3.53v1.35h-3.53v4.12h-1.56v-9.65Z"/><path d="M324.36,118.12c0-.69.14-1.31.43-1.85s.69-.96,1.19-1.27c.51-.31,1.09-.46,1.74-.46s1.25.16,1.74.47c.5.31.88.75,1.16,1.32.28.56.42,1.22.42,1.96v.27h-5.24c.06.59.28,1.05.67,1.39.39.34.91.51,1.55.51.78,0,1.48-.27,2.1-.81l.72.91c-.35.36-.78.63-1.29.83-.51.2-1.05.3-1.62.3-.71,0-1.34-.15-1.88-.45-.54-.3-.96-.72-1.27-1.25s-.46-1.15-.46-1.86ZM329.03,116.25c-.32-.31-.74-.46-1.27-.46s-.98.16-1.33.47-.55.74-.62,1.27h3.79c-.06-.54-.25-.96-.57-1.27Z"/><path d="M332.09,118.13c0-.69.16-1.31.48-1.86.32-.54.75-.97,1.31-1.28s1.18-.46,1.87-.46c1.05,0,1.91.38,2.59,1.13l-.88.93c-.21-.25-.46-.44-.75-.58-.29-.13-.6-.2-.94-.2-.42,0-.8.1-1.13.3-.33.2-.59.47-.77.82-.19.35-.28.75-.28,1.2,0,.68.21,1.22.62,1.65s.93.64,1.57.64c.7,0,1.29-.27,1.76-.8l.84.94c-.66.75-1.55,1.13-2.66,1.13-.7,0-1.31-.15-1.86-.46s-.97-.72-1.29-1.25c-.31-.53-.47-1.14-.47-1.84Z"/><path d="M339.59,111.83h1.46v3.88c.23-.38.54-.67.94-.87.4-.2.84-.3,1.34-.3.79,0,1.41.25,1.84.75s.66,1.19.66,2.08v4.12h-1.46v-3.92c0-.57-.13-1-.38-1.29s-.62-.44-1.11-.44c-.56,0-1.01.2-1.34.59-.33.4-.5.93-.5,1.59v3.47h-1.46v-9.65Z"/><path d="M347.15,119.52c0-.72.27-1.29.8-1.71s1.3-.62,2.29-.62c.45,0,.93.04,1.45.12v-.25c0-.89-.55-1.33-1.65-1.33-.76,0-1.41.21-1.95.62l-.64-.98c.76-.56,1.66-.84,2.7-.84.94,0,1.66.22,2.17.66.51.44.77,1.05.77,1.83v4.45h-1.29l-.06-.87c-.22.34-.53.6-.92.79-.39.19-.84.28-1.34.28-.71,0-1.27-.2-1.7-.59s-.64-.91-.64-1.57ZM348.57,119.45c0,.36.11.63.34.82s.54.29.95.29c.35,0,.66-.07.93-.2.27-.13.49-.32.66-.55s.25-.48.25-.75v-.75c-.48-.08-.91-.12-1.29-.12-.59,0-1.04.11-1.36.32s-.48.53-.48.94Z"/><path d="M357.04,118.29c0-.73.15-1.38.46-1.95.3-.56.72-1.01,1.24-1.33.53-.32,1.12-.48,1.79-.48.59,0,1.15.15,1.68.45v-3.15h1.46v9.65h-1.36l-.06-.85c-.22.34-.52.6-.89.78-.37.18-.79.27-1.27.27-.61,0-1.14-.14-1.6-.43-.46-.28-.81-.68-1.07-1.19s-.38-1.1-.38-1.77ZM358.53,118.19c0,.68.17,1.21.51,1.61s.79.6,1.34.6.98-.18,1.32-.54c.34-.36.51-.81.51-1.37v-2.21c-.47-.32-.98-.48-1.52-.48-.66,0-1.18.21-1.57.64-.39.43-.58,1.01-.58,1.74Z"/><path d="M365.11,118.12c0-.69.14-1.31.43-1.85s.69-.96,1.19-1.27,1.09-.46,1.74-.46,1.25.16,1.74.47c.5.31.88.75,1.16,1.32.28.56.42,1.22.42,1.96v.27h-5.24c.06.59.28,1.05.67,1.39.39.34.91.51,1.55.51.78,0,1.48-.27,2.1-.81l.72.91c-.35.36-.78.63-1.29.83-.51.2-1.05.3-1.62.3-.71,0-1.34-.15-1.88-.45-.54-.3-.96-.72-1.27-1.25-.3-.54-.46-1.15-.46-1.86ZM369.79,116.25c-.32-.31-.75-.46-1.27-.46s-.98.16-1.33.47c-.35.31-.55.74-.62,1.27h3.79c-.06-.54-.25-.96-.57-1.27Z"/><path d="M375.96,111.83h1.56v9.65h-1.56v-9.65Z"/><path d="M379.46,114.75h1.36l.06.98c.23-.38.55-.67.95-.88s.86-.32,1.37-.32c.8,0,1.42.25,1.86.75.44.5.66,1.19.66,2.08v4.12h-1.46v-3.92c0-.57-.13-1-.38-1.29-.26-.29-.62-.44-1.11-.44-.56,0-1,.2-1.34.59-.33.4-.5.93-.5,1.59v3.47h-1.46v-6.73Z"/><path d="M387.34,112.07h1.59v1.5h-1.59v-1.5ZM387.4,114.75h1.46v6.73h-1.46v-6.73Z"/><path d="M390.28,118.13c0-.69.16-1.31.48-1.86.32-.54.75-.97,1.31-1.28s1.18-.46,1.87-.46c1.05,0,1.91.38,2.59,1.13l-.88.93c-.21-.25-.46-.44-.75-.58-.29-.13-.6-.2-.94-.2-.43,0-.8.1-1.13.3-.33.2-.59.47-.77.82-.19.35-.28.75-.28,1.2,0,.68.2,1.22.61,1.65s.93.64,1.57.64c.7,0,1.29-.27,1.76-.8l.84.94c-.67.75-1.55,1.13-2.66,1.13-.69,0-1.31-.15-1.86-.46-.54-.3-.97-.72-1.29-1.25-.31-.53-.47-1.14-.47-1.84Z"/><path d="M397.71,112.07h1.59v1.5h-1.59v-1.5ZM397.77,114.75h1.46v6.73h-1.46v-6.73Z"/><path d="M400.65,118.09c0-.67.16-1.28.47-1.82.31-.53.74-.96,1.28-1.27s1.15-.47,1.84-.47,1.3.16,1.84.47c.54.31.97.74,1.29,1.27.31.54.47,1.14.47,1.82s-.16,1.3-.47,1.84c-.31.54-.74.97-1.29,1.28-.54.31-1.16.46-1.84.46s-1.3-.15-1.84-.46-.97-.74-1.28-1.28c-.31-.54-.47-1.16-.47-1.84ZM402.14,118.1c0,.68.2,1.23.58,1.66.39.43.89.64,1.51.64.41,0,.77-.1,1.08-.3s.57-.47.75-.82c.18-.35.27-.74.27-1.19s-.09-.85-.27-1.19-.43-.61-.75-.81c-.32-.2-.68-.3-1.08-.3-.62,0-1.12.21-1.52.64-.39.43-.59.98-.59,1.66Z"/><path d="M435.69,111.83h6.18v1.37h-4.61v2.81h3.53v1.35h-3.53v4.12h-1.56v-9.65Z"/><path d="M442.12,118.12c0-.69.14-1.31.43-1.85.29-.54.69-.96,1.19-1.27.51-.31,1.09-.46,1.74-.46s1.25.16,1.74.47c.5.31.88.75,1.16,1.32.28.56.42,1.22.42,1.96v.27h-5.24c.06.59.28,1.05.67,1.39.39.34.91.51,1.55.51.78,0,1.48-.27,2.1-.81l.72.91c-.35.36-.78.63-1.29.83-.51.2-1.05.3-1.62.3-.71,0-1.34-.15-1.88-.45-.54-.3-.96-.72-1.27-1.25s-.46-1.15-.46-1.86ZM446.8,116.25c-.32-.31-.75-.46-1.27-.46s-.98.16-1.33.47-.55.74-.62,1.27h3.79c-.06-.54-.25-.96-.57-1.27Z"/><path d="M449.86,118.13c0-.69.16-1.31.48-1.86.32-.54.75-.97,1.31-1.28.55-.31,1.18-.46,1.87-.46,1.05,0,1.91.38,2.59,1.13l-.88.93c-.21-.25-.46-.44-.75-.58-.29-.13-.6-.2-.94-.2-.42,0-.8.1-1.13.3-.33.2-.58.47-.77.82-.19.35-.28.75-.28,1.2,0,.68.2,1.22.61,1.65.41.42.93.64,1.57.64.7,0,1.29-.27,1.76-.8l.84.94c-.67.75-1.55,1.13-2.66,1.13-.69,0-1.31-.15-1.86-.46-.54-.3-.97-.72-1.29-1.25-.31-.53-.47-1.14-.47-1.84Z"/><path d="M457.35,111.83h1.46v3.88c.23-.38.54-.67.94-.87.4-.2.84-.3,1.35-.3.79,0,1.4.25,1.84.75.44.5.66,1.19.66,2.08v4.12h-1.46v-3.92c0-.57-.13-1-.38-1.29-.26-.29-.62-.44-1.11-.44-.56,0-1,.2-1.34.59-.33.4-.5.93-.5,1.59v3.47h-1.46v-9.65Z"/><path d="M464.92,119.52c0-.72.27-1.29.8-1.71s1.3-.62,2.29-.62c.45,0,.94.04,1.45.12v-.25c0-.89-.55-1.33-1.65-1.33-.76,0-1.41.21-1.95.62l-.64-.98c.76-.56,1.66-.84,2.71-.84.93,0,1.66.22,2.17.66.51.44.77,1.05.77,1.83v4.45h-1.29l-.06-.87c-.22.34-.53.6-.92.79s-.84.28-1.34.28c-.7,0-1.27-.2-1.7-.59s-.64-.91-.64-1.57ZM466.33,119.45c0,.36.11.63.34.82s.54.29.95.29c.35,0,.66-.07.93-.2.27-.13.49-.32.66-.55s.25-.48.25-.75v-.75c-.48-.08-.91-.12-1.29-.12-.59,0-1.04.11-1.36.32-.32.21-.48.53-.48.94Z"/><path d="M475.34,111.83h6.19v1.36h-4.64v2.65h3.51v1.32h-3.51v2.97h4.99v1.36h-6.54v-9.65Z"/><path d="M487.29,119.64c0-.25-.11-.45-.33-.59-.22-.14-.6-.27-1.14-.38l-.48-.09c-.7-.13-1.21-.37-1.55-.71-.34-.34-.51-.75-.51-1.24,0-.64.25-1.14.75-1.53.5-.38,1.18-.57,2.02-.57.98,0,1.81.28,2.49.85l-.68.98c-.55-.44-1.18-.67-1.88-.67-.86,0-1.29.27-1.29.81,0,.24.1.43.3.56.2.13.54.24,1.04.34l.49.1c.77.15,1.33.4,1.68.73s.53.75.53,1.27c0,.69-.26,1.23-.78,1.6-.52.38-1.23.56-2.11.56-.59,0-1.13-.09-1.63-.27-.5-.18-.92-.43-1.24-.75l.78-.97c.28.26.6.46.95.6s.75.21,1.17.21c.45,0,.8-.07,1.05-.22.25-.15.37-.36.37-.64Z"/><path d="M489.59,114.75h1.19v-2.21h1.46v2.21h1.94v1.19h-1.94v3.3c0,.42.08.73.23.93s.4.29.72.29c.37,0,.71-.14,1.03-.42l.62.93c-.51.48-1.13.72-1.87.72s-1.26-.21-1.63-.61-.56-1.01-.56-1.8v-3.33h-1.19v-1.19Z"/><path d="M495.75,112.07h1.59v1.5h-1.59v-1.5ZM495.81,114.75h1.46v6.73h-1.46v-6.73Z"/><path d="M499.02,114.75h1.36l.06,1c.2-.39.5-.68.88-.9.38-.21.83-.32,1.33-.32,1.04,0,1.74.44,2.08,1.33.22-.42.54-.75.95-.98.41-.23.89-.35,1.44-.35.8,0,1.42.25,1.87.75.44.5.67,1.2.67,2.1v4.09h-1.46v-3.92c0-.57-.12-1-.35-1.29s-.58-.44-1.02-.44c-.53,0-.95.2-1.27.59-.31.4-.47.93-.47,1.59v3.47h-1.46v-3.92c0-1.16-.47-1.74-1.4-1.74-.53,0-.95.2-1.27.59-.31.4-.47.93-.47,1.59v3.47h-1.46v-6.73Z"/><path d="M510.97,119.52c0-.72.27-1.29.8-1.71s1.3-.62,2.29-.62c.45,0,.93.04,1.45.12v-.25c0-.89-.55-1.33-1.65-1.33-.76,0-1.41.21-1.95.62l-.64-.98c.76-.56,1.66-.84,2.71-.84.94,0,1.66.22,2.17.66.51.44.77,1.05.77,1.83v4.45h-1.29l-.06-.87c-.22.34-.53.6-.92.79-.39.19-.84.28-1.34.28-.7,0-1.27-.2-1.7-.59-.43-.39-.64-.91-.64-1.57ZM512.38,119.45c0,.36.11.63.34.82s.54.29.95.29c.35,0,.66-.07.93-.2.28-.13.49-.32.66-.55s.25-.48.25-.75v-.75c-.48-.08-.91-.12-1.29-.12-.59,0-1.04.11-1.36.32s-.48.53-.48.94Z"/><path d="M518.28,118.29c0-.73.15-1.38.46-1.95.3-.56.72-1.01,1.24-1.33.53-.32,1.12-.48,1.79-.48.59,0,1.15.15,1.68.45v-3.15h1.46v9.65h-1.36l-.06-.85c-.22.34-.52.6-.89.78s-.79.27-1.27.27c-.61,0-1.14-.14-1.6-.43-.46-.28-.81-.68-1.07-1.19s-.38-1.1-.38-1.77ZM519.77,118.19c0,.68.17,1.21.51,1.61.34.4.79.6,1.34.6s.98-.18,1.32-.54c.34-.36.51-.81.51-1.37v-2.21c-.47-.32-.98-.48-1.52-.48-.66,0-1.18.21-1.57.64-.39.43-.58,1.01-.58,1.74Z"/><path d="M526.27,119.52c0-.72.27-1.29.8-1.71s1.3-.62,2.29-.62c.45,0,.94.04,1.45.12v-.25c0-.89-.55-1.33-1.65-1.33-.76,0-1.41.21-1.95.62l-.64-.98c.76-.56,1.66-.84,2.7-.84.93,0,1.66.22,2.17.66.51.44.77,1.05.77,1.83v4.45h-1.29l-.06-.87c-.22.34-.53.6-.92.79s-.84.28-1.34.28c-.7,0-1.27-.2-1.7-.59-.43-.39-.64-.91-.64-1.57ZM527.68,119.45c0,.36.11.63.34.82s.54.29.95.29c.35,0,.66-.07.93-.2.27-.13.49-.32.66-.55s.25-.48.25-.75v-.75c-.48-.08-.91-.12-1.29-.12-.59,0-1.04.11-1.36.32-.32.21-.48.53-.48.94Z"/><text class="cls-2" transform="translate(159.65 74.46)"><tspan x="0" y="0">+</tspan></text><rect class="cls-7" x="200.23" y="48.94" width="156.54" height="30.37" rx="7.39" ry="7.39"/><text class="cls-2" transform="translate(324.08 74.46)"><tspan x="0" y="0">+</tspan></text><rect class="cls-8" x="365.21" y="48.94" width="156.54" height="30.37" rx="7.39" ry="7.39"/><text class="cls-2" transform="translate(489.05 74.46)"><tspan x="0" y="0">+</tspan></text><rect class="cls-17" x="214.49" y="59.6" width="46.42" height="9.1" rx="3.3" ry="3.3"/><rect class="cls-17" x="379.53" y="59.6" width="46.42" height="9.1" rx="3.3" ry="3.3"/><rect class="cls-13" x="36.01" y="144.6" width="521.77" height="49.46" rx="6.25" ry="6.25"/><path d="M317.8,169.7c0-1.51.3-2.69.91-3.53s1.45-1.26,2.53-1.26,1.94.42,2.54,1.27.91,2.02.91,3.52-.3,2.68-.91,3.52-1.46,1.27-2.54,1.27-1.92-.42-2.53-1.26-.91-2.02-.91-3.53ZM319.08,169.7c0,1.15.19,2.04.57,2.68.38.64.91.96,1.6.96s1.23-.32,1.61-.96c.38-.64.57-1.54.57-2.68s-.19-2.04-.57-2.68-.92-.96-1.61-.96-1.22.32-1.6.96c-.38.64-.57,1.54-.57,2.68Z"/><path d="M330.73,171.44c0-.58-.18-1.03-.55-1.37-.37-.33-.87-.5-1.52-.5-.53,0-1.04.14-1.52.4l-.62-.48.85-4.35h4.43v1.08h-3.51l-.51,2.55c.36-.16.79-.25,1.29-.25.91,0,1.62.26,2.15.77.53.52.79,1.22.79,2.1,0,.94-.3,1.68-.91,2.24s-1.43.84-2.47.84-1.99-.33-2.76-1l.68-.93c.65.52,1.33.78,2.07.78.66,0,1.17-.17,1.55-.51.38-.34.57-.81.57-1.4Z"/><path d="M334.15,169.63h4.21v1.16h-4.21v-1.16Z"/><path d="M340.99,173.18h2.04v-6.71l-1.91,1.04-.49-.97,2.55-1.39h1.08v8.03h1.89v1.08h-5.16v-1.08Z"/><path d="M347.8,169.7c0-1.51.3-2.69.91-3.53s1.45-1.26,2.53-1.26,1.94.42,2.54,1.27.91,2.02.91,3.52-.3,2.68-.91,3.52-1.46,1.27-2.54,1.27-1.92-.42-2.53-1.26-.91-2.02-.91-3.53ZM349.07,169.7c0,1.15.19,2.04.57,2.68.38.64.91.96,1.6.96s1.23-.32,1.61-.96c.38-.64.57-1.54.57-2.68s-.19-2.04-.57-2.68-.92-.96-1.61-.96-1.22.32-1.6.96c-.38.64-.57,1.54-.57,2.68Z"/><path d="M356.26,169.63h4.21v1.16h-4.21v-1.16Z"/><path d="M362.68,173.38c0-.4.08-.77.23-1.11s.41-.71.77-1.09.85-.81,1.45-1.28l.39-.32c.58-.45.98-.83,1.2-1.13.22-.3.33-.62.33-.97,0-.44-.15-.79-.44-1.04-.29-.25-.69-.38-1.19-.38-.79,0-1.45.37-1.97,1.11l-.91-.67c.67-1.06,1.66-1.59,2.97-1.59.86,0,1.54.22,2.05.67.51.45.77,1.06.77,1.83,0,.36-.07.69-.2,1-.13.31-.35.62-.64.94-.3.32-.71.68-1.23,1.08l-.39.3c-.48.38-.86.7-1.14.96s-.47.51-.58.74c-.11.23-.17.47-.18.73h4.45v1.08h-5.76v-.88Z"/><path d="M369.91,169.7c0-1.51.3-2.69.91-3.53s1.45-1.26,2.53-1.26,1.94.42,2.55,1.27.91,2.02.91,3.52-.3,2.68-.91,3.52-1.46,1.27-2.55,1.27-1.92-.42-2.53-1.26-.91-2.02-.91-3.53ZM371.19,169.7c0,1.15.19,2.04.57,2.68.38.64.91.96,1.6.96s1.23-.32,1.61-.96c.38-.64.57-1.54.57-2.68s-.19-2.04-.57-2.68-.92-.96-1.61-.96-1.22.32-1.6.96-.57,1.54-.57,2.68Z"/><path d="M378.45,173.38c0-.4.08-.77.23-1.11s.41-.71.77-1.09c.36-.38.85-.81,1.45-1.28l.39-.32c.58-.45.98-.83,1.2-1.13.22-.3.33-.62.33-.97,0-.44-.15-.79-.44-1.04-.29-.25-.69-.38-1.19-.38-.79,0-1.45.37-1.97,1.11l-.91-.67c.67-1.06,1.66-1.59,2.96-1.59.86,0,1.54.22,2.05.67.51.45.77,1.06.77,1.83,0,.36-.06.69-.2,1-.13.31-.34.62-.64.94-.3.32-.71.68-1.23,1.08l-.39.3c-.48.38-.86.7-1.13.96s-.47.51-.58.74c-.11.23-.17.47-.18.73h4.46v1.08h-5.76v-.88Z"/><path d="M390.73,171.44c0-.58-.18-1.03-.55-1.37-.37-.33-.87-.5-1.52-.5-.53,0-1.04.14-1.52.4l-.62-.48.85-4.35h4.43v1.08h-3.52l-.51,2.55c.36-.16.79-.25,1.29-.25.91,0,1.62.26,2.15.77.53.52.79,1.22.79,2.1,0,.94-.3,1.68-.91,2.24s-1.43.84-2.47.84-1.99-.33-2.76-1l.68-.93c.65.52,1.34.78,2.07.78.66,0,1.17-.17,1.55-.51.38-.34.57-.81.57-1.4Z"/><path class="cls-19" d="M206.41,156.47h6.18v1.11c-.23.37-.48.81-.76,1.33-.27.52-.55,1.08-.84,1.69-.29.6-.56,1.21-.82,1.81-.26.61-.49,1.19-.7,1.74-.21.55-.37,1.03-.48,1.43h-1.3c.22-.67.48-1.37.77-2.11.29-.74.61-1.48.95-2.21.34-.73.67-1.41,1.01-2.05s.66-1.19.97-1.66h-4.97v-1.08Z"/><path class="cls-19" d="M214.44,164.7c0-.4.08-.77.23-1.11s.41-.71.77-1.09c.36-.38.85-.81,1.45-1.28l.39-.32c.58-.45.98-.83,1.2-1.13.22-.3.33-.62.33-.97,0-.44-.15-.79-.44-1.04-.29-.25-.69-.38-1.19-.38-.79,0-1.45.37-1.97,1.11l-.91-.67c.67-1.06,1.66-1.59,2.96-1.59.86,0,1.54.22,2.05.67.51.45.77,1.06.77,1.83,0,.36-.06.69-.2,1-.13.31-.34.62-.64.94-.3.32-.71.68-1.23,1.08l-.39.3c-.48.38-.86.7-1.13.96s-.47.51-.58.74c-.11.23-.17.47-.18.73h4.46v1.08h-5.76v-.88Z"/><path class="cls-19" d="M221.55,158.95c0-.81.2-1.45.6-1.92.4-.47.94-.7,1.63-.7s1.23.23,1.63.7c.4.47.6,1.1.6,1.9s-.2,1.45-.6,1.92c-.4.47-.94.7-1.63.7s-1.23-.23-1.63-.7c-.4-.47-.6-1.1-.6-1.9ZM222.61,158.95c0,.53.1.95.31,1.27.21.31.49.47.86.47s.65-.16.86-.47c.21-.31.31-.74.31-1.28s-.1-.96-.31-1.27-.49-.46-.86-.46-.65.16-.86.47c-.21.31-.31.74-.31,1.28ZM229.56,156.47h1.16l-5.86,9.11h-1.16l5.86-9.11ZM228.42,163.13c0-.81.2-1.45.6-1.92.4-.47.94-.7,1.63-.7s1.23.23,1.63.7.6,1.1.6,1.9-.2,1.45-.6,1.92-.94.7-1.63.7-1.23-.23-1.63-.7c-.4-.47-.6-1.1-.6-1.9ZM229.48,163.13c0,.53.1.95.31,1.27.21.31.49.47.86.47s.65-.16.86-.47c.21-.31.31-.74.31-1.28s-.1-.96-.31-1.27c-.21-.31-.49-.46-.86-.46s-.65.16-.86.47c-.21.31-.31.74-.31,1.28Z"/><rect class="cls-19" x="205.64" y="174.47" width="75.44" height="9.1" rx="4.2" ry="4.2"/><rect class="cls-11" x="36.01" y="201.64" width="521.77" height="49.46" rx="6.25" ry="6.25"/><path d="M58.08,221.65h6.02v1.16h-4.71v3.04h3.6v1.16h-3.6v4.3h-1.3v-9.65Z"/><path d="M70.02,228.55h-4.06l-1.03,2.75h-1.36l3.8-9.65h1.32l3.79,9.65h-1.43l-1.03-2.75ZM67.99,223.09l-1.63,4.35h3.25l-1.62-4.35Z"/><path d="M73.79,221.65h3.09c1.03,0,1.84.25,2.43.75.59.5.88,1.2.88,2.08,0,.65-.16,1.19-.48,1.64-.32.45-.77.77-1.35.98l2.3,4.19h-1.46l-2.1-3.98h-2.04v3.98h-1.27v-9.65ZM78.88,224.5c0-.55-.17-.98-.52-1.29s-.82-.46-1.43-.46h-1.87v3.47h1.87c.62,0,1.1-.15,1.44-.46.34-.3.51-.73.51-1.27Z"/><path d="M89.96,223.63l-2.81,4.79h-.65l-2.76-4.72-.33,7.59h-1.21l.45-9.65h1.24l2.99,5.09,2.98-5.09h1.24l.45,9.65h-1.27l-.32-7.67Z"/><path d="M99.19,228.55h-4.06l-1.03,2.75h-1.36l3.8-9.65h1.32l3.79,9.65h-1.43l-1.03-2.75ZM97.16,223.09l-1.63,4.35h3.25l-1.62-4.35Z"/><path d="M102.12,226.51c0-.73.12-1.41.36-2.03.24-.62.58-1.16,1.01-1.62.43-.46.94-.81,1.53-1.06.59-.25,1.23-.38,1.92-.38.79,0,1.51.17,2.17.5.65.33,1.19.8,1.59,1.41l-.94.77c-.64-.99-1.57-1.49-2.79-1.49-.68,0-1.28.16-1.8.49-.53.33-.94.78-1.23,1.37-.29.58-.44,1.26-.44,2.03s.14,1.42.43,2c.29.58.69,1.03,1.2,1.36.51.33,1.1.49,1.78.49,1.13,0,2.09-.5,2.88-1.49l.91.75c-.42.62-.97,1.09-1.63,1.42s-1.39.5-2.19.5c-.92,0-1.73-.21-2.45-.64-.72-.43-1.28-1.02-1.69-1.78-.41-.76-.62-1.62-.62-2.6Z"/><path d="M112.35,221.65h1.3v9.65h-1.3v-9.65Z"/><path d="M121.42,228.55h-4.06l-1.03,2.75h-1.36l3.8-9.65h1.32l3.79,9.65h-1.43l-1.03-2.75ZM119.39,223.09l-1.63,4.35h3.25l-1.62-4.35Z"/><path d="M133.31,228.55h-4.06l-1.03,2.75h-1.36l3.8-9.65h1.32l3.79,9.65h-1.43l-1.03-2.75ZM131.28,223.09l-1.63,4.35h3.25l-1.62-4.35Z"/><path d="M136.24,226.51c0-.73.12-1.41.36-2.03s.58-1.16,1-1.62c.43-.46.94-.81,1.53-1.06.59-.25,1.23-.38,1.92-.38.79,0,1.51.17,2.17.5.66.33,1.19.8,1.59,1.41l-.94.77c-.64-.99-1.57-1.49-2.79-1.49-.68,0-1.28.16-1.8.49-.53.33-.94.78-1.23,1.37-.29.58-.44,1.26-.44,2.03s.14,1.42.43,2c.29.58.69,1.03,1.2,1.36.51.33,1.1.49,1.78.49,1.13,0,2.09-.5,2.88-1.49l.91.75c-.42.62-.97,1.09-1.63,1.42-.66.33-1.39.5-2.19.5-.92,0-1.73-.21-2.45-.64-.72-.43-1.28-1.02-1.69-1.78s-.62-1.62-.62-2.6Z"/><path d="M317.8,226.74c0-1.51.3-2.69.91-3.53s1.45-1.26,2.53-1.26,1.94.42,2.54,1.27.91,2.02.91,3.52-.3,2.68-.91,3.52-1.46,1.27-2.54,1.27-1.92-.42-2.53-1.26-.91-2.02-.91-3.53ZM319.08,226.74c0,1.15.19,2.04.57,2.68.38.64.91.96,1.6.96s1.23-.32,1.61-.96c.38-.64.57-1.54.57-2.68s-.19-2.04-.57-2.68-.92-.96-1.61-.96-1.22.32-1.6.96c-.38.64-.57,1.54-.57,2.68Z"/><path d="M330.73,228.47c0-.58-.18-1.03-.55-1.37-.37-.33-.87-.5-1.52-.5-.53,0-1.04.14-1.52.4l-.62-.48.85-4.35h4.43v1.08h-3.51l-.51,2.55c.36-.16.79-.25,1.29-.25.91,0,1.62.26,2.15.77.53.52.79,1.22.79,2.1,0,.94-.3,1.68-.91,2.24s-1.43.84-2.47.84-1.99-.33-2.76-1l.68-.93c.65.52,1.33.78,2.07.78.66,0,1.17-.17,1.55-.51.38-.34.57-.81.57-1.4Z"/><path d="M334.15,226.67h4.21v1.16h-4.21v-1.16Z"/><path d="M340.99,230.21h2.04v-6.71l-1.91,1.04-.49-.97,2.55-1.39h1.08v8.03h1.89v1.08h-5.16v-1.08Z"/><path d="M347.8,226.74c0-1.51.3-2.69.91-3.53s1.45-1.26,2.53-1.26,1.94.42,2.54,1.27.91,2.02.91,3.52-.3,2.68-.91,3.52-1.46,1.27-2.54,1.27-1.92-.42-2.53-1.26-.91-2.02-.91-3.53ZM349.07,226.74c0,1.15.19,2.04.57,2.68.38.64.91.96,1.6.96s1.23-.32,1.61-.96c.38-.64.57-1.54.57-2.68s-.19-2.04-.57-2.68-.92-.96-1.61-.96-1.22.32-1.6.96c-.38.64-.57,1.54-.57,2.68Z"/><path d="M356.26,226.67h4.21v1.16h-4.21v-1.16Z"/><path d="M362.68,230.41c0-.4.08-.77.23-1.11s.41-.71.77-1.09.85-.81,1.45-1.28l.39-.32c.58-.45.98-.83,1.2-1.13.22-.3.33-.62.33-.97,0-.44-.15-.79-.44-1.04-.29-.25-.69-.38-1.19-.38-.79,0-1.45.37-1.97,1.11l-.91-.67c.67-1.06,1.66-1.59,2.97-1.59.86,0,1.54.22,2.05.67.51.45.77,1.06.77,1.83,0,.36-.07.69-.2,1-.13.31-.35.62-.64.94-.3.32-.71.68-1.23,1.08l-.39.3c-.48.38-.86.7-1.14.96s-.47.51-.58.74c-.11.23-.17.47-.18.73h4.45v1.08h-5.76v-.88Z"/><path d="M369.91,226.74c0-1.51.3-2.69.91-3.53s1.45-1.26,2.53-1.26,1.94.42,2.55,1.27.91,2.02.91,3.52-.3,2.68-.91,3.52-1.46,1.27-2.55,1.27-1.92-.42-2.53-1.26-.91-2.02-.91-3.53ZM371.19,226.74c0,1.15.19,2.04.57,2.68.38.64.91.96,1.6.96s1.23-.32,1.61-.96c.38-.64.57-1.54.57-2.68s-.19-2.04-.57-2.68-.92-.96-1.61-.96-1.22.32-1.6.96-.57,1.54-.57,2.68Z"/><path d="M378.45,230.41c0-.4.08-.77.23-1.11s.41-.71.77-1.09c.36-.38.85-.81,1.45-1.28l.39-.32c.58-.45.98-.83,1.2-1.13.22-.3.33-.62.33-.97,0-.44-.15-.79-.44-1.04-.29-.25-.69-.38-1.19-.38-.79,0-1.45.37-1.97,1.11l-.91-.67c.67-1.06,1.66-1.59,2.96-1.59.86,0,1.54.22,2.05.67.51.45.77,1.06.77,1.83,0,.36-.06.69-.2,1-.13.31-.34.62-.64.94-.3.32-.71.68-1.23,1.08l-.39.3c-.48.38-.86.7-1.13.96s-.47.51-.58.74c-.11.23-.17.47-.18.73h4.46v1.08h-5.76v-.88Z"/><path d="M390.73,228.47c0-.58-.18-1.03-.55-1.37-.37-.33-.87-.5-1.52-.5-.53,0-1.04.14-1.52.4l-.62-.48.85-4.35h4.43v1.08h-3.52l-.51,2.55c.36-.16.79-.25,1.29-.25.91,0,1.62.26,2.15.77.53.52.79,1.22.79,2.1,0,.94-.3,1.68-.91,2.24s-1.43.84-2.47.84-1.99-.33-2.76-1l.68-.93c.65.52,1.34.78,2.07.78.66,0,1.17-.17,1.55-.51.38-.34.57-.81.57-1.4Z"/><path class="cls-1" d="M206.97,221.53h2.04v-6.71l-1.91,1.04-.49-.97,2.55-1.39h1.08v8.03h1.89v1.08h-5.16v-1.08Z"/><path class="cls-1" d="M213.94,219.67l4.32-6.16h1.23v6.12h1.14v1.08h-1.14v1.91h-1.17v-1.91h-4.38v-1.04ZM218.33,215.08l-3.2,4.54h3.2v-4.54Z"/><path class="cls-1" d="M221.55,215.98c0-.81.2-1.45.6-1.92.4-.47.94-.7,1.63-.7s1.23.23,1.63.7c.4.47.6,1.1.6,1.9s-.2,1.45-.6,1.92c-.4.47-.94.7-1.63.7s-1.23-.23-1.63-.7c-.4-.47-.6-1.1-.6-1.9ZM222.61,215.98c0,.53.1.95.31,1.27.21.31.49.47.86.47s.65-.16.86-.47c.21-.31.31-.74.31-1.28s-.1-.96-.31-1.27-.49-.46-.86-.46-.65.16-.86.47c-.21.31-.31.74-.31,1.28ZM229.56,213.51h1.16l-5.86,9.11h-1.16l5.86-9.11ZM228.42,220.16c0-.81.2-1.45.6-1.92.4-.47.94-.7,1.63-.7s1.23.23,1.63.7.6,1.1.6,1.9-.2,1.45-.6,1.92-.94.7-1.63.7-1.23-.23-1.63-.7c-.4-.47-.6-1.1-.6-1.9ZM229.48,220.16c0,.53.1.95.31,1.27.21.31.49.47.86.47s.65-.16.86-.47c.21-.31.31-.74.31-1.28s-.1-.96-.31-1.27c-.21-.31-.49-.46-.86-.46s-.65.16-.86.47c-.21.31-.31.74-.31,1.28Z"/><rect class="cls-1" x="205.64" y="230.92" width="16.39" height="9.1" rx="4.54" ry="4.54"/><rect class="cls-12" x="36.01" y="260.49" width="521.77" height="49.46" rx="6.25" ry="6.25"/><path d="M58.08,280.5h1.3v9.65h-1.3v-9.65Z"/><path d="M61.64,280.5h1.3l5.45,7.67v-7.67h1.27v9.65h-1.29l-5.47-7.68v7.68h-1.27v-9.65Z"/><path d="M78.46,280.5h1.36l-3.76,9.65h-1.32l-3.76-9.65h1.45l3.02,8.07,3.01-8.07Z"/><path d="M81.14,280.5h6.03v1.16h-4.73v2.91h3.57v1.16h-3.57v3.27h5.08v1.16h-6.38v-9.65Z"/><path d="M89.3,280.5h3.09c1.03,0,1.84.25,2.43.75.59.5.88,1.2.88,2.08,0,.65-.16,1.19-.48,1.64-.32.45-.77.77-1.35.98l2.3,4.19h-1.46l-2.1-3.98h-2.04v3.98h-1.27v-9.65ZM94.39,283.35c0-.55-.17-.98-.52-1.29s-.82-.46-1.43-.46h-1.87v3.47h1.87c.62,0,1.1-.15,1.44-.46.34-.3.51-.73.51-1.27Z"/><path d="M102.89,287.53c0-.45-.16-.82-.49-1.11-.32-.29-.83-.52-1.51-.68l-.48-.12c-.94-.22-1.62-.55-2.06-.98-.44-.43-.66-.98-.66-1.66,0-.83.29-1.49.88-1.98s1.36-.74,2.32-.74c1.32,0,2.32.45,2.99,1.35l-.87.81c-.55-.66-1.29-.98-2.21-.98-.56,0-1,.13-1.32.38-.32.26-.48.61-.48,1.06,0,.39.14.7.43.95.29.25.78.45,1.48.61l.48.12c.92.22,1.61.58,2.09,1.07.48.49.72,1.1.72,1.82,0,.58-.14,1.09-.43,1.53-.28.44-.68.78-1.19,1.03-.51.25-1.1.37-1.77.37s-1.36-.14-1.97-.43c-.61-.29-1.14-.7-1.58-1.24l.91-.82c.76.89,1.64,1.33,2.65,1.33.64,0,1.14-.15,1.52-.46.38-.3.56-.71.56-1.22Z"/><path d="M106.09,280.5h1.3v9.65h-1.3v-9.65Z"/><path d="M109.24,285.32c0-.71.12-1.37.38-1.98s.6-1.14,1.05-1.61.97-.82,1.56-1.08c.59-.26,1.23-.38,1.92-.38s1.33.13,1.92.39,1.12.62,1.57,1.08c.45.46.8.99,1.05,1.61s.38,1.27.38,1.99-.12,1.36-.38,1.97-.6,1.15-1.05,1.6c-.45.46-.97.82-1.56,1.08-.59.26-1.23.39-1.92.39s-1.34-.13-1.93-.39c-.59-.26-1.11-.62-1.56-1.08-.45-.46-.8-1-1.05-1.61s-.38-1.28-.38-1.98ZM110.61,285.32c0,.74.15,1.41.46,2,.31.59.73,1.05,1.27,1.38s1.14.5,1.82.5,1.29-.17,1.82-.5c.53-.33.95-.79,1.25-1.37.3-.58.46-1.25.46-1.99s-.15-1.4-.46-1.99c-.3-.58-.72-1.04-1.25-1.38-.53-.34-1.14-.51-1.82-.51s-1.28.17-1.82.5-.96.79-1.27,1.37-.46,1.25-.46,1.99Z"/><path d="M120.91,280.5h1.3l5.45,7.67v-7.67h1.27v9.65h-1.29l-5.47-7.68v7.68h-1.27v-9.65Z"/><path d="M131.19,280.5h6.03v1.16h-4.73v2.91h3.57v1.16h-3.57v3.27h5.08v1.16h-6.38v-9.65Z"/><path d="M144.56,287.53c0-.45-.16-.82-.48-1.11-.32-.29-.83-.52-1.51-.68l-.48-.12c-.94-.22-1.62-.55-2.06-.98-.44-.43-.66-.98-.66-1.66,0-.83.29-1.49.88-1.98.58-.49,1.36-.74,2.32-.74,1.32,0,2.32.45,2.99,1.35l-.87.81c-.55-.66-1.29-.98-2.21-.98-.56,0-1,.13-1.32.38-.32.26-.48.61-.48,1.06,0,.39.14.7.43.95.29.25.78.45,1.48.61l.48.12c.92.22,1.61.58,2.09,1.07.48.49.72,1.1.72,1.82,0,.58-.14,1.09-.43,1.53-.28.44-.68.78-1.19,1.03-.51.25-1.1.37-1.77.37s-1.36-.14-1.97-.43c-.61-.29-1.14-.7-1.58-1.24l.91-.82c.76.89,1.64,1.33,2.65,1.33.64,0,1.14-.15,1.52-.46s.56-.71.56-1.22Z"/><path d="M150.36,280.5h3.14c1.67,0,2.96.42,3.88,1.25.92.83,1.38,2.01,1.38,3.54s-.46,2.73-1.38,3.58c-.92.85-2.22,1.28-3.9,1.28h-3.12v-9.65ZM157.39,285.32c0-1.19-.34-2.09-1.01-2.72-.67-.63-1.65-.94-2.94-.94h-1.78v7.33h1.81c1.27,0,2.24-.32,2.91-.95.67-.63,1-1.54,1-2.73Z"/><path d="M160.54,288.62h1.55v1.53h-1.55v-1.53ZM165.37,288.62h1.55v1.53h-1.55v-1.53ZM170.19,288.62h1.55v1.53h-1.55v-1.53Z"/><path d="M317.8,285.59c0-1.51.3-2.69.91-3.53s1.45-1.26,2.53-1.26,1.94.42,2.54,1.27.91,2.02.91,3.52-.3,2.68-.91,3.52-1.46,1.27-2.54,1.27-1.92-.42-2.53-1.26-.91-2.02-.91-3.53ZM319.08,285.59c0,1.15.19,2.04.57,2.68.38.64.91.96,1.6.96s1.23-.32,1.61-.96c.38-.64.57-1.54.57-2.68s-.19-2.04-.57-2.68-.92-.96-1.61-.96-1.22.32-1.6.96c-.38.64-.57,1.54-.57,2.68Z"/><path d="M330.73,287.33c0-.58-.18-1.03-.55-1.37-.37-.33-.87-.5-1.52-.5-.53,0-1.04.14-1.52.4l-.62-.48.85-4.35h4.43v1.08h-3.51l-.51,2.55c.36-.16.79-.25,1.29-.25.91,0,1.62.26,2.15.77.53.52.79,1.22.79,2.1,0,.94-.3,1.68-.91,2.24s-1.43.84-2.47.84-1.99-.33-2.76-1l.68-.93c.65.52,1.33.78,2.07.78.66,0,1.17-.17,1.55-.51.38-.34.57-.81.57-1.4Z"/><path d="M334.15,285.52h4.21v1.16h-4.21v-1.16Z"/><path d="M340.99,289.06h2.04v-6.71l-1.91,1.04-.49-.97,2.55-1.39h1.08v8.03h1.89v1.08h-5.16v-1.08Z"/><path d="M347.8,285.59c0-1.51.3-2.69.91-3.53s1.45-1.26,2.53-1.26,1.94.42,2.54,1.27.91,2.02.91,3.52-.3,2.68-.91,3.52-1.46,1.27-2.54,1.27-1.92-.42-2.53-1.26-.91-2.02-.91-3.53ZM349.07,285.59c0,1.15.19,2.04.57,2.68.38.64.91.96,1.6.96s1.23-.32,1.61-.96c.38-.64.57-1.54.57-2.68s-.19-2.04-.57-2.68-.92-.96-1.61-.96-1.22.32-1.6.96c-.38.64-.57,1.54-.57,2.68Z"/><path d="M356.26,285.52h4.21v1.16h-4.21v-1.16Z"/><path d="M362.68,289.27c0-.4.08-.77.23-1.11s.41-.71.77-1.09.85-.81,1.45-1.28l.39-.32c.58-.45.98-.83,1.2-1.13.22-.3.33-.62.33-.97,0-.44-.15-.79-.44-1.04-.29-.25-.69-.38-1.19-.38-.79,0-1.45.37-1.97,1.11l-.91-.67c.67-1.06,1.66-1.59,2.97-1.59.86,0,1.54.22,2.05.67.51.45.77,1.06.77,1.83,0,.36-.07.69-.2,1-.13.31-.35.62-.64.94-.3.32-.71.68-1.23,1.08l-.39.3c-.48.38-.86.7-1.14.96s-.47.51-.58.74c-.11.23-.17.47-.18.73h4.45v1.08h-5.76v-.88Z"/><path d="M369.91,285.59c0-1.51.3-2.69.91-3.53s1.45-1.26,2.53-1.26,1.94.42,2.55,1.27.91,2.02.91,3.52-.3,2.68-.91,3.52-1.46,1.27-2.55,1.27-1.92-.42-2.53-1.26-.91-2.02-.91-3.53ZM371.19,285.59c0,1.15.19,2.04.57,2.68.38.64.91.96,1.6.96s1.23-.32,1.61-.96c.38-.64.57-1.54.57-2.68s-.19-2.04-.57-2.68-.92-.96-1.61-.96-1.22.32-1.6.96-.57,1.54-.57,2.68Z"/><path d="M378.45,289.27c0-.4.08-.77.23-1.11s.41-.71.77-1.09c.36-.38.85-.81,1.45-1.28l.39-.32c.58-.45.98-.83,1.2-1.13.22-.3.33-.62.33-.97,0-.44-.15-.79-.44-1.04-.29-.25-.69-.38-1.19-.38-.79,0-1.45.37-1.97,1.11l-.91-.67c.67-1.06,1.66-1.59,2.96-1.59.86,0,1.54.22,2.05.67.51.45.77,1.06.77,1.83,0,.36-.06.69-.2,1-.13.31-.34.62-.64.94-.3.32-.71.68-1.23,1.08l-.39.3c-.48.38-.86.7-1.13.96s-.47.51-.58.74c-.11.23-.17.47-.18.73h4.46v1.08h-5.76v-.88Z"/><path d="M390.73,287.33c0-.58-.18-1.03-.55-1.37-.37-.33-.87-.5-1.52-.5-.53,0-1.04.14-1.52.4l-.62-.48.85-4.35h4.43v1.08h-3.52l-.51,2.55c.36-.16.79-.25,1.29-.25.91,0,1.62.26,2.15.77.53.52.79,1.22.79,2.1,0,.94-.3,1.68-.91,2.24s-1.43.84-2.47.84-1.99-.33-2.76-1l.68-.93c.65.52,1.34.78,2.07.78.66,0,1.17-.17,1.55-.51.38-.34.57-.81.57-1.4Z"/><path class="cls-19" d="M206.08,279.07c0-.57.17-1.08.52-1.52.35-.44.84-.79,1.48-1.04-.47-.23-.84-.53-1.09-.89-.26-.36-.38-.77-.38-1.24,0-.67.26-1.22.77-1.63.52-.41,1.19-.62,2.03-.62s1.47.2,1.97.6c.49.4.74.93.74,1.6,0,.47-.14.9-.41,1.28s-.65.68-1.13.89c1.37.52,2.05,1.36,2.05,2.53,0,.53-.14,1-.42,1.4-.28.4-.67.71-1.16.94s-1.06.34-1.71.34-1.2-.11-1.69-.33c-.49-.22-.88-.53-1.16-.93-.28-.4-.42-.86-.42-1.37ZM207.32,279.03c0,.48.19.88.57,1.19s.87.46,1.45.46,1.08-.16,1.45-.48c.37-.32.56-.73.56-1.23,0-.41-.14-.75-.43-1.03-.29-.28-.8-.57-1.55-.88-.64.15-1.14.4-1.5.75-.37.35-.55.75-.55,1.21ZM207.78,274.39c0,.7.51,1.26,1.52,1.66.51-.15.91-.38,1.21-.67.29-.29.44-.62.44-.98,0-.4-.15-.71-.44-.94-.29-.23-.68-.35-1.15-.35s-.85.12-1.14.35c-.29.23-.43.54-.43.93Z"/><path class="cls-19" d="M213.96,279.07c0-.57.17-1.08.52-1.52s.84-.79,1.47-1.04c-.47-.23-.84-.53-1.09-.89-.26-.36-.38-.77-.38-1.24,0-.67.26-1.22.77-1.63s1.19-.62,2.03-.62,1.48.2,1.97.6c.49.4.74.93.74,1.6,0,.47-.13.9-.4,1.28s-.65.68-1.13.89c1.37.52,2.05,1.36,2.05,2.53,0,.53-.14,1-.42,1.4-.28.4-.67.71-1.16.94-.49.23-1.06.34-1.71.34s-1.2-.11-1.69-.33-.88-.53-1.16-.93c-.28-.4-.42-.86-.42-1.37ZM215.2,279.03c0,.48.19.88.57,1.19s.87.46,1.45.46,1.08-.16,1.45-.48c.37-.32.56-.73.56-1.23,0-.41-.14-.75-.43-1.03s-.8-.57-1.55-.88c-.64.15-1.14.4-1.5.75s-.55.75-.55,1.21ZM215.67,274.39c0,.7.51,1.26,1.52,1.66.51-.15.91-.38,1.21-.67.29-.29.44-.62.44-.98,0-.4-.15-.71-.44-.94s-.68-.35-1.15-.35-.85.12-1.14.35c-.29.23-.43.54-.43.93Z"/><path class="cls-19" d="M221.55,274.84c0-.81.2-1.45.6-1.92.4-.47.94-.7,1.63-.7s1.23.23,1.63.7c.4.47.6,1.1.6,1.9s-.2,1.45-.6,1.92c-.4.47-.94.7-1.63.7s-1.23-.23-1.63-.7c-.4-.47-.6-1.1-.6-1.9ZM222.61,274.84c0,.53.1.95.31,1.27.21.31.49.47.86.47s.65-.16.86-.47c.21-.31.31-.74.31-1.28s-.1-.96-.31-1.27-.49-.46-.86-.46-.65.16-.86.47c-.21.31-.31.74-.31,1.28ZM229.56,272.36h1.16l-5.86,9.11h-1.16l5.86-9.11ZM228.42,279.02c0-.81.2-1.45.6-1.92.4-.47.94-.7,1.63-.7s1.23.23,1.63.7.6,1.1.6,1.9-.2,1.45-.6,1.92-.94.7-1.63.7-1.23-.23-1.63-.7c-.4-.47-.6-1.1-.6-1.9ZM229.48,279.02c0,.53.1.95.31,1.27.21.31.49.47.86.47s.65-.16.86-.47c.21-.31.31-.74.31-1.28s-.1-.96-.31-1.27c-.21-.31-.49-.46-.86-.46s-.65.16-.86.47c-.21.31-.31.74-.31,1.28Z"/><rect class="cls-19" x="205.64" y="288.74" width="89.47" height="9.1" rx="4.55" ry="4.55"/><rect class="cls-10" x="36.01" y="318.74" width="521.77" height="49.46" rx="6.25" ry="6.25"/><path d="M58.08,338.75h3.09c1.03,0,1.84.25,2.43.75.59.5.88,1.2.88,2.08,0,.65-.16,1.19-.48,1.64-.32.45-.77.77-1.35.98l2.3,4.19h-1.46l-2.1-3.98h-2.04v3.98h-1.27v-9.65ZM63.18,341.6c0-.55-.17-.98-.52-1.29s-.82-.46-1.43-.46h-1.87v3.47h1.87c.62,0,1.1-.15,1.44-.46.34-.3.51-.73.51-1.27Z"/><path d="M66.62,338.75h6.03v1.16h-4.73v2.91h3.57v1.16h-3.57v3.27h5.08v1.16h-6.38v-9.65Z"/><path d="M80.29,345.65h-4.06l-1.03,2.75h-1.36l3.8-9.65h1.32l3.79,9.65h-1.43l-1.03-2.75ZM78.26,340.2l-1.63,4.35h3.25l-1.62-4.35Z"/><path d="M84.06,338.75h1.3v8.49h5.08v1.16h-6.38v-9.65Z"/><path d="M99.8,345.78c0-.45-.16-.82-.49-1.11s-.83-.52-1.51-.68l-.48-.12c-.94-.22-1.62-.55-2.06-.98-.44-.43-.66-.98-.66-1.66,0-.83.29-1.49.88-1.98.58-.49,1.36-.74,2.32-.74,1.32,0,2.32.45,2.99,1.35l-.87.81c-.55-.66-1.29-.98-2.21-.98-.56,0-1,.13-1.32.38-.32.26-.48.61-.48,1.06,0,.39.14.7.43.95.29.25.78.45,1.47.61l.48.12c.92.22,1.61.58,2.09,1.07.48.49.72,1.1.72,1.82,0,.58-.14,1.09-.43,1.53-.29.44-.68.78-1.19,1.03-.51.25-1.1.37-1.77.37s-1.36-.14-1.97-.43c-.61-.29-1.14-.7-1.58-1.24l.91-.82c.76.89,1.64,1.33,2.65,1.33.64,0,1.14-.15,1.52-.46.38-.3.56-.71.56-1.22Z"/><path d="M105.7,339.91h-3.47v-1.16h8.24v1.16h-3.47v8.49h-1.3v-8.49Z"/><path d="M116.2,345.65h-4.06l-1.03,2.75h-1.36l3.8-9.65h1.32l3.79,9.65h-1.43l-1.03-2.75ZM114.17,340.2l-1.63,4.35h3.25l-1.62-4.35Z"/><path d="M121.4,339.91h-3.47v-1.16h8.24v1.16h-3.47v8.49h-1.3v-8.49Z"/><path d="M127.67,338.75h6.03v1.16h-4.73v2.91h3.57v1.16h-3.57v3.27h5.08v1.16h-6.38v-9.65Z"/><path d="M138.43,338.75h3.14c1.67,0,2.96.42,3.88,1.25.92.83,1.38,2.01,1.38,3.54s-.46,2.73-1.38,3.58c-.92.85-2.22,1.28-3.9,1.28h-3.12v-9.65ZM145.46,343.57c0-1.19-.34-2.09-1.01-2.72-.67-.63-1.65-.94-2.94-.94h-1.78v7.33h1.81c1.27,0,2.24-.32,2.91-.95.67-.63,1-1.54,1-2.73Z"/><path d="M148.27,343.61c0-.73.12-1.41.36-2.03s.58-1.16,1-1.62c.43-.46.94-.81,1.53-1.06.59-.25,1.23-.38,1.92-.38.79,0,1.51.17,2.17.5.66.33,1.19.8,1.59,1.41l-.94.77c-.64-.99-1.57-1.49-2.79-1.49-.68,0-1.28.16-1.8.49-.53.33-.94.78-1.23,1.37-.29.58-.44,1.26-.44,2.03s.14,1.42.43,2c.29.58.69,1.03,1.2,1.36.51.33,1.1.49,1.78.49,1.13,0,2.09-.5,2.88-1.49l.91.75c-.42.62-.97,1.09-1.63,1.42-.66.33-1.39.5-2.19.5-.92,0-1.73-.21-2.45-.64-.72-.43-1.28-1.02-1.69-1.78s-.62-1.62-.62-2.6Z"/><path d="M317.8,343.84c0-1.51.3-2.69.91-3.53s1.45-1.26,2.53-1.26,1.94.42,2.54,1.27.91,2.02.91,3.52-.3,2.68-.91,3.52-1.46,1.27-2.54,1.27-1.92-.42-2.53-1.26-.91-2.02-.91-3.53ZM319.08,343.84c0,1.15.19,2.04.57,2.68.38.64.91.96,1.6.96s1.23-.32,1.61-.96c.38-.64.57-1.54.57-2.68s-.19-2.04-.57-2.68-.92-.96-1.61-.96-1.22.32-1.6.96c-.38.64-.57,1.54-.57,2.68Z"/><path d="M330.73,345.58c0-.58-.18-1.03-.55-1.37-.37-.33-.87-.5-1.52-.5-.53,0-1.04.14-1.52.4l-.62-.48.85-4.35h4.43v1.08h-3.51l-.51,2.55c.36-.16.79-.25,1.29-.25.91,0,1.62.26,2.15.77.53.52.79,1.22.79,2.1,0,.94-.3,1.68-.91,2.24s-1.43.84-2.47.84-1.99-.33-2.76-1l.68-.93c.65.52,1.33.78,2.07.78.66,0,1.17-.17,1.55-.51.38-.34.57-.81.57-1.4Z"/><path d="M334.15,343.77h4.21v1.16h-4.21v-1.16Z"/><path d="M340.99,347.31h2.04v-6.71l-1.91,1.04-.49-.97,2.55-1.39h1.08v8.03h1.89v1.08h-5.16v-1.08Z"/><path d="M347.8,343.84c0-1.51.3-2.69.91-3.53s1.45-1.26,2.53-1.26,1.94.42,2.54,1.27.91,2.02.91,3.52-.3,2.68-.91,3.52-1.46,1.27-2.54,1.27-1.92-.42-2.53-1.26-.91-2.02-.91-3.53ZM349.07,343.84c0,1.15.19,2.04.57,2.68.38.64.91.96,1.6.96s1.23-.32,1.61-.96c.38-.64.57-1.54.57-2.68s-.19-2.04-.57-2.68-.92-.96-1.61-.96-1.22.32-1.6.96c-.38.64-.57,1.54-.57,2.68Z"/><path d="M356.26,343.77h4.21v1.16h-4.21v-1.16Z"/><path d="M362.68,347.51c0-.4.08-.77.23-1.11s.41-.71.77-1.09.85-.81,1.45-1.28l.39-.32c.58-.45.98-.83,1.2-1.13.22-.3.33-.62.33-.97,0-.44-.15-.79-.44-1.04-.29-.25-.69-.38-1.19-.38-.79,0-1.45.37-1.97,1.11l-.91-.67c.67-1.06,1.66-1.59,2.97-1.59.86,0,1.54.22,2.05.67.51.45.77,1.06.77,1.83,0,.36-.07.69-.2,1-.13.31-.35.62-.64.94-.3.32-.71.68-1.23,1.08l-.39.3c-.48.38-.86.7-1.14.96s-.47.51-.58.74c-.11.23-.17.47-.18.73h4.45v1.08h-5.76v-.88Z"/><path d="M369.91,343.84c0-1.51.3-2.69.91-3.53s1.45-1.26,2.53-1.26,1.94.42,2.55,1.27.91,2.02.91,3.52-.3,2.68-.91,3.52-1.46,1.27-2.55,1.27-1.92-.42-2.53-1.26-.91-2.02-.91-3.53ZM371.19,343.84c0,1.15.19,2.04.57,2.68.38.64.91.96,1.6.96s1.23-.32,1.61-.96c.38-.64.57-1.54.57-2.68s-.19-2.04-.57-2.68-.92-.96-1.61-.96-1.22.32-1.6.96-.57,1.54-.57,2.68Z"/><path d="M378.45,347.51c0-.4.08-.77.23-1.11s.41-.71.77-1.09c.36-.38.85-.81,1.45-1.28l.39-.32c.58-.45.98-.83,1.2-1.13.22-.3.33-.62.33-.97,0-.44-.15-.79-.44-1.04-.29-.25-.69-.38-1.19-.38-.79,0-1.45.37-1.97,1.11l-.91-.67c.67-1.06,1.66-1.59,2.96-1.59.86,0,1.54.22,2.05.67.51.45.77,1.06.77,1.83,0,.36-.06.69-.2,1-.13.31-.34.62-.64.94-.3.32-.71.68-1.23,1.08l-.39.3c-.48.38-.86.7-1.13.96s-.47.51-.58.74c-.11.23-.17.47-.18.73h4.46v1.08h-5.76v-.88Z"/><path d="M390.73,345.58c0-.58-.18-1.03-.55-1.37-.37-.33-.87-.5-1.52-.5-.53,0-1.04.14-1.52.4l-.62-.48.85-4.35h4.43v1.08h-3.52l-.51,2.55c.36-.16.79-.25,1.29-.25.91,0,1.62.26,2.15.77.53.52.79,1.22.79,2.1,0,.94-.3,1.68-.91,2.24s-1.43.84-2.47.84-1.99-.33-2.76-1l.68-.93c.65.52,1.34.78,2.07.78.66,0,1.17-.17,1.55-.51.38-.34.57-.81.57-1.4Z"/><path class="cls-19" d="M206.41,330.61h6.18v1.11c-.23.37-.48.81-.76,1.33-.27.52-.55,1.08-.84,1.69-.29.6-.56,1.21-.82,1.81-.26.61-.49,1.19-.7,1.74-.21.55-.37,1.03-.48,1.43h-1.3c.22-.67.48-1.37.77-2.11.29-.74.61-1.48.95-2.21.34-.73.67-1.41,1.01-2.05s.66-1.19.97-1.66h-4.97v-1.08Z"/><path class="cls-19" d="M218.83,336.9c0-.58-.18-1.03-.55-1.37s-.87-.5-1.52-.5c-.53,0-1.04.14-1.52.4l-.62-.48.85-4.35h4.43v1.08h-3.51l-.51,2.55c.36-.16.79-.25,1.29-.25.91,0,1.62.26,2.15.77.53.52.79,1.22.79,2.1,0,.94-.3,1.68-.91,2.24s-1.43.84-2.47.84-1.99-.33-2.76-1l.68-.93c.65.52,1.33.78,2.07.78.66,0,1.17-.17,1.56-.51.38-.34.57-.81.57-1.4Z"/><path class="cls-19" d="M221.55,333.08c0-.81.2-1.45.6-1.92.4-.47.94-.7,1.63-.7s1.23.23,1.63.7c.4.47.6,1.1.6,1.9s-.2,1.45-.6,1.92c-.4.47-.94.7-1.63.7s-1.23-.23-1.63-.7c-.4-.47-.6-1.1-.6-1.9ZM222.61,333.08c0,.53.1.95.31,1.27.21.31.49.47.86.47s.65-.16.86-.47c.21-.31.31-.74.31-1.28s-.1-.96-.31-1.27-.49-.46-.86-.46-.65.16-.86.47c-.21.31-.31.74-.31,1.28ZM229.56,330.61h1.16l-5.86,9.11h-1.16l5.86-9.11ZM228.42,337.26c0-.81.2-1.45.6-1.92.4-.47.94-.7,1.63-.7s1.23.23,1.63.7.6,1.1.6,1.9-.2,1.45-.6,1.92-.94.7-1.63.7-1.23-.23-1.63-.7c-.4-.47-.6-1.1-.6-1.9ZM229.48,337.26c0,.53.1.95.31,1.27.21.31.49.47.86.47s.65-.16.86-.47c.21-.31.31-.74.31-1.28s-.1-.96-.31-1.27c-.21-.31-.49-.46-.86-.46s-.65.16-.86.47c-.21.31-.31.74-.31,1.28Z"/><rect class="cls-19" x="205.64" y="346.18" width="78.93" height="9.1" rx="4.3" ry="4.3"/><rect class="cls-15" x="341.6" y="119.41" width="323.59" height="291.68" rx="6.76" ry="6.76"/><rect class="cls-9" x="364.2" y="350.35" width="286.54" height="40.26" rx="7.6" ry="7.6"/><path d="M375.71,152.86h-5.97l-1.43,3.97h-2.47l5.71-14.7h2.49l5.69,14.7h-2.58l-1.43-3.97ZM372.73,144.59l-2.31,6.37h4.61l-2.29-6.37Z"/><path d="M387.39,146.58h2.38l-4.41,10.25h-2.14l-4.41-10.25h2.49l3.06,7.78,3.02-7.78Z"/><path d="M391.16,142.5h2.43v2.29h-2.43v-2.29ZM391.25,146.58h2.23v10.25h-2.23v-10.25Z"/><path d="M402.14,154.03c0-.38-.17-.68-.5-.9-.33-.22-.91-.41-1.73-.57l-.73-.13c-1.06-.21-1.85-.57-2.37-1.08-.52-.51-.78-1.15-.78-1.9,0-.97.38-1.74,1.15-2.33.76-.58,1.79-.87,3.09-.87,1.5,0,2.76.43,3.79,1.3l-1.04,1.5c-.84-.68-1.79-1.01-2.87-1.01-1.31,0-1.96.41-1.96,1.23,0,.37.15.65.45.85.3.2.83.37,1.58.52l.75.15c1.18.24,2.03.61,2.57,1.11.54.51.8,1.15.8,1.93,0,1.06-.4,1.87-1.19,2.45s-1.87.86-3.22.86c-.9,0-1.73-.14-2.49-.41-.77-.27-1.4-.65-1.9-1.14l1.19-1.48c.43.4.91.7,1.46.91.54.21,1.14.32,1.79.32.69,0,1.22-.11,1.6-.34.38-.23.56-.55.56-.98Z"/><path d="M406.06,151.67c0-1.03.24-1.95.72-2.77.48-.82,1.13-1.46,1.95-1.94.82-.48,1.76-.72,2.8-.72s1.98.24,2.81.72c.83.48,1.48,1.12,1.96,1.94.48.82.72,1.74.72,2.77s-.24,1.98-.72,2.81c-.48.83-1.13,1.48-1.96,1.95s-1.77.71-2.81.71-1.98-.24-2.8-.71-1.47-1.12-1.95-1.95c-.48-.83-.72-1.77-.72-2.81ZM408.33,151.69c0,1.03.3,1.87.89,2.52.59.65,1.36.98,2.3.98.62,0,1.17-.15,1.65-.45.49-.3.87-.72,1.15-1.25.28-.53.42-1.13.42-1.81s-.14-1.3-.41-1.82-.65-.93-1.13-1.23c-.49-.3-1.04-.45-1.65-.45-.94,0-1.71.33-2.31.98-.6.65-.9,1.5-.9,2.52Z"/><path d="M422.58,151.98c0-1.12.23-2.1.69-2.96s1.09-1.54,1.9-2.03c.8-.49,1.71-.74,2.72-.74.9,0,1.75.23,2.56.68v-4.81h2.23v14.7h-2.07l-.09-1.3c-.34.51-.79.91-1.36,1.19-.57.28-1.21.42-1.93.42-.93,0-1.74-.22-2.44-.65-.7-.43-1.24-1.04-1.63-1.81-.39-.77-.58-1.67-.58-2.7ZM424.85,151.82c0,1.03.26,1.85.77,2.46.51.61,1.2.92,2.05.92s1.49-.27,2.01-.82c.51-.54.77-1.24.77-2.09v-3.37c-.72-.48-1.49-.73-2.31-.73-1,0-1.8.33-2.39.98-.59.65-.89,1.54-.89,2.66Z"/><path d="M434.88,151.71c0-1.06.22-2,.66-2.82s1.05-1.47,1.82-1.94,1.66-.71,2.66-.71,1.9.24,2.66.72c.76.48,1.35,1.15,1.77,2.01.43.86.64,1.86.64,2.99v.42h-7.98c.09.9.43,1.6,1.03,2.12.59.51,1.38.77,2.37.77,1.19,0,2.26-.41,3.2-1.23l1.1,1.39c-.53.54-1.18.97-1.96,1.27-.78.3-1.6.45-2.47.45-1.09,0-2.04-.23-2.87-.68-.82-.46-1.47-1.09-1.93-1.91-.46-.82-.69-1.76-.69-2.83ZM442.01,148.87c-.49-.47-1.13-.71-1.93-.71s-1.5.24-2.03.72c-.53.48-.84,1.12-.95,1.93h5.78c-.09-.82-.38-1.47-.87-1.94Z"/><path d="M451.41,142.12h2.29l7.8,11.02v-11.02h2.31v14.7h-2.27l-7.83-11.07v11.07h-2.31v-14.7Z"/><path d="M466.27,151.67c0-1.03.24-1.95.72-2.77.48-.82,1.13-1.46,1.95-1.94.82-.48,1.76-.72,2.8-.72s1.98.24,2.81.72c.83.48,1.48,1.12,1.96,1.94.48.82.72,1.74.72,2.77s-.24,1.98-.72,2.81c-.48.83-1.13,1.48-1.96,1.95s-1.77.71-2.81.71-1.98-.24-2.8-.71c-.82-.47-1.47-1.12-1.95-1.95-.48-.83-.72-1.77-.72-2.81ZM468.54,151.69c0,1.03.3,1.87.89,2.52.6.65,1.36.98,2.3.98.62,0,1.17-.15,1.65-.45.49-.3.87-.72,1.15-1.25.28-.53.42-1.13.42-1.81s-.14-1.3-.41-1.82c-.27-.52-.65-.93-1.13-1.23-.49-.3-1.04-.45-1.65-.45-.94,0-1.71.33-2.31.98-.6.65-.9,1.5-.9,2.52Z"/><path d="M478.22,146.58h1.81v-3.37h2.23v3.37h2.95v1.81h-2.95v5.03c0,.65.12,1.12.35,1.41.24.29.6.44,1.1.44.56,0,1.08-.21,1.56-.64l.95,1.41c-.78.73-1.73,1.1-2.84,1.1s-1.92-.31-2.49-.94c-.57-.62-.86-1.54-.86-2.74v-5.07h-1.81v-1.81Z"/><path d="M487.61,142.5h2.43v2.29h-2.43v-2.29ZM487.7,146.58h2.23v10.25h-2.23v-10.25Z"/><path d="M500,148.38h-4.39v8.44h-2.23v-8.44h-1.83v-1.81h1.83v-.55c0-1.35.43-2.39,1.29-3.12.86-.73,2.05-1.09,3.56-1.09.72,0,1.4.09,2.04.26s1.22.45,1.75.82l-.86,1.63c-.84-.57-1.81-.86-2.91-.86-.9,0-1.56.19-2,.57-.43.38-.65.98-.65,1.81v.53h6.61v10.25h-2.23v-8.44Z"/><path d="M504.36,151.74c0-1.06.24-2,.73-2.83.49-.83,1.15-1.48,2-1.95s1.8-.71,2.86-.71c1.6,0,2.92.57,3.95,1.72l-1.34,1.41c-.32-.38-.71-.68-1.15-.88-.44-.21-.92-.31-1.43-.31-.65,0-1.22.15-1.72.45-.5.3-.89.72-1.18,1.25-.29.53-.43,1.14-.43,1.83,0,1.03.31,1.87.94,2.51.62.65,1.42.97,2.39.97,1.07,0,1.97-.4,2.69-1.21l1.28,1.43c-1.01,1.15-2.37,1.72-4.06,1.72-1.06,0-2-.23-2.83-.69-.83-.46-1.48-1.1-1.96-1.91-.48-.81-.72-1.74-.72-2.8Z"/><path d="M515.21,153.85c0-1.1.41-1.97,1.22-2.6.81-.63,1.98-.95,3.49-.95.69,0,1.42.06,2.2.18v-.37c0-1.35-.84-2.03-2.51-2.03-1.16,0-2.15.32-2.98.95l-.97-1.5c1.16-.85,2.54-1.28,4.12-1.28,1.43,0,2.53.33,3.31,1,.78.67,1.17,1.6,1.17,2.79v6.79h-1.96l-.09-1.32c-.34.51-.8.92-1.4,1.2-.6.29-1.28.43-2.04.43-1.07,0-1.94-.3-2.59-.89s-.98-1.39-.98-2.39ZM517.37,153.74c0,.54.17.96.52,1.26.34.29.83.44,1.44.44.53,0,1-.1,1.42-.31.42-.21.75-.49,1-.84s.38-.73.38-1.15v-1.15c-.74-.12-1.39-.18-1.96-.18-.9,0-1.59.16-2.07.49-.49.32-.73.8-.73,1.43Z"/><path d="M526.36,151.74c0-1.06.24-2,.73-2.83.48-.83,1.15-1.48,1.99-1.95.85-.47,1.8-.71,2.86-.71,1.6,0,2.92.57,3.95,1.72l-1.34,1.41c-.32-.38-.71-.68-1.15-.88-.44-.21-.92-.31-1.43-.31-.65,0-1.22.15-1.72.45-.5.3-.89.72-1.18,1.25-.29.53-.43,1.14-.43,1.83,0,1.03.31,1.87.94,2.51.62.65,1.42.97,2.39.97,1.07,0,1.97-.4,2.69-1.21l1.28,1.43c-1.01,1.15-2.37,1.72-4.06,1.72-1.06,0-2-.23-2.83-.69-.83-.46-1.48-1.1-1.96-1.91-.48-.81-.72-1.74-.72-2.8Z"/><path d="M537.69,142.5h2.43v2.29h-2.43v-2.29ZM537.78,146.58h2.23v10.25h-2.23v-10.25Z"/><path d="M542.17,151.67c0-1.03.24-1.95.72-2.77.48-.82,1.13-1.46,1.95-1.94.82-.48,1.76-.72,2.8-.72s1.98.24,2.81.72c.83.48,1.48,1.12,1.96,1.94.48.82.72,1.74.72,2.77s-.24,1.98-.72,2.81c-.48.83-1.13,1.48-1.96,1.95-.83.47-1.77.71-2.81.71s-1.98-.24-2.8-.71c-.82-.47-1.47-1.12-1.95-1.95-.48-.83-.72-1.77-.72-2.81ZM544.44,151.69c0,1.03.3,1.87.89,2.52.59.65,1.36.98,2.3.98.62,0,1.17-.15,1.65-.45.48-.3.87-.72,1.15-1.25.28-.53.42-1.13.42-1.81s-.14-1.3-.41-1.82c-.27-.52-.65-.93-1.14-1.23-.48-.3-1.04-.45-1.65-.45-.94,0-1.71.33-2.31.98-.6.65-.9,1.5-.9,2.52ZM548.41,141.48h2.62l-2.47,3.44h-1.98l1.83-3.44Z"/><path d="M555.26,146.58h2.07l.09,1.5c.35-.57.83-1.02,1.44-1.34.61-.32,1.3-.48,2.08-.48,1.22,0,2.16.38,2.83,1.14.67.76,1,1.81,1,3.16v6.28h-2.23v-5.97c0-.87-.19-1.52-.58-1.97-.39-.45-.95-.67-1.69-.67-.85,0-1.53.3-2.04.9-.51.6-.76,1.41-.76,2.42v5.29h-2.23v-10.25Z"/><path d="M387.45,203.93h3.14c1.67,0,2.96.42,3.88,1.25.92.83,1.38,2.01,1.38,3.54s-.46,2.73-1.38,3.58c-.92.85-2.22,1.28-3.9,1.28h-3.12v-9.65ZM394.48,208.74c0-1.19-.34-2.09-1.01-2.72-.67-.63-1.65-.94-2.94-.94h-1.78v7.33h1.81c1.27,0,2.24-.32,2.91-.95.67-.63,1-1.54,1-2.73Z"/><path d="M397.16,210.22c0-.69.14-1.31.43-1.84.28-.53.68-.95,1.18-1.26.5-.3,1.08-.46,1.72-.46s1.23.16,1.72.47c.49.31.88.75,1.15,1.31s.41,1.21.41,1.95v.19h-5.38c.04.66.27,1.17.69,1.55.42.38.98.57,1.66.57.81,0,1.52-.28,2.14-.85l.69.74c-.36.39-.78.68-1.28.88-.5.2-1.03.3-1.6.3-.7,0-1.31-.15-1.84-.45-.54-.3-.95-.72-1.25-1.25s-.45-1.15-.45-1.86ZM401.9,208.25c-.36-.35-.82-.52-1.39-.52s-1.08.18-1.46.53c-.39.35-.61.82-.67,1.4h4.12c-.05-.59-.25-1.06-.61-1.4Z"/><path d="M409.23,211.75c0-.28-.12-.5-.35-.66s-.63-.29-1.19-.4l-.46-.09c-1.38-.26-2.07-.9-2.07-1.91,0-.62.24-1.11.73-1.48.49-.37,1.14-.56,1.95-.56.99,0,1.81.29,2.45.87l-.67.84c-.52-.45-1.15-.68-1.88-.68-.44,0-.79.08-1.03.24s-.36.38-.36.67c0,.26.11.47.33.61.22.15.6.28,1.13.38l.46.09c.75.14,1.31.38,1.66.69.36.32.54.74.54,1.27,0,.66-.25,1.17-.75,1.56s-1.17.57-2.03.57c-.59,0-1.13-.09-1.62-.27-.49-.18-.9-.43-1.21-.76l.75-.81c.54.54,1.23.81,2.08.81.5,0,.88-.09,1.15-.26.26-.17.4-.42.4-.74Z"/><path d="M411.69,210.25c0-.69.16-1.31.47-1.85.31-.54.75-.96,1.29-1.27.55-.31,1.17-.46,1.87-.46,1.03,0,1.88.38,2.56,1.13l-.8.77c-.21-.26-.48-.46-.79-.61-.31-.15-.65-.22-1.02-.22-.45,0-.86.11-1.21.33s-.63.51-.83.89c-.2.38-.3.81-.3,1.29s.1.91.3,1.28c.2.37.48.66.83.88.35.21.76.32,1.22.32.75,0,1.38-.28,1.87-.85l.75.8c-.67.75-1.54,1.13-2.63,1.13-.69,0-1.31-.15-1.85-.46s-.96-.72-1.27-1.25c-.31-.53-.46-1.14-.46-1.82Z"/><path d="M419.21,206.86h1.14l.06,1.13c.24-.4.55-.7.92-.91.38-.21.79-.32,1.24-.32.28,0,.54.04.77.12l-.28,1.13c-.19-.07-.4-.1-.62-.1-.58,0-1.06.19-1.45.58-.38.39-.58.89-.58,1.5v3.59h-1.21v-6.71Z"/><path d="M424.36,204.24h1.36v1.39h-1.36v-1.39ZM424.43,206.86h1.21v6.71h-1.21v-6.71Z"/><path d="M427.47,206.86h1.14l.04.82c.45-.68,1.18-1.03,2.17-1.03.62,0,1.16.14,1.62.43.46.28.82.68,1.08,1.19.26.51.39,1.1.39,1.77,0,.72-.15,1.36-.45,1.92-.3.56-.71,1-1.24,1.32-.53.32-1.13.48-1.8.48-.6,0-1.18-.15-1.75-.46v3.15h-1.21v-9.6ZM432.68,210.12c0-.72-.18-1.3-.54-1.74-.36-.43-.85-.65-1.47-.65-.58,0-1.05.19-1.42.57-.37.38-.56.87-.56,1.47v2.42c.51.35,1.07.52,1.66.52.71,0,1.28-.23,1.7-.7.42-.47.63-1.1.63-1.89Z"/><path d="M435.08,210.25c0-.69.16-1.31.47-1.85.31-.54.74-.96,1.29-1.27.55-.31,1.17-.46,1.87-.46,1.03,0,1.88.38,2.56,1.13l-.8.77c-.21-.26-.47-.46-.79-.61-.31-.15-.65-.22-1.02-.22-.45,0-.86.11-1.21.33-.35.22-.63.51-.83.89-.2.38-.3.81-.3,1.29s.1.91.3,1.28c.2.37.48.66.83.88.35.21.76.32,1.22.32.75,0,1.37-.28,1.87-.85l.75.8c-.67.75-1.54,1.13-2.63,1.13-.7,0-1.31-.15-1.85-.46-.54-.3-.96-.72-1.27-1.25-.31-.53-.46-1.14-.46-1.82Z"/><path d="M442.53,204.24h1.36v1.39h-1.36v-1.39ZM442.6,206.86h1.21v6.71h-1.21v-6.71Z"/><path d="M445.3,210.2c0-.67.15-1.28.46-1.81.31-.53.73-.95,1.26-1.27.54-.31,1.14-.47,1.82-.47s1.28.16,1.81.47c.53.31.95.74,1.27,1.27.31.53.47,1.13.47,1.81s-.16,1.28-.47,1.82c-.31.54-.73.97-1.27,1.28-.53.31-1.13.47-1.81.47s-1.28-.16-1.82-.47-.96-.74-1.26-1.28c-.31-.54-.46-1.15-.46-1.82ZM446.55,210.22c0,.48.1.91.3,1.29s.47.67.82.88c.35.21.74.32,1.19.32s.84-.11,1.18-.32c.34-.21.62-.51.82-.88s.3-.8.3-1.29-.1-.91-.3-1.29c-.2-.38-.47-.67-.82-.88-.35-.21-.74-.32-1.19-.32s-.84.11-1.19.32c-.35.21-.62.51-.82.88s-.3.81-.3,1.29ZM449.47,203.55h1.49l-1.58,2.21h-1.13l1.21-2.21Z"/><path d="M453.88,206.86h1.14l.04,1.01c.24-.39.56-.68.97-.9.4-.21.87-.32,1.39-.32.8,0,1.42.25,1.87.75s.67,1.2.67,2.1v4.06h-1.21v-3.96c0-.62-.14-1.09-.42-1.41-.28-.32-.68-.48-1.2-.48-.62,0-1.11.22-1.47.65-.37.43-.55,1.02-.55,1.75v3.46h-1.21v-6.71Z"/><path class="cls-14" d="M426.73,372.6h-4.47l-1.07,2.97h-1.85l4.27-11h1.86l4.25,11h-1.93l-1.07-2.97ZM424.51,366.42l-1.73,4.77h3.45l-1.71-4.77Z"/><path class="cls-14" d="M430.38,371.76c0-.79.18-1.5.54-2.12.36-.62.86-1.11,1.49-1.46.63-.35,1.34-.53,2.13-.53,1.2,0,2.18.43,2.95,1.29l-1.01,1.06c-.24-.29-.53-.51-.86-.66-.33-.15-.69-.23-1.07-.23-.48,0-.91.11-1.29.34-.37.23-.67.54-.88.93-.21.4-.32.85-.32,1.37,0,.77.23,1.4.7,1.88.47.48,1.06.73,1.79.73.8,0,1.47-.3,2.01-.91l.96,1.07c-.76.86-1.77,1.29-3.04,1.29-.79,0-1.5-.17-2.12-.52s-1.11-.82-1.47-1.43c-.36-.6-.54-1.3-.54-2.09Z"/><path class="cls-14" d="M438.26,371.74c0-.79.17-1.5.5-2.11.33-.62.78-1.1,1.36-1.45.58-.35,1.24-.53,1.99-.53s1.42.18,1.99.54c.57.36,1.01.86,1.33,1.5.32.64.48,1.39.48,2.23v.31h-5.97c.07.67.32,1.2.77,1.58s1.04.58,1.77.58c.89,0,1.69-.31,2.39-.92l.82,1.04c-.4.41-.88.72-1.47.95-.58.23-1.2.34-1.85.34-.81,0-1.53-.17-2.14-.51-.62-.34-1.1-.82-1.44-1.43-.35-.61-.52-1.32-.52-2.12ZM443.6,369.62c-.37-.35-.85-.53-1.44-.53s-1.12.18-1.52.54c-.4.36-.63.84-.71,1.44h4.32c-.07-.62-.28-1.1-.65-1.45Z"/><path class="cls-14" d="M447.46,367.9h1.55l.07.92c.52-.78,1.34-1.17,2.46-1.17.69,0,1.3.16,1.82.49.52.32.93.78,1.22,1.36.29.58.44,1.26.44,2.03,0,.82-.17,1.56-.51,2.2s-.81,1.15-1.4,1.52c-.59.37-1.28.55-2.04.55-.67,0-1.31-.17-1.93-.51v3.58h-1.67v-10.97ZM453.32,371.63c0-.76-.19-1.37-.57-1.82-.38-.46-.89-.68-1.54-.68-.61,0-1.1.2-1.49.6-.39.4-.58.93-.58,1.58v2.54c.54.35,1.12.53,1.73.53.75,0,1.34-.25,1.79-.74.45-.49.67-1.16.67-2Z"/><path class="cls-14" d="M455.76,367.9h1.35v-2.52h1.67v2.52h2.21v1.35h-2.21v3.76c0,.48.09.84.26,1.06.18.22.45.33.83.33.42,0,.81-.16,1.17-.48l.71,1.06c-.58.55-1.29.82-2.13.82s-1.43-.23-1.86-.7c-.43-.47-.64-1.15-.64-2.05v-3.79h-1.35v-1.35Z"/><path class="cls-14" d="M462.42,373.34c0-.82.31-1.47.92-1.95.61-.47,1.48-.71,2.62-.71.52,0,1.07.04,1.65.13v-.28c0-1.01-.63-1.52-1.88-1.52-.87,0-1.61.24-2.23.71l-.73-1.12c.87-.64,1.9-.96,3.08-.96,1.07,0,1.89.25,2.47.75.58.5.87,1.2.87,2.09v5.08h-1.47l-.07-.99c-.25.39-.6.68-1.05.9-.44.21-.95.32-1.53.32-.8,0-1.45-.22-1.94-.67-.49-.45-.73-1.04-.73-1.79ZM464.04,373.26c0,.41.13.72.39.94.26.22.62.33,1.08.33.39,0,.75-.08,1.06-.23.31-.15.56-.36.75-.63.19-.26.28-.55.28-.86v-.86c-.55-.09-1.04-.13-1.47-.13-.67,0-1.19.12-1.55.36-.36.24-.54.6-.54,1.07Z"/><path class="cls-14" d="M471.15,367.9h1.55l.08,1.25c.26-.44.61-.78,1.03-1.02s.89-.36,1.41-.36c.29,0,.57.04.86.13l-.31,1.52c-.23-.08-.47-.12-.73-.12-.64,0-1.17.21-1.59.63-.42.42-.63.97-.63,1.65v3.99h-1.67v-7.67Z"/><path class="cls-14" d="M485.73,367.9h1.78l-3.61,8.53c-.27.66-.55,1.18-.82,1.58-.27.39-.56.67-.86.84-.3.17-.66.26-1.06.26-.65,0-1.22-.19-1.71-.58l.64-1.14c.35.23.67.35.94.35s.54-.11.75-.34c.21-.23.44-.62.67-1.2l.28-.73-3.41-7.57h1.86l2.38,5.77,2.18-5.77Z"/><path class="cls-14" d="M497.58,372.57c0-.48-.17-.87-.51-1.17s-.89-.54-1.65-.73l-.58-.15c-1.03-.25-1.8-.63-2.3-1.12-.5-.5-.75-1.13-.75-1.91,0-.64.15-1.2.46-1.67.31-.48.74-.85,1.3-1.11.56-.26,1.22-.4,1.98-.4s1.42.13,2.03.4c.6.26,1.1.64,1.48,1.12l-1.07,1.12c-.64-.73-1.47-1.09-2.51-1.09-.58,0-1.04.13-1.38.4-.34.26-.51.63-.51,1.09,0,.41.15.74.46.99.31.25.83.47,1.58.66l.58.15c2.11.55,3.17,1.66,3.17,3.33,0,.67-.16,1.26-.49,1.76-.33.51-.79.9-1.39,1.18-.6.28-1.29.42-2.09.42s-1.57-.16-2.28-.48c-.71-.32-1.32-.78-1.84-1.37l1.11-1.15c.89.97,1.9,1.45,3.02,1.45.68,0,1.22-.15,1.61-.46.39-.31.58-.73.58-1.25Z"/><path class="cls-14" d="M500.83,371.74c0-.79.17-1.5.5-2.11s.78-1.1,1.36-1.45c.58-.35,1.24-.53,1.99-.53s1.42.18,1.99.54c.57.36,1.01.86,1.33,1.5.32.64.48,1.39.48,2.23v.31h-5.97c.07.67.32,1.2.77,1.58s1.04.58,1.77.58c.89,0,1.69-.31,2.39-.92l.82,1.04c-.39.41-.88.72-1.47.95-.58.23-1.2.34-1.85.34-.81,0-1.53-.17-2.14-.51-.62-.34-1.1-.82-1.44-1.43s-.52-1.32-.52-2.12ZM506.17,369.62c-.37-.35-.85-.53-1.44-.53s-1.12.18-1.52.54-.63.84-.71,1.44h4.32c-.07-.62-.28-1.1-.65-1.45Z"/><path class="cls-14" d="M515.56,375.49v-.94c-.53.75-1.34,1.12-2.42,1.12-.69,0-1.3-.16-1.82-.48-.52-.32-.93-.76-1.22-1.34-.29-.57-.44-1.24-.44-2,0-.86.19-1.6.56-2.23.37-.63.9-1.11,1.58-1.46.68-.35,1.47-.52,2.38-.52.5,0,1.01.05,1.55.14.54.09,1.03.23,1.47.4v7.22c0,1.18-.34,2.08-1.02,2.72s-1.66.96-2.94.96-2.31-.32-3.15-.97l.73-1.22c.74.53,1.53.79,2.39.79,1.57,0,2.36-.74,2.36-2.21ZM515.53,372.07v-2.79c-.47-.12-.91-.18-1.32-.18-.9,0-1.6.24-2.1.72-.5.48-.75,1.14-.75,1.99,0,.74.19,1.33.58,1.77s.9.67,1.53.67,1.11-.2,1.49-.61c.38-.41.57-.93.57-1.57Z"/><path class="cls-14" d="M519.14,372.57v-4.67h1.67v4.44c0,.65.14,1.15.42,1.49.28.35.68.52,1.2.52.64,0,1.15-.24,1.53-.72.38-.48.57-1.11.57-1.9v-3.83h1.67v7.67h-1.53l-.07-1.17c-.26.44-.62.78-1.08,1.03-.46.25-.97.37-1.54.37-.88,0-1.57-.28-2.07-.85-.5-.57-.75-1.36-.75-2.38Z"/><path class="cls-14" d="M528.09,364.85h1.81v1.72h-1.81v-1.72ZM528.16,367.9h1.67v7.67h-1.67v-7.67Z"/><path class="cls-14" d="M531.82,367.9h1.55l.08,1.25c.26-.44.61-.78,1.03-1.02.42-.24.89-.36,1.41-.36.29,0,.57.04.86.13l-.31,1.52c-.23-.08-.47-.12-.73-.12-.64,0-1.17.21-1.59.63-.42.42-.63.97-.63,1.65v3.99h-1.67v-7.67Z"/><path class="cls-14" d="M540.93,371.33v-6.76h1.78v6.75c0,1.94.9,2.9,2.69,2.9s2.71-.97,2.71-2.9v-6.75h1.78v6.76c0,1.43-.39,2.54-1.18,3.32-.79.79-1.89,1.18-3.31,1.18s-2.5-.39-3.29-1.18c-.79-.79-1.18-1.89-1.18-3.32Z"/><path class="cls-14" d="M556.16,373.48c0-.29-.12-.51-.37-.68-.25-.17-.68-.31-1.29-.43l-.54-.1c-.79-.15-1.38-.42-1.77-.81-.39-.38-.59-.86-.59-1.42,0-.73.29-1.31.86-1.74.57-.43,1.34-.65,2.31-.65,1.12,0,2.07.32,2.84.97l-.77,1.12c-.63-.51-1.34-.76-2.14-.76-.98,0-1.47.31-1.47.92,0,.27.11.49.34.63s.62.28,1.18.39l.56.12c.88.18,1.52.45,1.92.83s.6.86.6,1.44c0,.79-.3,1.4-.89,1.83-.59.43-1.4.64-2.41.64-.67,0-1.29-.1-1.86-.31-.57-.2-1.04-.49-1.42-.85l.89-1.1c.32.3.68.52,1.09.68.41.16.85.24,1.34.24.52,0,.92-.08,1.2-.26.28-.17.42-.41.42-.73Z"/><path class="cls-14" d="M559.05,373.34c0-.82.31-1.47.92-1.95.61-.47,1.48-.71,2.62-.71.52,0,1.07.04,1.65.13v-.28c0-1.01-.63-1.52-1.88-1.52-.87,0-1.61.24-2.23.71l-.73-1.12c.87-.64,1.9-.96,3.08-.96,1.07,0,1.89.25,2.47.75.58.5.87,1.2.87,2.09v5.08h-1.47l-.07-.99c-.25.39-.6.68-1.05.9-.44.21-.95.32-1.53.32-.8,0-1.45-.22-1.94-.67-.49-.45-.73-1.04-.73-1.79ZM560.67,373.26c0,.41.13.72.39.94.26.22.62.33,1.08.33.39,0,.75-.08,1.06-.23.31-.15.56-.36.75-.63.19-.26.28-.55.28-.86v-.86c-.55-.09-1.04-.13-1.47-.13-.67,0-1.19.12-1.55.36-.36.24-.54.6-.54,1.07Z"/><path class="cls-14" d="M567.77,367.9h1.55l.07,1.12c.26-.43.62-.76,1.08-1.01.46-.24.98-.36,1.56-.36.91,0,1.62.28,2.12.85s.75,1.35.75,2.37v4.7h-1.67v-4.47c0-.65-.15-1.14-.44-1.48-.29-.34-.71-.5-1.26-.5-.64,0-1.15.23-1.53.68-.38.45-.57,1.06-.57,1.81v3.96h-1.67v-7.67Z"/><path class="cls-14" d="M576.45,371.94c0-.84.17-1.57.52-2.22.35-.64.82-1.15,1.42-1.52.6-.37,1.28-.55,2.04-.55.67,0,1.31.17,1.91.51v-3.6h1.67v11h-1.55l-.07-.97c-.25.39-.59.68-1.01.89-.42.21-.9.31-1.44.31-.69,0-1.3-.16-1.82-.49-.52-.32-.93-.77-1.22-1.35-.29-.58-.44-1.25-.44-2.02ZM578.15,371.83c0,.77.19,1.38.58,1.84s.9.68,1.53.68,1.12-.2,1.5-.61.58-.93.58-1.57v-2.52c-.54-.36-1.12-.54-1.73-.54-.75,0-1.34.24-1.79.73s-.67,1.15-.67,1.99Z"/><path class="cls-14" d="M585.6,371.71c0-.77.18-1.46.54-2.07.36-.61.84-1.09,1.46-1.45.62-.36,1.31-.54,2.09-.54s1.48.18,2.1.54c.62.36,1.11.84,1.47,1.45.36.61.54,1.3.54,2.07s-.18,1.48-.54,2.1c-.36.62-.85,1.11-1.47,1.46s-1.32.53-2.1.53-1.48-.18-2.09-.53-1.1-.84-1.46-1.46-.54-1.32-.54-2.1ZM587.3,371.73c0,.77.22,1.4.67,1.89.45.49,1.02.73,1.72.73.46,0,.87-.11,1.24-.34.36-.23.65-.54.86-.93.21-.4.31-.85.31-1.35s-.1-.97-.31-1.36-.49-.7-.85-.92c-.36-.23-.77-.34-1.24-.34-.7,0-1.28.24-1.73.73-.45.49-.68,1.12-.68,1.89Z"/><path class="cls-1" d="M365.15,316.11h6.03v1.16h-4.73v2.91h3.57v1.16h-3.57v3.27h5.08v1.16h-6.38v-9.65Z"/><path class="cls-1" d="M377.1,323.93c0-.28-.12-.5-.35-.66s-.63-.29-1.19-.4l-.46-.09c-1.38-.26-2.07-.9-2.07-1.91,0-.62.24-1.11.73-1.48.49-.37,1.13-.56,1.95-.56.99,0,1.81.29,2.44.87l-.67.84c-.52-.45-1.15-.68-1.88-.68-.44,0-.79.08-1.03.24-.24.16-.36.38-.36.67,0,.26.11.47.33.61.22.15.6.28,1.13.38l.46.09c.75.14,1.31.38,1.66.69.36.32.54.74.54,1.27,0,.66-.25,1.17-.75,1.56-.5.38-1.17.57-2.03.57-.59,0-1.13-.09-1.62-.27s-.9-.43-1.21-.76l.75-.81c.54.54,1.23.81,2.08.81.5,0,.88-.09,1.15-.26.26-.17.4-.42.4-.74Z"/><path class="cls-1" d="M379.25,319.04h1.23v-2.2h1.21v2.2h2v1.01h-2v3.54c0,.45.08.78.24.99.16.21.41.31.76.31.21,0,.4-.04.57-.12.17-.08.35-.19.53-.35l.58.77c-.5.5-1.1.75-1.81.75s-1.19-.2-1.55-.6c-.36-.4-.54-.99-.54-1.76v-3.54h-1.23v-1.01Z"/><path class="cls-1" d="M385.01,323.79c0-.71.26-1.28.8-1.69.53-.41,1.29-.61,2.27-.61.22,0,.47.01.75.04.27.02.54.06.8.09v-.3c0-.95-.58-1.43-1.74-1.43-.77,0-1.43.21-1.98.64l-.58-.84c.73-.56,1.61-.84,2.62-.84.9,0,1.59.21,2.09.64.5.42.74,1.01.74,1.76v4.51h-1.08l-.04-.9c-.23.35-.55.62-.95.81-.41.19-.85.29-1.33.29-.7,0-1.27-.2-1.71-.59s-.65-.92-.65-1.58ZM386.19,323.77c0,.39.12.68.38.9.25.21.59.32,1.03.32.38,0,.72-.08,1.03-.23.31-.15.55-.36.73-.61.18-.25.27-.53.27-.82v-.78c-.25-.05-.5-.08-.75-.1-.25-.02-.48-.03-.68-.03-.65,0-1.14.12-1.48.35-.34.23-.51.57-.51,1.01Z"/><path class="cls-1" d="M391.92,319.04h1.23v-2.2h1.21v2.2h2v1.01h-2v3.54c0,.45.08.78.24.99.16.21.41.31.76.31.21,0,.4-.04.57-.12.17-.08.34-.19.53-.35l.58.77c-.5.5-1.1.75-1.81.75s-1.19-.2-1.55-.6c-.36-.4-.53-.99-.53-1.76v-3.54h-1.23v-1.01Z"/><path class="cls-1" d="M397.88,323.09v-4.05h1.21v3.95c0,.62.13,1.09.4,1.42.26.33.65.49,1.15.49.61,0,1.1-.23,1.47-.69.37-.46.56-1.08.56-1.84v-3.33h1.21v6.71h-1.14l-.04-1.03c-.24.39-.56.69-.96.9-.4.22-.86.33-1.37.33-.79,0-1.4-.25-1.84-.75-.43-.5-.65-1.21-.65-2.11Z"/><path class="cls-1" d="M409.71,323.93c0-.28-.12-.5-.35-.66s-.63-.29-1.19-.4l-.46-.09c-1.38-.26-2.07-.9-2.07-1.91,0-.62.24-1.11.73-1.48.49-.37,1.14-.56,1.95-.56.99,0,1.81.29,2.45.87l-.67.84c-.52-.45-1.15-.68-1.88-.68-.44,0-.79.08-1.03.24s-.36.38-.36.67c0,.26.11.47.33.61.22.15.6.28,1.13.38l.46.09c.75.14,1.31.38,1.66.69.36.32.54.74.54,1.27,0,.66-.25,1.17-.75,1.56s-1.17.57-2.03.57c-.59,0-1.13-.09-1.62-.27-.49-.18-.9-.43-1.21-.76l.75-.81c.54.54,1.23.81,2.08.81.5,0,.88-.09,1.15-.26.26-.17.4-.42.4-.74Z"/><path class="cls-1" d="M414.77,322.57c0-.72.15-1.37.45-1.93s.71-1,1.24-1.32,1.12-.48,1.8-.48c.61,0,1.19.15,1.75.46v-3.2h1.21v9.65h-1.14l-.04-.85c-.22.34-.52.6-.9.78s-.81.27-1.29.27c-.61,0-1.14-.14-1.61-.43s-.82-.68-1.08-1.19c-.26-.51-.39-1.1-.39-1.76ZM416.02,322.49c0,.73.18,1.32.54,1.75.36.43.85.65,1.47.65.58,0,1.05-.19,1.43-.58s.56-.88.56-1.48v-2.4c-.51-.35-1.07-.52-1.66-.52-.7,0-1.27.23-1.69.7-.42.47-.64,1.09-.64,1.87Z"/><path class="cls-1" d="M422.71,322.4c0-.69.14-1.31.43-1.84.28-.53.68-.95,1.18-1.26.5-.3,1.08-.46,1.72-.46s1.23.16,1.72.47c.49.31.88.75,1.15,1.31s.41,1.21.41,1.95v.19h-5.38c.04.66.27,1.17.69,1.55.42.38.98.57,1.66.57.81,0,1.52-.28,2.14-.85l.69.74c-.36.39-.78.68-1.28.88-.5.2-1.03.3-1.6.3-.7,0-1.31-.15-1.84-.45-.54-.3-.95-.72-1.25-1.25s-.45-1.15-.45-1.86ZM427.45,320.43c-.36-.35-.82-.52-1.39-.52s-1.08.18-1.46.53c-.39.35-.61.82-.67,1.4h4.12c-.05-.59-.25-1.06-.61-1.4Z"/><path class="cls-1" d="M433.6,316.11h1.3l5.45,7.67v-7.67h1.27v9.65h-1.29l-5.47-7.68v7.68h-1.27v-9.65Z"/><path class="cls-1" d="M443.34,322.38c0-.67.15-1.28.46-1.81s.73-.95,1.27-1.27c.54-.31,1.14-.47,1.81-.47s1.28.16,1.81.47c.53.31.95.74,1.27,1.27.31.53.47,1.13.47,1.81s-.16,1.28-.47,1.82c-.31.54-.74.97-1.27,1.28-.53.31-1.13.47-1.81.47s-1.28-.16-1.81-.47-.96-.74-1.27-1.28-.46-1.15-.46-1.82ZM444.58,322.4c0,.48.1.91.3,1.29s.47.67.82.88c.35.21.74.32,1.19.32s.84-.11,1.18-.32c.34-.21.61-.51.82-.88.2-.38.3-.8.3-1.29s-.1-.91-.3-1.29c-.2-.38-.47-.67-.82-.88-.35-.21-.74-.32-1.19-.32s-.84.11-1.19.32c-.35.21-.62.51-.82.88s-.3.81-.3,1.29Z"/><path class="cls-1" d="M451.13,319.04h1.23v-2.2h1.21v2.2h2v1.01h-2v3.54c0,.45.08.78.24.99.16.21.41.31.76.31.21,0,.4-.04.57-.12.17-.08.34-.19.53-.35l.58.77c-.5.5-1.1.75-1.81.75s-1.19-.2-1.55-.6c-.36-.4-.53-.99-.53-1.76v-3.54h-1.23v-1.01Z"/><path class="cls-1" d="M457.21,316.43h1.36v1.39h-1.36v-1.39ZM457.28,319.04h1.21v6.71h-1.21v-6.71Z"/><path class="cls-1" d="M465.06,320.06h-3.01v5.7h-1.21v-5.7h-1.23v-1.01h1.23v-.49c0-.83.26-1.48.79-1.95.53-.47,1.26-.7,2.19-.7s1.75.25,2.44.74l-.55.91c-.54-.4-1.18-.59-1.91-.59-.6,0-1.04.13-1.32.4-.28.27-.43.68-.43,1.25v.43h4.22v6.71h-1.21v-5.7Z"/><path class="cls-1" d="M467.76,322.43c0-.69.16-1.31.47-1.85s.75-.96,1.29-1.27c.55-.31,1.17-.46,1.87-.46,1.03,0,1.88.38,2.56,1.13l-.79.77c-.21-.26-.47-.46-.79-.61-.31-.15-.65-.22-1.02-.22-.45,0-.86.11-1.21.33s-.63.51-.83.89c-.2.38-.3.81-.3,1.29s.1.91.3,1.28c.2.37.48.66.83.88.35.21.76.32,1.22.32.75,0,1.37-.28,1.87-.85l.75.8c-.67.75-1.54,1.13-2.63,1.13-.69,0-1.31-.15-1.85-.46s-.96-.72-1.27-1.25c-.31-.53-.46-1.14-.46-1.82Z"/><path class="cls-1" d="M474.89,323.79c0-.71.26-1.28.8-1.69.53-.41,1.29-.61,2.27-.61.22,0,.47.01.75.04.27.02.54.06.8.09v-.3c0-.95-.58-1.43-1.74-1.43-.77,0-1.43.21-1.98.64l-.58-.84c.73-.56,1.61-.84,2.62-.84.9,0,1.59.21,2.09.64.5.42.74,1.01.74,1.76v4.51h-1.08l-.04-.9c-.23.35-.55.62-.95.81-.41.19-.85.29-1.33.29-.7,0-1.27-.2-1.71-.59s-.65-.92-.65-1.58ZM476.08,323.77c0,.39.12.68.38.9.25.21.59.32,1.03.32.38,0,.72-.08,1.03-.23.31-.15.55-.36.73-.61.18-.25.27-.53.27-.82v-.78c-.25-.05-.5-.08-.75-.1-.25-.02-.48-.03-.68-.03-.65,0-1.14.12-1.48.35-.34.23-.51.57-.51,1.01Z"/><path class="cls-1" d="M482.11,322.43c0-.69.16-1.31.47-1.85.31-.54.75-.96,1.29-1.27.55-.31,1.17-.46,1.87-.46,1.03,0,1.88.38,2.56,1.13l-.79.77c-.21-.26-.48-.46-.79-.61-.31-.15-.65-.22-1.02-.22-.45,0-.86.11-1.21.33-.35.22-.63.51-.83.89-.2.38-.3.81-.3,1.29s.1.91.3,1.28c.2.37.48.66.83.88.35.21.76.32,1.22.32.75,0,1.37-.28,1.87-.85l.75.8c-.67.75-1.54,1.13-2.63,1.13-.69,0-1.31-.15-1.85-.46-.54-.3-.96-.72-1.27-1.25-.31-.53-.46-1.14-.46-1.82Z"/><path class="cls-1" d="M489.56,316.43h1.36v1.39h-1.36v-1.39ZM489.63,319.04h1.21v6.71h-1.21v-6.71Z"/><path class="cls-1" d="M492.34,322.38c0-.67.15-1.28.46-1.81s.73-.95,1.27-1.27c.54-.31,1.14-.47,1.82-.47s1.28.16,1.81.47c.53.31.95.74,1.27,1.27s.47,1.13.47,1.81-.16,1.28-.47,1.82-.74.97-1.27,1.28-1.13.47-1.81.47-1.28-.16-1.82-.47-.96-.74-1.27-1.28-.46-1.15-.46-1.82ZM493.58,322.4c0,.48.1.91.3,1.29.2.38.47.67.82.88.35.21.74.32,1.19.32s.84-.11,1.18-.32c.34-.21.62-.51.82-.88.2-.38.3-.8.3-1.29s-.1-.91-.3-1.29-.47-.67-.82-.88c-.35-.21-.74-.32-1.19-.32s-.84.11-1.19.32c-.35.21-.62.51-.82.88-.2.38-.3.81-.3,1.29ZM496.5,315.73h1.49l-1.58,2.21h-1.13l1.21-2.21Z"/><path class="cls-1" d="M500.91,319.04h1.14l.04,1.01c.24-.39.56-.68.97-.9.4-.21.87-.32,1.39-.32.8,0,1.42.25,1.87.75s.67,1.2.67,2.1v4.06h-1.21v-3.96c0-.62-.14-1.09-.42-1.41-.28-.32-.68-.48-1.2-.48-.62,0-1.11.22-1.47.65-.37.43-.55,1.02-.55,1.75v3.46h-1.21v-6.71Z"/><polyline class="cls-5" points="529.15 318.38 523.08 324.45 516.72 318.09"/><rect class="cls-18" x="386.45" y="269.33" width="59.38" height="9.1" rx="3.73" ry="3.73"/><rect class="cls-3" x="364.86" y="185.32" width="285.22" height="62.49" rx="4.68" ry="4.68"/><rect class="cls-4" x="364.86" y="255.73" width="285.22" height="36.3" rx="3.56" ry="3.56"/></svg>