<?xml version="1.0" encoding="UTF-8"?><svg id="Capa_2" xmlns="http://www.w3.org/2000/svg" xmlns:xlink="http://www.w3.org/1999/xlink" viewBox="0 0 943.4 336"><defs><style>.cls-1{font-size:23.8px;}.cls-1,.cls-2,.cls-3,.cls-4,.cls-5,.cls-6,.cls-7{font-family:EffraCC-Medium, 'Effra CC';font-weight:500;}.cls-8{filter:url(#drop-shadow-10);}.cls-8,.cls-9,.cls-10,.cls-11,.cls-12,.cls-13,.cls-14,.cls-15,.cls-16,.cls-17{fill:#fff;}.cls-2{font-size:20.64px;}.cls-18{fill:none;stroke:#0f235f;stroke-linecap:round;stroke-miterlimit:10;stroke-width:1.36px;}.cls-19{fill:#00a7e7;}.cls-3{font-size:28.25px;}.cls-4{font-size:12.32px;}.cls-20{letter-spacing:0em;}.cls-5{font-size:12.99px;}.cls-21{fill:#b5ecfd;}.cls-22{letter-spacing:0em;}.cls-23{letter-spacing:0em;}.cls-24{letter-spacing:0em;}.cls-9{filter:url(#drop-shadow-1);}.cls-10{filter:url(#drop-shadow-9);}.cls-11{filter:url(#drop-shadow-3);}.cls-12{filter:url(#drop-shadow-2);}.cls-13{filter:url(#drop-shadow-8);}.cls-14{filter:url(#drop-shadow-6);}.cls-15{filter:url(#drop-shadow-7);}.cls-16{filter:url(#drop-shadow-5);}.cls-17{filter:url(#drop-shadow-4);}.cls-25{fill:#03bef2;}.cls-26{fill:#74e1ff;}.cls-6{fill:#707070;}.cls-6,.cls-7{font-size:10.7px;}.cls-27{letter-spacing:-.09em;}.cls-28{letter-spacing:-.09em;}.cls-29{letter-spacing:-.02em;}.cls-30{letter-spacing:-.02em;}.cls-31{letter-spacing:-.02em;}.cls-32{letter-spacing:-.02em;}.cls-33{letter-spacing:-.02em;}.cls-34{letter-spacing:-.01em;}.cls-35{letter-spacing:-.01em;}.cls-36{letter-spacing:-.02em;}.cls-37{letter-spacing:-.01em;}.cls-38{letter-spacing:-.01em;}.cls-39{letter-spacing:-.03em;}.cls-40{letter-spacing:-.01em;}.cls-41{letter-spacing:-.01em;}</style><filter id="drop-shadow-1" x="590" y="2" width="182" height="123" filterUnits="userSpaceOnUse"><feOffset dx="9.52" dy="9.52"/><feGaussianBlur result="blur" stdDeviation="6.8"/><feFlood flood-color="#888" flood-opacity=".3"/><feComposite in2="blur" operator="in"/><feComposite in="SourceGraphic"/></filter><filter id="drop-shadow-2" x="736" y="2" width="182" height="123" filterUnits="userSpaceOnUse"><feOffset dx="9.52" dy="9.52"/><feGaussianBlur result="blur-2" stdDeviation="6.8"/><feFlood flood-color="#888" flood-opacity=".3"/><feComposite in2="blur-2" operator="in"/><feComposite in="SourceGraphic"/></filter><filter id="drop-shadow-3" x="590" y="88" width="182" height="124" filterUnits="userSpaceOnUse"><feOffset dx="9.52" dy="9.52"/><feGaussianBlur result="blur-3" stdDeviation="6.8"/><feFlood flood-color="#888" flood-opacity=".3"/><feComposite in2="blur-3" operator="in"/><feComposite in="SourceGraphic"/></filter><filter id="drop-shadow-4" x="736" y="88" width="182" height="124" filterUnits="userSpaceOnUse"><feOffset dx="9.52" dy="9.52"/><feGaussianBlur result="blur-4" stdDeviation="6.8"/><feFlood flood-color="#888" flood-opacity=".3"/><feComposite in2="blur-4" operator="in"/><feComposite in="SourceGraphic"/></filter><filter id="drop-shadow-5" x="590" y="174" width="182" height="124" filterUnits="userSpaceOnUse"><feOffset dx="9.52" dy="9.52"/><feGaussianBlur result="blur-5" stdDeviation="6.8"/><feFlood flood-color="#888" flood-opacity=".3"/><feComposite in2="blur-5" operator="in"/><feComposite in="SourceGraphic"/></filter><filter id="drop-shadow-6" x="736" y="174" width="182" height="124" filterUnits="userSpaceOnUse"><feOffset dx="9.52" dy="9.52"/><feGaussianBlur result="blur-6" stdDeviation="6.8"/><feFlood flood-color="#888" flood-opacity=".3"/><feComposite in2="blur-6" operator="in"/><feComposite in="SourceGraphic"/></filter><filter id="drop-shadow-7" x="590" y="260" width="182" height="75" filterUnits="userSpaceOnUse"><feOffset dx="9.52" dy="9.52"/><feGaussianBlur result="blur-7" stdDeviation="6.8"/><feFlood flood-color="#888" flood-opacity=".3"/><feComposite in2="blur-7" operator="in"/><feComposite in="SourceGraphic"/></filter><filter id="drop-shadow-8" x="736" y="260" width="182" height="75" filterUnits="userSpaceOnUse"><feOffset dx="9.52" dy="9.52"/><feGaussianBlur result="blur-8" stdDeviation="6.8"/><feFlood flood-color="#888" flood-opacity=".3"/><feComposite in2="blur-8" operator="in"/><feComposite in="SourceGraphic"/></filter><filter id="drop-shadow-9" x="0" y="2" width="312" height="334" filterUnits="userSpaceOnUse"><feOffset dx="9.52" dy="9.52"/><feGaussianBlur result="blur-9" stdDeviation="6.8"/><feFlood flood-color="#888" flood-opacity=".3"/><feComposite in2="blur-9" operator="in"/><feComposite in="SourceGraphic"/></filter><filter id="drop-shadow-10" x="292" y="0" width="317" height="334" filterUnits="userSpaceOnUse"><feOffset dx="9.52" dy="9.52"/><feGaussianBlur result="blur-10" stdDeviation="6.8"/><feFlood flood-color="#888" flood-opacity=".3"/><feComposite in2="blur-10" operator="in"/><feComposite in="SourceGraphic"/></filter></defs><g id="CONTROL-EXACTITUD-CUMPLIMIENTO"><rect class="cls-9" x="601.02" y="13.05" width="140.51" height="81.75" rx="5.18" ry="5.18"/><rect class="cls-12" x="747.11" y="13.05" width="140.51" height="81.75" rx="5.18" ry="5.18"/><rect class="cls-11" x="601.02" y="99.27" width="140.51" height="81.75" rx="5.18" ry="5.18"/><rect class="cls-17" x="747.11" y="99.27" width="140.51" height="81.75" rx="5.18" ry="5.18"/><rect class="cls-16" x="601.02" y="185.19" width="140.51" height="81.75" rx="5.18" ry="5.18"/><rect class="cls-14" x="747.11" y="185.19" width="140.51" height="81.75" rx="5.18" ry="5.18"/><path class="cls-15" d="M605.9,271.7h130.75c2.69,0,4.88,2.19,4.88,4.88v27.5h-140.51v-27.5c0-2.69,2.19-4.88,4.88-4.88Z"/><path class="cls-13" d="M752.75,271.7h129.22c3.12,0,5.64,2.53,5.64,5.64v26.73h-140.51v-26.73c0-3.12,2.53-5.64,5.64-5.64Z"/><rect class="cls-26" x="616.91" y="119.07" width="55.68" height="7.48" rx="3.74" ry="3.74"/><rect class="cls-26" x="763" y="119.07" width="55.68" height="7.48" rx="3.74" ry="3.74"/><text class="cls-4" transform="translate(615.53 40.13)"><tspan x="0" y="0">Núme</tspan><tspan class="cls-32" x="32.59" y="0">r</tspan><tspan x="36.97" y="0">o de O</tspan><tspan class="cls-35" x="71.47" y="0">r</tspan><tspan class="cls-20" x="75.84" y="0">denes</tspan></text><text class="cls-1" transform="translate(617.81 70.82)"><tspan x="0" y="0">130</tspan></text><text class="cls-4" transform="translate(762 40.13)"><tspan class="cls-28" x="0" y="0">T</tspan><tspan class="cls-40" x="6.56" y="0">o</tspan><tspan x="13.47" y="0">tal</tspan></text><text class="cls-1" transform="translate(764.28 70.82)"><tspan x="0" y="0">$7.8k</tspan></text><text class="cls-1" transform="translate(617.81 156.14)"><tspan x="0" y="0">17</tspan></text><text class="cls-1" transform="translate(764.28 156.14)"><tspan x="0" y="0">$11.5k</tspan></text><rect class="cls-26" x="616.91" y="204.69" width="55.68" height="7.48" rx="3.74" ry="3.74"/><rect class="cls-26" x="763" y="204.69" width="55.68" height="7.48" rx="3.74" ry="3.74"/><rect class="cls-26" x="616.91" y="290.31" width="55.68" height="7.48" rx="3.74" ry="3.74"/><rect class="cls-26" x="763" y="290.31" width="55.68" height="7.48" rx="3.74" ry="3.74"/><text class="cls-1" transform="translate(617.81 241.76)"><tspan x="0" y="0">30</tspan></text><text class="cls-1" transform="translate(764.28 241.76)"><tspan x="0" y="0">$15.2k</tspan></text><path class="cls-10" d="M23.39,13.57h245.87c6.62,0,12,5.38,12,12v279.58H11.39V25.57c0-6.62,5.38-12,12-12Z"/><rect class="cls-26" x="910.79" y="54.41" width="32.61" height="32.63" rx="6.09" ry="6.09"/><text class="cls-3" transform="translate(919.39 80.99)"><tspan x="0" y="0">+</tspan></text><path class="cls-8" d="M315.52,11.63h251.1c6.69,0,12.12,5.43,12.12,12.12v279.46h-275.34V23.75c0-6.69,5.43-12.12,12.12-12.12Z"/><polygon class="cls-26" points="398.6 212.66 481.19 212.66 503.44 145.3 376.64 145.3 398.6 212.66"/><path class="cls-21" d="M404.06,229.42c.1.3.15.61.15.93v53.97c0,1.66,1.34,3,3,3h65.25c1.66,0,3-1.34,3-3v-53.81c0-.32.05-.64.15-.94l3.61-10.92h-78.67l3.51,10.77Z"/><path class="cls-25" d="M523.77,71.21h-167.15c-2.04,0-3.48,1.99-2.85,3.93l20.92,64.18h130.73l21.2-64.17c.64-1.94-.8-3.94-2.85-3.94Z"/><text class="cls-2" transform="translate(319.56 47.22)"><tspan x="0" y="0">P</tspan><tspan class="cls-31" x="11.89" y="0">r</tspan><tspan x="19.21" y="0">og</tspan><tspan class="cls-33" x="42.45" y="0">r</tspan><tspan x="49.77" y="0">eso</tspan></text><text class="cls-7" transform="translate(420.28 92.02)"><tspan x="0" y="0">$10,500</tspan></text><text class="cls-7" transform="translate(420.28 167.01)"><tspan x="0" y="0">$15,700</tspan></text><text class="cls-7" transform="translate(420.28 238.85)"><tspan x="0" y="0">$34,300</tspan></text><polyline class="cls-18" points="206.63 128.31 222.57 128.31 222.57 109.72"/><polyline class="cls-18" points="86.55 128.31 70.61 128.31 70.61 109.72"/><polyline class="cls-18" points="201.76 222.5 222.57 222.5 222.57 241.1"/><polyline class="cls-18" points="91.22 222.5 70.41 222.5 70.41 241.1"/><path class="cls-26" d="M221.87,173.14h-43.84c0,17.63-14.29,31.92-31.92,31.92v43.84c41.84,0,75.76-33.92,75.76-75.76Z"/><path class="cls-21" d="M146.11,205.05c-17.63,0-31.92-14.29-31.92-31.92h-43.84c0,41.84,33.92,75.76,75.76,75.76h0v-43.84h0Z"/><path class="cls-19" d="M114.2,173.14c0-17.63,14.29-31.92,31.92-31.92h0v-43.84h0c-41.84,0-75.76,33.92-75.76,75.76h0s43.84,0,43.84,0h0Z"/><path class="cls-25" d="M178.03,173.14h0s43.84,0,43.84,0h0c0-41.84-33.92-75.76-75.76-75.76v43.84c17.63,0,31.92,14.29,31.92,31.92Z"/><text class="cls-6" transform="translate(173.59 79.1)"><tspan class="cls-39" x="0" y="0">R</tspan><tspan class="cls-41" x="6.08" y="0">e</tspan><tspan class="cls-24" x="11.73" y="0">t</tspan><tspan class="cls-38" x="15.88" y="0">r</tspan><tspan x="19.7" y="0">aso en Desar</tspan><tspan class="cls-34" x="79.49" y="0">r</tspan><tspan x="83.29" y="0">ollo</tspan></text><text class="cls-5" transform="translate(211.17 95.29)"><tspan x="0" y="0">25%</tspan></text><text class="cls-6" transform="translate(29.26 79.1)"><tspan x="0" y="0">Er</tspan><tspan class="cls-30" x="10.04" y="0">r</tspan><tspan x="13.84" y="0">o</tspan><tspan class="cls-34" x="19.95" y="0">r</tspan><tspan x="23.75" y="0">es en </tspan><tspan class="cls-27" x="50.02" y="0">T</tspan><tspan x="55.71" y="0">esting</tspan></text><text class="cls-5" transform="translate(59.15 95.29)"><tspan x="0" y="0">25%</tspan></text><text class="cls-6" transform="translate(179.35 258.95)"><tspan x="0" y="0">Er</tspan><tspan class="cls-30" x="10.04" y="0">r</tspan><tspan x="13.84" y="0">or en Sis</tspan><tspan class="cls-36" x="53.04" y="0">t</tspan><tspan x="56.98" y="0">ema</tspan></text><text class="cls-5" transform="translate(205.41 275.13)"><tspan x="0" y="0">25%</tspan></text><text class="cls-6" transform="translate(35.39 258.95)"><tspan x="0" y="0">Er</tspan><tspan class="cls-30" x="10.04" y="0">r</tspan><tspan x="13.84" y="0">or Ope</tspan><tspan class="cls-37" x="45.87" y="0">r</tspan><tspan class="cls-22" x="49.68" y="0">ati</tspan><tspan class="cls-29" x="61.59" y="0">v</tspan><tspan x="66.79" y="0">o</tspan></text><text class="cls-5" transform="translate(59.29 275.13)"><tspan x="0" y="0">25%</tspan></text><text class="cls-2" transform="translate(26.23 46.35)"><tspan x="0" y="0">Tipo de Er</tspan><tspan class="cls-33" x="89.89" y="0">r</tspan><tspan class="cls-23" x="97.22" y="0">o</tspan><tspan class="cls-33" x="109" y="0">r</tspan><tspan class="cls-23" x="116.33" y="0">es</tspan></text></g></svg>