<?xml version="1.0" encoding="UTF-8"?><svg id="CONTROL-EXACTITUD-CUMPLIMIENTO" xmlns="http://www.w3.org/2000/svg" xmlns:xlink="http://www.w3.org/1999/xlink" viewBox="0 0 1000 378"><defs><style>.cls-1{filter:url(#drop-shadow-10);}.cls-1,.cls-2,.cls-3,.cls-4,.cls-5,.cls-6,.cls-7,.cls-8,.cls-9,.cls-10{fill:#fff;}.cls-11{fill:#707070;}.cls-12{fill:none;stroke:#0f235f;stroke-linecap:round;stroke-miterlimit:10;stroke-width:1.36px;}.cls-13{fill:#00a7e7;}.cls-14{fill:#b5ecfd;}.cls-2{filter:url(#drop-shadow-1);}.cls-3{filter:url(#drop-shadow-9);}.cls-4{filter:url(#drop-shadow-3);}.cls-5{filter:url(#drop-shadow-2);}.cls-6{filter:url(#drop-shadow-8);}.cls-7{filter:url(#drop-shadow-6);}.cls-8{filter:url(#drop-shadow-7);}.cls-9{filter:url(#drop-shadow-5);}.cls-10{filter:url(#drop-shadow-4);}.cls-15{fill:#03bef2;}.cls-16{fill:#74e1ff;}</style><filter id="drop-shadow-1" x="612.61" y="32.61" width="182" height="123" filterUnits="userSpaceOnUse"><feOffset dx="9.52" dy="9.52"/><feGaussianBlur result="blur" stdDeviation="6.8"/><feFlood flood-color="#888" flood-opacity=".3"/><feComposite in2="blur" operator="in"/><feComposite in="SourceGraphic"/></filter><filter id="drop-shadow-2" x="758.61" y="32.61" width="182" height="123" filterUnits="userSpaceOnUse"><feOffset dx="9.52" dy="9.52"/><feGaussianBlur result="blur-2" stdDeviation="6.8"/><feFlood flood-color="#888" flood-opacity=".3"/><feComposite in2="blur-2" operator="in"/><feComposite in="SourceGraphic"/></filter><filter id="drop-shadow-3" x="612.61" y="118.61" width="182" height="124" filterUnits="userSpaceOnUse"><feOffset dx="9.52" dy="9.52"/><feGaussianBlur result="blur-3" stdDeviation="6.8"/><feFlood flood-color="#888" flood-opacity=".3"/><feComposite in2="blur-3" operator="in"/><feComposite in="SourceGraphic"/></filter><filter id="drop-shadow-4" x="758.61" y="118.61" width="182" height="124" filterUnits="userSpaceOnUse"><feOffset dx="9.52" dy="9.52"/><feGaussianBlur result="blur-4" stdDeviation="6.8"/><feFlood flood-color="#888" flood-opacity=".3"/><feComposite in2="blur-4" operator="in"/><feComposite in="SourceGraphic"/></filter><filter id="drop-shadow-5" x="612.61" y="204.61" width="182" height="124" filterUnits="userSpaceOnUse"><feOffset dx="9.52" dy="9.52"/><feGaussianBlur result="blur-5" stdDeviation="6.8"/><feFlood flood-color="#888" flood-opacity=".3"/><feComposite in2="blur-5" operator="in"/><feComposite in="SourceGraphic"/></filter><filter id="drop-shadow-6" x="758.61" y="204.61" width="182" height="124" filterUnits="userSpaceOnUse"><feOffset dx="9.52" dy="9.52"/><feGaussianBlur result="blur-6" stdDeviation="6.8"/><feFlood flood-color="#888" flood-opacity=".3"/><feComposite in2="blur-6" operator="in"/><feComposite in="SourceGraphic"/></filter><filter id="drop-shadow-7" x="612.61" y="290.61" width="182" height="75" filterUnits="userSpaceOnUse"><feOffset dx="9.52" dy="9.52"/><feGaussianBlur result="blur-7" stdDeviation="6.8"/><feFlood flood-color="#888" flood-opacity=".3"/><feComposite in2="blur-7" operator="in"/><feComposite in="SourceGraphic"/></filter><filter id="drop-shadow-8" x="758.61" y="290.61" width="182" height="75" filterUnits="userSpaceOnUse"><feOffset dx="9.52" dy="9.52"/><feGaussianBlur result="blur-8" stdDeviation="6.8"/><feFlood flood-color="#888" flood-opacity=".3"/><feComposite in2="blur-8" operator="in"/><feComposite in="SourceGraphic"/></filter><filter id="drop-shadow-9" x="22.61" y="32.61" width="312" height="334" filterUnits="userSpaceOnUse"><feOffset dx="9.52" dy="9.52"/><feGaussianBlur result="blur-9" stdDeviation="6.8"/><feFlood flood-color="#888" flood-opacity=".3"/><feComposite in2="blur-9" operator="in"/><feComposite in="SourceGraphic"/></filter><filter id="drop-shadow-10" x="314.61" y="30.61" width="317" height="334" filterUnits="userSpaceOnUse"><feOffset dx="9.52" dy="9.52"/><feGaussianBlur result="blur-10" stdDeviation="6.8"/><feFlood flood-color="#888" flood-opacity=".3"/><feComposite in2="blur-10" operator="in"/><feComposite in="SourceGraphic"/></filter></defs><rect class="cls-2" x="623.62" y="43.66" width="140.51" height="81.75" rx="5.18" ry="5.18"/><rect class="cls-5" x="769.71" y="43.66" width="140.51" height="81.75" rx="5.18" ry="5.18"/><rect class="cls-4" x="623.62" y="129.87" width="140.51" height="81.75" rx="5.18" ry="5.18"/><rect class="cls-10" x="769.71" y="129.87" width="140.51" height="81.75" rx="5.18" ry="5.18"/><rect class="cls-9" x="623.62" y="215.79" width="140.51" height="81.75" rx="5.18" ry="5.18"/><rect class="cls-7" x="769.71" y="215.79" width="140.51" height="81.75" rx="5.18" ry="5.18"/><path class="cls-8" d="M628.5,302.31h130.75c2.69,0,4.88,2.19,4.88,4.88v27.5h-140.51v-27.5c0-2.69,2.19-4.88,4.88-4.88Z"/><path class="cls-6" d="M775.36,302.31h129.22c3.12,0,5.64,2.53,5.64,5.64v26.73h-140.51v-26.73c0-3.12,2.53-5.64,5.64-5.64Z"/><rect class="cls-16" x="639.52" y="149.68" width="55.68" height="7.48" rx="3.74" ry="3.74"/><rect class="cls-16" x="785.61" y="149.68" width="55.68" height="7.48" rx="3.74" ry="3.74"/><path d="M639.05,62.52h1.28l4.36,6.16v-6.16h1.29v8.22h-1.27l-4.37-6.19v6.19h-1.29v-8.22Z"/><path d="M647.6,68.49v-3.49h1.25v3.31c0,.48.1.86.31,1.12.21.26.51.39.89.39.48,0,.86-.18,1.14-.54.28-.36.43-.83.43-1.42v-2.86h1.24v5.73h-1.15l-.05-.88c-.2.33-.47.59-.81.77-.34.19-.73.28-1.15.28-.66,0-1.17-.21-1.55-.63-.37-.42-.56-1.02-.56-1.78ZM650.67,62.16h1.47l-1.38,1.92h-1.11l1.02-1.92Z"/><path d="M654.34,65h1.16l.05.85c.17-.33.42-.58.75-.76.33-.18.71-.27,1.13-.27.89,0,1.48.38,1.77,1.13.19-.36.46-.64.81-.84.35-.2.76-.3,1.23-.3.68,0,1.21.21,1.59.63.38.42.57,1.02.57,1.79v3.49h-1.24v-3.34c0-.48-.1-.85-.3-1.1-.2-.25-.49-.38-.87-.38-.45,0-.81.17-1.08.5-.27.34-.4.79-.4,1.36v2.96h-1.24v-3.34c0-.99-.4-1.48-1.2-1.48-.45,0-.81.17-1.08.5-.27.34-.4.79-.4,1.36v2.96h-1.24v-5.73Z"/><path d="M664.59,67.88c0-.59.12-1.12.37-1.58.25-.46.59-.82,1.02-1.08.43-.26.93-.39,1.49-.39s1.06.13,1.48.4.75.64.99,1.12c.24.48.36,1.04.36,1.67v.23h-4.46c.05.5.24.9.57,1.18s.77.43,1.32.43c.67,0,1.26-.23,1.79-.69l.62.78c-.3.3-.66.54-1.1.71s-.9.25-1.38.25c-.61,0-1.14-.13-1.6-.38s-.82-.61-1.08-1.07-.39-.98-.39-1.58ZM668.58,66.29c-.28-.26-.63-.39-1.08-.39s-.84.13-1.13.4c-.3.27-.47.63-.53,1.08h3.23c-.05-.46-.21-.82-.49-1.08Z"/><path d="M671.47,65h1.16l.06.94c.2-.33.45-.58.77-.76s.67-.27,1.05-.27c.21,0,.43.03.64.1l-.23,1.13c-.17-.06-.35-.09-.54-.09-.48,0-.87.16-1.19.47-.32.31-.47.72-.47,1.23v2.98h-1.24v-5.73Z"/><path d="M675.56,67.85c0-.58.13-1.09.4-1.55.27-.46.63-.82,1.09-1.08.46-.27.98-.4,1.56-.4s1.11.13,1.57.4.83.63,1.1,1.08c.27.46.4.97.4,1.55s-.13,1.11-.4,1.57c-.27.46-.63.83-1.1,1.09s-.99.39-1.57.39-1.1-.13-1.56-.39c-.46-.26-.82-.63-1.09-1.09-.27-.46-.4-.99-.4-1.57ZM676.83,67.86c0,.58.17,1.05.5,1.41.33.37.76.55,1.29.55.34,0,.65-.08.92-.25.27-.17.49-.4.64-.7.16-.3.23-.63.23-1.01s-.08-.73-.23-1.02c-.15-.29-.36-.52-.63-.69s-.58-.25-.92-.25c-.53,0-.96.18-1.29.55-.34.37-.5.84-.5,1.41Z"/><path d="M684.79,68.02c0-.62.13-1.18.39-1.66s.61-.86,1.06-1.13c.45-.27.96-.41,1.52-.41.5,0,.98.13,1.43.38v-2.69h1.25v8.22h-1.16l-.05-.73c-.19.29-.44.51-.76.67-.32.16-.68.23-1.08.23-.52,0-.97-.12-1.36-.36-.39-.24-.69-.58-.91-1.01-.22-.43-.33-.93-.33-1.51ZM686.06,67.94c0,.58.14,1.03.43,1.37.29.34.67.51,1.15.51s.83-.15,1.12-.46c.29-.3.43-.69.43-1.17v-1.89c-.4-.27-.83-.41-1.29-.41-.56,0-1,.18-1.34.55-.33.37-.5.86-.5,1.48Z"/><path d="M691.66,67.88c0-.59.12-1.12.37-1.58.25-.46.59-.82,1.02-1.08.43-.26.93-.39,1.49-.39s1.06.13,1.48.4.75.64.99,1.12c.24.48.36,1.04.36,1.67v.23h-4.46c.05.5.24.9.57,1.18s.77.43,1.32.43c.67,0,1.26-.23,1.79-.69l.62.78c-.3.3-.66.54-1.1.71s-.9.25-1.38.25c-.61,0-1.14-.13-1.6-.38s-.82-.61-1.08-1.07-.39-.98-.39-1.58ZM695.65,66.29c-.28-.26-.63-.39-1.08-.39s-.84.13-1.13.4c-.3.27-.47.63-.53,1.08h3.23c-.05-.46-.21-.82-.49-1.08Z"/><path d="M700.57,66.62c0-.61.11-1.17.32-1.69.21-.52.51-.98.89-1.37s.83-.69,1.34-.91,1.07-.33,1.66-.33,1.16.11,1.67.33.96.52,1.35.92c.39.39.69.85.9,1.37.21.52.32,1.09.32,1.69s-.11,1.16-.32,1.68c-.21.52-.51.98-.89,1.37-.38.39-.83.7-1.34.92-.51.22-1.07.33-1.67.33s-1.16-.11-1.67-.33-.96-.52-1.34-.92c-.38-.39-.68-.85-.89-1.37-.21-.52-.32-1.09-.32-1.69ZM701.96,66.62c0,.6.12,1.13.37,1.6.25.47.58.84,1.01,1.11s.91.41,1.45.41,1.04-.14,1.46-.41.76-.64,1-1.11c.25-.47.37-1,.37-1.59s-.12-1.13-.37-1.6c-.25-.47-.58-.84-1-1.11-.42-.27-.91-.41-1.46-.41s-1.03.14-1.45.41c-.43.27-.76.64-1.01,1.1-.25.46-.37,1-.37,1.6Z"/><path d="M710.34,65h1.16l.06.94c.2-.33.45-.58.77-.76s.67-.27,1.05-.27c.21,0,.43.03.64.1l-.23,1.13c-.17-.06-.35-.09-.54-.09-.48,0-.87.16-1.19.47-.32.31-.47.72-.47,1.23v2.98h-1.24v-5.73Z"/><path d="M714.44,68.02c0-.62.13-1.18.39-1.66s.61-.86,1.06-1.13c.45-.27.96-.41,1.52-.41.5,0,.98.13,1.43.38v-2.69h1.25v8.22h-1.16l-.05-.73c-.19.29-.44.51-.76.67-.32.16-.68.23-1.08.23-.52,0-.97-.12-1.36-.36-.39-.24-.69-.58-.91-1.01-.22-.43-.33-.93-.33-1.51ZM715.7,67.94c0,.58.14,1.03.43,1.37.29.34.67.51,1.15.51s.83-.15,1.12-.46c.29-.3.43-.69.43-1.17v-1.89c-.4-.27-.83-.41-1.29-.41-.56,0-1,.18-1.34.55-.33.37-.5.86-.5,1.48Z"/><path d="M721.31,67.88c0-.59.12-1.12.37-1.58.25-.46.59-.82,1.02-1.08.43-.26.93-.39,1.49-.39s1.06.13,1.48.4.75.64.99,1.12c.24.48.36,1.04.36,1.67v.23h-4.46c.05.5.24.9.57,1.18s.77.43,1.32.43c.67,0,1.26-.23,1.79-.69l.62.78c-.3.3-.66.54-1.1.71s-.9.25-1.38.25c-.61,0-1.14-.13-1.6-.38s-.82-.61-1.08-1.07-.39-.98-.39-1.58ZM725.3,66.29c-.28-.26-.63-.39-1.08-.39s-.84.13-1.13.4c-.3.27-.47.63-.53,1.08h3.23c-.05-.46-.21-.82-.49-1.08Z"/><path d="M728.19,65h1.16l.05.84c.2-.32.47-.57.81-.75s.73-.27,1.17-.27c.68,0,1.21.21,1.58.63.37.42.56,1.01.56,1.77v3.51h-1.24v-3.34c0-.48-.11-.85-.33-1.1-.22-.25-.53-.38-.94-.38-.48,0-.86.17-1.14.5-.28.34-.43.79-.43,1.36v2.96h-1.24v-5.73Z"/><path d="M734.7,67.88c0-.59.12-1.12.37-1.58.25-.46.59-.82,1.02-1.08.43-.26.93-.39,1.49-.39s1.06.13,1.48.4.75.64.99,1.12c.24.48.36,1.04.36,1.67v.23h-4.46c.05.5.24.9.57,1.18s.77.43,1.32.43c.67,0,1.26-.23,1.79-.69l.62.78c-.3.3-.66.54-1.1.71s-.9.25-1.38.25c-.61,0-1.14-.13-1.6-.38s-.82-.61-1.08-1.07-.39-.98-.39-1.58ZM738.69,66.29c-.28-.26-.63-.39-1.08-.39s-.84.13-1.13.4c-.3.27-.47.63-.53,1.08h3.23c-.05-.46-.21-.82-.49-1.08Z"/><path d="M744.93,69.17c0-.21-.09-.38-.28-.51-.18-.12-.51-.23-.97-.32l-.41-.07c-.59-.12-1.03-.32-1.32-.6-.29-.29-.44-.64-.44-1.06,0-.54.21-.98.64-1.3.43-.32,1-.49,1.73-.49.84,0,1.54.24,2.12.73l-.58.84c-.47-.38-1-.57-1.6-.57-.73,0-1.1.23-1.1.69,0,.21.08.36.25.47.17.11.46.21.88.29l.42.09c.66.13,1.14.34,1.44.62.3.28.45.64.45,1.08,0,.59-.22,1.05-.67,1.37-.44.32-1.04.48-1.8.48-.5,0-.96-.08-1.39-.23-.43-.15-.78-.36-1.06-.63l.67-.83c.24.22.51.39.81.51.3.12.64.18,1,.18.39,0,.68-.06.89-.19.21-.13.31-.31.31-.55Z"/><path d="M642.84,99.3h3.33v-10.28l-3,1.64-.98-1.9,4.29-2.33h2.07v12.88h3.07v2.12h-8.78v-2.12Z"/><path d="M662.41,96.88c0-.81-.25-1.46-.75-1.94s-1.17-.73-2.01-.73c-.49,0-1.02.09-1.57.26l-.74-1.26,4.24-4.69h-6v-2.09h8.81v1.9l-3.78,4.21h.09c1.25,0,2.27.4,3.05,1.19s1.17,1.85,1.17,3.17c0,.98-.23,1.84-.7,2.58-.47.74-1.13,1.31-1.99,1.71-.86.41-1.86.61-3,.61-1.84,0-3.43-.58-4.76-1.74l1.36-1.79c1.02.87,2.17,1.31,3.48,1.31.95,0,1.71-.24,2.27-.73.56-.48.84-1.15.84-1.99Z"/><path d="M667.07,93.92c0-2.48.51-4.41,1.52-5.8,1.02-1.39,2.43-2.08,4.24-2.08s3.25.7,4.26,2.09,1.52,3.33,1.52,5.78-.51,4.39-1.52,5.78c-1.02,1.4-2.44,2.09-4.26,2.09s-3.22-.69-4.24-2.08c-1.02-1.39-1.52-3.32-1.52-5.8ZM669.57,93.92c0,1.79.29,3.18.86,4.17s1.37,1.48,2.4,1.48,1.86-.49,2.43-1.48.86-2.37.86-4.17-.29-3.18-.86-4.17c-.57-.98-1.38-1.48-2.43-1.48s-1.83.49-2.4,1.48c-.57.98-.86,2.37-.86,4.17Z"/><path d="M787.77,63.69h-2.87v-1.17h7.06v1.17h-2.87v7.05h-1.32v-7.05Z"/><path d="M791.62,67.85c0-.58.13-1.09.4-1.55.27-.46.63-.82,1.09-1.08.46-.27.98-.4,1.56-.4s1.11.13,1.57.4.83.63,1.1,1.08c.27.46.4.97.4,1.55s-.13,1.11-.4,1.57c-.27.46-.63.83-1.1,1.09s-.99.39-1.57.39-1.1-.13-1.56-.39c-.46-.26-.82-.63-1.09-1.09-.27-.46-.4-.99-.4-1.57ZM792.89,67.86c0,.58.17,1.05.5,1.41.33.37.76.55,1.29.55.34,0,.65-.08.92-.25.27-.17.49-.4.64-.7.16-.3.23-.63.23-1.01s-.08-.73-.23-1.02c-.15-.29-.36-.52-.63-.69s-.58-.25-.92-.25c-.53,0-.96.18-1.29.55-.34.37-.5.84-.5,1.41Z"/><path d="M798.3,65h1.01v-1.89h1.24v1.89h1.65v1.01h-1.65v2.81c0,.36.07.62.2.79.13.16.34.25.62.25.31,0,.6-.12.88-.36l.53.79c-.44.41-.96.62-1.59.62s-1.07-.17-1.39-.52-.48-.86-.48-1.53v-2.83h-1.01v-1.01Z"/><path d="M803.27,69.07c0-.62.23-1.1.68-1.45.46-.35,1.11-.53,1.95-.53.39,0,.8.03,1.23.1v-.21c0-.76-.47-1.13-1.4-1.13-.65,0-1.2.18-1.66.53l-.54-.84c.65-.48,1.42-.71,2.3-.71.8,0,1.41.19,1.85.56.44.37.65.89.65,1.56v3.8h-1.1l-.05-.74c-.19.29-.45.51-.78.67-.33.16-.71.24-1.14.24-.6,0-1.08-.17-1.45-.5-.37-.33-.55-.78-.55-1.34ZM804.48,69.01c0,.3.1.54.29.7.19.16.46.25.81.25.29,0,.56-.06.79-.17.23-.12.42-.27.56-.47.14-.2.21-.41.21-.64v-.64c-.41-.07-.78-.1-1.1-.1-.5,0-.89.09-1.16.27s-.41.45-.41.8Z"/><path d="M809.79,62.52h1.24v8.22h-1.24v-8.22Z"/><path d="M792.88,101.64c-1.05-.06-2.02-.31-2.92-.75-.9-.44-1.66-1.03-2.27-1.77l1.52-1.64c1.06,1.17,2.29,1.85,3.67,2.02v-4.9c-1.51-.36-2.63-.9-3.36-1.61-.73-.71-1.1-1.6-1.1-2.68,0-1.17.4-2.13,1.2-2.86.8-.73,1.88-1.14,3.25-1.24v-2.14h1.62v2.17c1.7.21,3.03.88,4,2.02l-1.55,1.57c-.59-.76-1.41-1.24-2.45-1.43v4.38c1.52.4,2.65.96,3.37,1.68.72.72,1.08,1.62,1.08,2.7,0,1.19-.4,2.18-1.21,2.98s-1.89,1.28-3.24,1.45v2.19h-1.62v-2.14ZM792.88,88.33c-.67.08-1.18.28-1.55.61-.37.32-.55.76-.55,1.3,0,.48.16.88.48,1.2.32.33.86.62,1.62.87v-3.97ZM796.57,97.26c0-.52-.16-.96-.46-1.3s-.84-.65-1.61-.92v4.43c1.38-.22,2.07-.96,2.07-2.21Z"/><path d="M801.4,86.43h10.35v2.09c-.51.81-1.05,1.77-1.63,2.89-.58,1.12-1.14,2.29-1.68,3.5-.54,1.21-1.03,2.39-1.48,3.52-.44,1.13-.79,2.13-1.05,2.99h-2.55c.35-1.06.76-2.18,1.23-3.36.47-1.17.97-2.34,1.51-3.51.54-1.17,1.09-2.27,1.64-3.31s1.09-1.95,1.6-2.73h-7.95v-2.09Z"/><path d="M814.47,98.57h2.93v2.86h-2.93v-2.86Z"/><path d="M819.97,97.42c0-.92.28-1.74.83-2.46.56-.72,1.34-1.28,2.36-1.68-.76-.37-1.35-.85-1.76-1.44-.41-.59-.62-1.26-.62-2.01,0-1.13.44-2.04,1.32-2.74.88-.7,2.04-1.05,3.46-1.05s2.54.33,3.39,1c.85.67,1.27,1.56,1.27,2.69,0,.76-.21,1.45-.64,2.07-.43.62-1.03,1.1-1.81,1.45,1.05.41,1.85.97,2.42,1.67s.84,1.52.84,2.45c0,.87-.23,1.64-.7,2.3-.47.66-1.12,1.18-1.95,1.56-.83.38-1.8.57-2.89.57s-2.04-.19-2.87-.56c-.83-.37-1.48-.89-1.95-1.55s-.7-1.42-.7-2.27ZM822.42,97.3c0,.73.29,1.33.86,1.81.57.48,1.31.71,2.21.71s1.66-.24,2.21-.73c.55-.48.83-1.12.83-1.89,0-.62-.23-1.15-.68-1.6-.45-.44-1.23-.9-2.34-1.36-.97.25-1.73.65-2.27,1.18-.55.53-.82,1.15-.82,1.87ZM823.09,89.88c0,1.1.78,1.96,2.33,2.59.79-.24,1.41-.58,1.86-1.04.44-.45.67-.96.67-1.54,0-.6-.23-1.09-.68-1.45s-1.04-.55-1.75-.55-1.32.18-1.76.54c-.45.36-.67.84-.67,1.44Z"/><path d="M835.82,101.42h-2.4v-15.88h2.4v9.26l4.52-4.45h2.78l-4.21,4.09,4.81,6.97h-2.81l-3.62-5.43-1.48,1.43v4Z"/><path d="M642.84,184.62h3.33v-10.28l-3,1.64-.98-1.9,4.29-2.33h2.07v12.88h3.07v2.12h-8.78v-2.12Z"/><path d="M654.93,171.75h10.35v2.09c-.51.81-1.05,1.77-1.63,2.89-.58,1.12-1.14,2.29-1.68,3.5-.54,1.21-1.03,2.39-1.48,3.52-.44,1.13-.79,2.13-1.05,2.99h-2.55c.35-1.06.76-2.18,1.23-3.36.47-1.17.97-2.34,1.51-3.51.54-1.17,1.09-2.27,1.64-3.31.56-1.04,1.09-1.95,1.6-2.73h-7.95v-2.09Z"/><path d="M792.88,186.96c-1.05-.06-2.02-.31-2.92-.75-.9-.44-1.66-1.03-2.27-1.77l1.52-1.64c1.06,1.17,2.29,1.85,3.67,2.02v-4.9c-1.51-.37-2.63-.9-3.36-1.61-.73-.71-1.1-1.6-1.1-2.68,0-1.17.4-2.13,1.2-2.86.8-.73,1.88-1.14,3.25-1.24v-2.14h1.62v2.17c1.7.21,3.03.88,4,2.02l-1.55,1.57c-.59-.76-1.41-1.24-2.45-1.43v4.38c1.52.4,2.65.96,3.37,1.68.72.72,1.08,1.62,1.08,2.7,0,1.19-.4,2.18-1.21,2.98-.81.79-1.89,1.28-3.24,1.45v2.19h-1.62v-2.14ZM792.88,173.65c-.67.08-1.18.28-1.55.61s-.55.76-.55,1.3c0,.48.16.88.48,1.2.32.33.86.62,1.62.87v-3.97ZM796.57,182.58c0-.52-.16-.96-.46-1.3-.31-.34-.84-.65-1.61-.92v4.43c1.38-.22,2.07-.96,2.07-2.21Z"/><path d="M802.28,184.62h3.33v-10.28l-3,1.64-.98-1.9,4.29-2.33h2.07v12.88h3.07v2.12h-8.78v-2.12Z"/><path d="M815.25,184.62h3.33v-10.28l-3,1.64-.98-1.9,4.29-2.33h2.07v12.88h3.07v2.12h-8.78v-2.12Z"/><path d="M827.44,183.88h2.93v2.86h-2.93v-2.86Z"/><path d="M840.87,182.03c0-.89-.29-1.58-.86-2.08s-1.36-.75-2.36-.75c-.84,0-1.64.21-2.4.62l-1.14-.88,1.33-7.19h7.52v2.09h-5.76l-.76,3.79c.57-.24,1.24-.36,2-.36,1.51,0,2.7.42,3.57,1.27.87.85,1.31,2,1.31,3.46,0,1.56-.51,2.8-1.52,3.73-1.02.93-2.39,1.39-4.12,1.39-1.84,0-3.41-.58-4.71-1.74l1.31-1.76c1.08.87,2.19,1.31,3.33,1.31,1,0,1.79-.27,2.38-.8.59-.53.88-1.23.88-2.11Z"/><path d="M848.79,186.74h-2.4v-15.88h2.4v9.26l4.52-4.45h2.78l-4.21,4.09,4.81,6.97h-2.81l-3.62-5.43-1.48,1.43v4Z"/><rect class="cls-16" x="639.52" y="235.3" width="55.68" height="7.48" rx="3.74" ry="3.74"/><rect class="cls-16" x="785.61" y="235.3" width="55.68" height="7.48" rx="3.74" ry="3.74"/><rect class="cls-16" x="639.52" y="320.91" width="55.68" height="7.48" rx="3.74" ry="3.74"/><rect class="cls-16" x="785.61" y="320.91" width="55.68" height="7.48" rx="3.74" ry="3.74"/><path d="M649.43,267.81c0-.81-.25-1.46-.75-1.94-.5-.48-1.17-.73-2.01-.73-.49,0-1.02.09-1.57.26l-.74-1.26,4.24-4.69h-6v-2.09h8.81v1.9l-3.78,4.21h.09c1.25,0,2.27.4,3.05,1.19.78.79,1.17,1.85,1.17,3.17,0,.98-.23,1.85-.7,2.58s-1.13,1.31-1.99,1.71c-.86.4-1.86.61-3,.61-1.84,0-3.43-.58-4.76-1.74l1.36-1.79c1.02.87,2.17,1.31,3.48,1.31.95,0,1.71-.24,2.27-.73.56-.48.84-1.15.84-1.99Z"/><path d="M654.1,264.86c0-2.48.51-4.41,1.52-5.8s2.43-2.08,4.24-2.08,3.25.7,4.26,2.09,1.52,3.33,1.52,5.79-.51,4.39-1.52,5.78c-1.02,1.4-2.44,2.1-4.26,2.1s-3.22-.69-4.24-2.08c-1.02-1.39-1.52-3.32-1.52-5.79ZM656.6,264.86c0,1.79.29,3.18.86,4.17.57.98,1.37,1.48,2.4,1.48s1.86-.49,2.43-1.48c.57-.98.86-2.37.86-4.17s-.29-3.18-.86-4.17-1.38-1.48-2.43-1.48-1.83.49-2.4,1.48-.86,2.37-.86,4.17Z"/><path d="M792.88,272.58c-1.05-.06-2.02-.31-2.92-.75-.9-.44-1.66-1.03-2.27-1.77l1.52-1.64c1.06,1.17,2.29,1.85,3.67,2.02v-4.9c-1.51-.37-2.63-.9-3.36-1.61-.73-.71-1.1-1.6-1.1-2.68,0-1.17.4-2.13,1.2-2.86.8-.73,1.88-1.14,3.25-1.24v-2.14h1.62v2.17c1.7.21,3.03.88,4,2.02l-1.55,1.57c-.59-.76-1.41-1.24-2.45-1.43v4.38c1.52.4,2.65.96,3.37,1.68.72.72,1.08,1.62,1.08,2.7,0,1.19-.4,2.18-1.21,2.98-.81.79-1.89,1.28-3.24,1.45v2.19h-1.62v-2.14ZM792.88,259.27c-.67.08-1.18.28-1.55.61s-.55.76-.55,1.3c0,.48.16.88.48,1.2.32.33.86.62,1.62.87v-3.97ZM796.57,268.2c0-.52-.16-.96-.46-1.3-.31-.34-.84-.65-1.61-.92v4.43c1.38-.22,2.07-.96,2.07-2.21Z"/><path d="M802.28,270.24h3.33v-10.28l-3,1.64-.98-1.9,4.29-2.33h2.07v12.88h3.07v2.12h-8.78v-2.12Z"/><path d="M821.71,267.65c0-.89-.29-1.58-.86-2.08s-1.36-.75-2.36-.75c-.84,0-1.64.21-2.4.62l-1.14-.88,1.33-7.19h7.52v2.09h-5.76l-.76,3.79c.57-.24,1.24-.36,2-.36,1.51,0,2.7.42,3.57,1.27.87.85,1.31,2,1.31,3.46,0,1.56-.51,2.8-1.52,3.73-1.02.93-2.39,1.39-4.12,1.39-1.84,0-3.41-.58-4.71-1.74l1.31-1.76c1.08.87,2.19,1.31,3.33,1.31,1,0,1.79-.27,2.38-.8.59-.53.88-1.23.88-2.11Z"/><path d="M827.44,269.5h2.93v2.86h-2.93v-2.86Z"/><path d="M833.73,270.91c0-.7.13-1.34.38-1.94s.67-1.2,1.25-1.82c.58-.62,1.37-1.31,2.37-2.07l.71-.55c.9-.7,1.53-1.28,1.88-1.74s.52-.95.52-1.48c0-.67-.23-1.19-.68-1.57s-1.07-.57-1.84-.57c-1.27,0-2.33.59-3.17,1.79l-1.67-1.31c1.13-1.78,2.81-2.67,5.05-2.67,1.46,0,2.62.38,3.49,1.13.86.75,1.3,1.77,1.3,3.06,0,.6-.11,1.16-.32,1.67-.21.51-.57,1.02-1.06,1.55-.49.52-1.16,1.1-2,1.74l-.69.5c-.73.57-1.3,1.06-1.71,1.45-.41.4-.71.76-.88,1.1-.17.33-.28.69-.31,1.07h7.12v2.12h-9.74v-1.45Z"/><path d="M848.79,272.36h-2.4v-15.88h2.4v9.26l4.52-4.45h2.78l-4.21,4.09,4.81,6.97h-2.81l-3.62-5.43-1.48,1.43v4Z"/><path class="cls-3" d="M46,44.18h245.87c6.62,0,12,5.38,12,12v279.58H34V56.18c0-6.62,5.38-12,12-12Z"/><rect class="cls-16" x="933.4" y="85.61" width="32.61" height="32.63" rx="6.09" ry="6.09"/><path class="cls-1" d="M338.12,42.24h251.1c6.69,0,12.12,5.43,12.12,12.12v279.46h-275.34V54.36c0-6.69,5.43-12.12,12.12-12.12Z"/><polygon class="cls-16" points="421.2 243.26 503.8 243.26 526.05 175.91 399.25 175.91 421.2 243.26"/><path class="cls-14" d="M426.66,260.02c.1.3.15.61.15.93v53.97c0,1.66,1.34,3,3,3h65.25c1.66,0,3-1.34,3-3v-53.81c0-.32.05-.64.15-.94l3.61-10.92h-78.67l3.51,10.77Z"/><path class="cls-15" d="M546.38,101.81h-167.15c-2.04,0-3.48,1.99-2.85,3.93l20.92,64.18h130.73l21.2-64.17c.64-1.94-.8-3.94-2.85-3.94Z"/><path d="M343.69,64.06h4.62c1.5,0,2.67.38,3.52,1.12.85.75,1.27,1.78,1.27,3.11s-.42,2.34-1.25,3.11c-.83.76-1.98,1.15-3.46,1.15h-2.52v5.28h-2.19v-13.76ZM350.87,68.31c0-.74-.23-1.33-.69-1.75-.46-.43-1.1-.64-1.91-.64h-2.39v4.75h2.39c.83,0,1.46-.21,1.92-.62.45-.41.68-.99.68-1.73Z"/><path d="M355.29,68.23h1.94l.1,1.57c.33-.55.76-.98,1.29-1.28.53-.3,1.12-.45,1.76-.45.36,0,.72.06,1.07.17l-.39,1.9c-.29-.1-.59-.14-.91-.14-.8,0-1.46.26-1.99.78-.53.52-.79,1.21-.79,2.06v4.99h-2.08v-9.6Z"/><path d="M362.14,73c0-.96.22-1.83.67-2.59.45-.76,1.06-1.37,1.83-1.82.77-.45,1.64-.67,2.62-.67s1.85.22,2.63.67c.78.45,1.39,1.05,1.84,1.82.45.76.67,1.63.67,2.59s-.22,1.85-.67,2.63c-.45.78-1.06,1.39-1.84,1.83-.78.44-1.65.66-2.63.66s-1.85-.22-2.62-.66c-.77-.44-1.38-1.05-1.83-1.83-.45-.78-.67-1.65-.67-2.63ZM364.27,73.02c0,.96.28,1.75.84,2.36.56.61,1.28.92,2.16.92.58,0,1.09-.14,1.55-.42.45-.28.81-.67,1.07-1.17.26-.5.39-1.06.39-1.69s-.13-1.21-.38-1.7c-.25-.49-.61-.87-1.06-1.16-.45-.28-.97-.42-1.55-.42-.88,0-1.6.31-2.17.92-.56.61-.85,1.4-.85,2.36Z"/><path d="M381.31,77.72v-1.18c-.66.94-1.67,1.4-3.03,1.4-.87,0-1.63-.2-2.28-.6-.65-.4-1.16-.96-1.53-1.67-.37-.72-.55-1.55-.55-2.5,0-1.07.23-2,.7-2.79s1.12-1.39,1.97-1.83c.85-.43,1.84-.65,2.98-.65.62,0,1.27.06,1.94.18.67.12,1.29.29,1.84.51v9.04c0,1.47-.43,2.61-1.28,3.41-.85.8-2.08,1.2-3.67,1.2s-2.9-.41-3.94-1.22l.91-1.53c.92.66,1.92.99,2.99.99,1.97,0,2.95-.92,2.95-2.76ZM381.27,73.45v-3.49c-.59-.15-1.14-.23-1.65-.23-1.13,0-2,.3-2.63.9-.63.6-.94,1.43-.94,2.49,0,.92.24,1.66.72,2.22.48.56,1.12.84,1.92.84s1.39-.25,1.87-.76c.47-.51.71-1.16.71-1.96Z"/><path d="M385.85,68.23h1.94l.1,1.57c.33-.55.76-.98,1.29-1.28.53-.3,1.12-.45,1.76-.45.36,0,.72.06,1.07.17l-.39,1.9c-.29-.1-.59-.14-.91-.14-.8,0-1.46.26-1.99.78-.53.52-.79,1.21-.79,2.06v4.99h-2.08v-9.6Z"/><path d="M392.76,73.04c0-.99.21-1.87.62-2.64.41-.77.98-1.38,1.7-1.82.72-.44,1.55-.66,2.49-.66s1.78.22,2.49.67c.71.45,1.26,1.07,1.66,1.88.4.8.6,1.74.6,2.8v.39h-7.47c.08.84.4,1.5.96,1.98.56.48,1.3.72,2.22.72,1.11,0,2.11-.38,2.99-1.16l1.03,1.3c-.5.51-1.11.9-1.84,1.19-.73.28-1.5.42-2.31.42-1.02,0-1.91-.21-2.68-.64-.77-.43-1.37-1.02-1.81-1.79-.43-.76-.65-1.65-.65-2.65ZM399.44,70.38c-.46-.44-1.06-.66-1.81-.66s-1.4.22-1.9.67c-.5.45-.79,1.05-.89,1.81h5.41c-.08-.77-.35-1.38-.82-1.82Z"/><path d="M409.89,75.2c0-.36-.16-.64-.46-.85-.31-.21-.85-.39-1.62-.54l-.68-.12c-.99-.19-1.73-.53-2.22-1.01-.49-.48-.73-1.07-.73-1.77,0-.91.36-1.63,1.07-2.18.71-.54,1.68-.81,2.89-.81,1.4,0,2.59.41,3.55,1.22l-.97,1.4c-.78-.63-1.68-.95-2.68-.95-1.22,0-1.84.39-1.84,1.16,0,.34.14.61.42.79.28.19.77.35,1.48.48l.7.14c1.1.22,1.9.57,2.4,1.04.5.47.75,1.08.75,1.81,0,.99-.37,1.75-1.11,2.29-.74.54-1.75.8-3.01.8-.84,0-1.62-.13-2.33-.38-.72-.25-1.31-.61-1.78-1.06l1.11-1.38c.4.37.85.66,1.36.86s1.07.3,1.67.3c.65,0,1.15-.11,1.5-.32.35-.21.53-.52.53-.92Z"/><path d="M413.57,73c0-.96.22-1.83.67-2.59.45-.76,1.06-1.37,1.83-1.82.77-.45,1.64-.67,2.62-.67s1.85.22,2.63.67c.78.45,1.39,1.05,1.84,1.82.45.76.67,1.63.67,2.59s-.22,1.85-.67,2.63c-.45.78-1.06,1.39-1.84,1.83-.78.44-1.65.66-2.63.66s-1.85-.22-2.62-.66c-.77-.44-1.38-1.05-1.83-1.83-.45-.78-.67-1.65-.67-2.63ZM415.69,73.02c0,.96.28,1.75.84,2.36.56.61,1.28.92,2.16.92.58,0,1.09-.14,1.55-.42.45-.28.81-.67,1.07-1.17.26-.5.39-1.06.39-1.69s-.13-1.21-.38-1.7c-.25-.49-.61-.87-1.06-1.16-.45-.28-.97-.42-1.55-.42-.88,0-1.6.31-2.17.92-.56.61-.85,1.4-.85,2.36Z"/><path d="M445.59,122.72c-.47-.03-.91-.14-1.31-.34-.4-.2-.74-.46-1.02-.8l.68-.74c.48.53,1.03.83,1.65.91v-2.21c-.68-.16-1.18-.41-1.51-.72-.33-.32-.49-.72-.49-1.21,0-.53.18-.96.54-1.28s.85-.51,1.46-.56v-.96h.73v.97c.76.09,1.36.4,1.8.91l-.7.71c-.26-.34-.63-.56-1.1-.64v1.97c.68.18,1.19.43,1.51.76s.49.73.49,1.21c0,.54-.18.98-.55,1.34-.36.36-.85.57-1.46.65v.98h-.73v-.96ZM445.59,116.73c-.3.04-.53.13-.7.27s-.25.34-.25.58c0,.21.07.39.21.54.14.15.38.28.73.39v-1.79ZM447.25,120.75c0-.24-.07-.43-.21-.58-.14-.15-.38-.29-.72-.41v1.99c.62-.1.93-.43.93-.99Z"/><path d="M449.82,121.67h1.5v-4.62l-1.35.74-.44-.86,1.93-1.05h.93v5.79h1.38v.95h-3.95v-.95Z"/><path d="M454.88,119.25c0-1.11.23-1.98.68-2.61.46-.62,1.09-.94,1.91-.94s1.46.31,1.92.94c.46.63.69,1.5.69,2.6s-.23,1.97-.69,2.6c-.46.63-1.09.94-1.92.94s-1.45-.31-1.91-.94c-.46-.62-.68-1.49-.68-2.61ZM456,119.25c0,.81.13,1.43.38,1.87s.62.66,1.08.66.83-.22,1.09-.66c.26-.44.39-1.07.39-1.87s-.13-1.43-.39-1.87c-.26-.44-.62-.66-1.09-.66s-.82.22-1.08.66c-.26.44-.38,1.07-.38,1.87Z"/><path d="M461.25,121.34h1.11c0,.57-.1,1.12-.3,1.63-.2.52-.48.96-.83,1.34l-.67-.47c.23-.33.4-.71.52-1.12s.18-.87.18-1.39Z"/><path d="M467.17,120.5c0-.4-.13-.71-.38-.94s-.61-.34-1.06-.34c-.38,0-.74.09-1.08.28l-.51-.4.6-3.23h3.38v.94h-2.59l-.34,1.7c.26-.11.56-.16.9-.16.68,0,1.21.19,1.61.57.39.38.59.9.59,1.56,0,.7-.23,1.26-.68,1.68-.46.42-1.07.63-1.85.63-.83,0-1.54-.26-2.12-.78l.59-.79c.49.39.99.59,1.5.59.45,0,.81-.12,1.07-.36.26-.24.4-.56.4-.95Z"/><path d="M469.33,119.25c0-1.11.23-1.98.68-2.61.46-.62,1.09-.94,1.91-.94s1.46.31,1.92.94c.46.63.69,1.5.69,2.6s-.23,1.97-.69,2.6c-.46.63-1.09.94-1.92.94s-1.45-.31-1.91-.94c-.46-.62-.68-1.49-.68-2.61ZM470.45,119.25c0,.81.13,1.43.38,1.87s.62.66,1.08.66.83-.22,1.09-.66c.26-.44.39-1.07.39-1.87s-.13-1.43-.39-1.87c-.26-.44-.62-.66-1.09-.66s-.82.22-1.08.66c-.26.44-.38,1.07-.38,1.87Z"/><path d="M475.16,119.25c0-1.11.23-1.98.68-2.61.46-.62,1.09-.94,1.91-.94s1.46.31,1.92.94c.46.63.69,1.5.69,2.6s-.23,1.97-.69,2.6c-.46.63-1.09.94-1.92.94s-1.45-.31-1.91-.94c-.46-.62-.68-1.49-.68-2.61ZM476.29,119.25c0,.81.13,1.43.38,1.87s.62.66,1.08.66.83-.22,1.09-.66c.26-.44.39-1.07.39-1.87s-.13-1.43-.39-1.87c-.26-.44-.62-.66-1.09-.66s-.82.22-1.08.66c-.26.44-.38,1.07-.38,1.87Z"/><path d="M445.59,197.71c-.47-.03-.91-.14-1.31-.34-.4-.2-.74-.46-1.02-.8l.68-.74c.48.53,1.03.83,1.65.91v-2.21c-.68-.16-1.18-.41-1.51-.72-.33-.32-.49-.72-.49-1.21,0-.53.18-.96.54-1.28s.85-.51,1.46-.56v-.96h.73v.97c.76.09,1.36.4,1.8.91l-.7.71c-.26-.34-.63-.56-1.1-.64v1.97c.68.18,1.19.43,1.51.75.32.33.49.73.49,1.21,0,.54-.18.98-.55,1.34-.36.36-.85.58-1.46.65v.98h-.73v-.96ZM445.59,191.72c-.3.04-.53.13-.7.27s-.25.34-.25.58c0,.21.07.39.21.54.14.15.38.28.73.39v-1.79ZM447.25,195.74c0-.24-.07-.43-.21-.58-.14-.15-.38-.29-.72-.41v1.99c.62-.1.93-.43.93-1Z"/><path d="M449.82,196.66h1.5v-4.62l-1.35.74-.44-.86,1.93-1.05h.93v5.79h1.38v.95h-3.95v-.95Z"/><path d="M458.55,195.49c0-.4-.13-.71-.38-.94s-.61-.34-1.06-.34c-.38,0-.74.09-1.08.28l-.51-.4.6-3.23h3.38v.94h-2.59l-.34,1.7c.26-.11.56-.16.9-.16.68,0,1.21.19,1.61.57.39.38.59.9.59,1.56,0,.7-.23,1.26-.68,1.67s-1.07.63-1.85.63c-.83,0-1.54-.26-2.12-.78l.59-.79c.49.39.99.59,1.5.59.45,0,.81-.12,1.07-.36.26-.24.4-.56.4-.95Z"/><path d="M461.25,196.33h1.11c0,.57-.1,1.12-.3,1.63-.2.52-.48.97-.83,1.34l-.67-.47c.23-.33.4-.71.52-1.12s.18-.87.18-1.39Z"/><path d="M463.87,190.87h4.66v.94c-.23.36-.47.8-.73,1.3-.26.5-.51,1.03-.75,1.57-.24.55-.46,1.07-.66,1.58-.2.51-.36.96-.47,1.34h-1.15c.16-.48.34-.98.55-1.51.21-.53.44-1.05.68-1.58.24-.52.49-1.02.74-1.49s.49-.88.72-1.23h-3.58v-.94Z"/><path d="M469.33,194.24c0-1.11.23-1.98.68-2.61.46-.62,1.09-.94,1.91-.94s1.46.31,1.92.94c.46.63.69,1.5.69,2.6s-.23,1.97-.69,2.6c-.46.63-1.09.94-1.92.94s-1.45-.31-1.91-.94c-.46-.62-.68-1.49-.68-2.61ZM470.45,194.24c0,.81.13,1.43.38,1.87.26.44.62.66,1.08.66s.83-.22,1.09-.66c.26-.44.39-1.07.39-1.87s-.13-1.43-.39-1.87c-.26-.44-.62-.66-1.09-.66s-.82.22-1.08.66c-.26.44-.38,1.07-.38,1.87Z"/><path d="M475.16,194.24c0-1.11.23-1.98.68-2.61.46-.62,1.09-.94,1.91-.94s1.46.31,1.92.94c.46.63.69,1.5.69,2.6s-.23,1.97-.69,2.6c-.46.63-1.09.94-1.92.94s-1.45-.31-1.91-.94c-.46-.62-.68-1.49-.68-2.61ZM476.29,194.24c0,.81.13,1.43.38,1.87.26.44.62.66,1.08.66s.83-.22,1.09-.66c.26-.44.39-1.07.39-1.87s-.13-1.43-.39-1.87c-.26-.44-.62-.66-1.09-.66s-.82.22-1.08.66c-.26.44-.38,1.07-.38,1.87Z"/><path d="M445.59,269.56c-.47-.03-.91-.14-1.31-.34-.4-.2-.74-.46-1.02-.8l.68-.74c.48.53,1.03.83,1.65.91v-2.21c-.68-.16-1.18-.41-1.51-.72-.33-.32-.49-.72-.49-1.21,0-.53.18-.96.54-1.28s.85-.51,1.46-.56v-.96h.73v.97c.76.09,1.36.4,1.8.91l-.7.71c-.26-.34-.63-.56-1.1-.64v1.97c.68.18,1.19.43,1.51.76s.49.73.49,1.21c0,.54-.18.98-.55,1.34-.36.36-.85.57-1.46.65v.98h-.73v-.96ZM445.59,263.57c-.3.04-.53.13-.7.27s-.25.34-.25.58c0,.21.07.39.21.54.14.15.38.28.73.39v-1.79ZM447.25,267.59c0-.24-.07-.43-.21-.58-.14-.15-.38-.29-.72-.41v1.99c.62-.1.93-.43.93-.99Z"/><path d="M452.78,267.42c0-.36-.11-.65-.34-.87-.22-.22-.53-.33-.9-.33-.22,0-.46.04-.71.12l-.33-.57,1.91-2.11h-2.7v-.94h3.96v.86l-1.7,1.89h.04c.56,0,1.02.18,1.37.54s.52.83.52,1.42c0,.44-.11.83-.32,1.16-.21.33-.51.59-.89.77-.39.18-.83.27-1.35.27-.83,0-1.54-.26-2.14-.78l.61-.8c.46.39.98.59,1.56.59.43,0,.77-.11,1.02-.33s.38-.51.38-.89Z"/><path d="M454.97,267.22l3.15-4.51h1.09v4.44h.81v.93h-.81v1.37h-1.03v-1.37h-3.21v-.87ZM458.2,264.05l-2.19,3.13h2.19v-3.13Z"/><path d="M461.25,268.18h1.11c0,.57-.1,1.12-.3,1.63-.2.52-.48.96-.83,1.34l-.67-.47c.23-.33.4-.71.52-1.12s.18-.87.18-1.39Z"/><path d="M467.23,267.42c0-.36-.11-.65-.34-.87-.22-.22-.53-.33-.9-.33-.22,0-.46.04-.71.12l-.33-.57,1.91-2.11h-2.7v-.94h3.96v.86l-1.7,1.89h.04c.56,0,1.02.18,1.37.54s.52.83.52,1.42c0,.44-.11.83-.32,1.16-.21.33-.51.59-.89.77-.39.18-.83.27-1.35.27-.83,0-1.54-.26-2.14-.78l.61-.8c.46.39.98.59,1.56.59.43,0,.77-.11,1.02-.33s.38-.51.38-.89Z"/><path d="M469.33,266.09c0-1.11.23-1.98.68-2.61.46-.62,1.09-.94,1.91-.94s1.46.31,1.92.94c.46.63.69,1.5.69,2.6s-.23,1.97-.69,2.6c-.46.63-1.09.94-1.92.94s-1.45-.31-1.91-.94c-.46-.62-.68-1.49-.68-2.61ZM470.45,266.09c0,.81.13,1.43.38,1.87s.62.66,1.08.66.83-.22,1.09-.66c.26-.44.39-1.07.39-1.87s-.13-1.43-.39-1.87c-.26-.44-.62-.66-1.09-.66s-.82.22-1.08.66c-.26.44-.38,1.07-.38,1.87Z"/><path d="M475.16,266.09c0-1.11.23-1.98.68-2.61.46-.62,1.09-.94,1.91-.94s1.46.31,1.92.94c.46.63.69,1.5.69,2.6s-.23,1.97-.69,2.6c-.46.63-1.09.94-1.92.94s-1.45-.31-1.91-.94c-.46-.62-.68-1.49-.68-2.61ZM476.29,266.09c0,.81.13,1.43.38,1.87s.62.66,1.08.66.83-.22,1.09-.66c.26-.44.39-1.07.39-1.87s-.13-1.43-.39-1.87c-.26-.44-.62-.66-1.09-.66s-.82.22-1.08.66c-.26.44-.38,1.07-.38,1.87Z"/><polyline class="cls-12" points="229.23 158.92 245.17 158.92 245.17 140.32"/><polyline class="cls-12" points="109.16 158.92 93.22 158.92 93.22 140.32"/><polyline class="cls-12" points="224.37 253.11 245.17 253.11 245.17 271.71"/><polyline class="cls-12" points="113.83 253.11 93.02 253.11 93.02 271.71"/><path class="cls-16" d="M244.47,203.74h-43.84c0,17.63-14.29,31.92-31.92,31.92v43.84c41.84,0,75.76-33.92,75.76-75.76Z"/><path class="cls-14" d="M168.72,235.66c-17.63,0-31.92-14.29-31.92-31.92h-43.84c0,41.84,33.92,75.76,75.76,75.76h0v-43.84h0Z"/><path class="cls-13" d="M136.8,203.74c0-17.63,14.29-31.92,31.92-31.92h0v-43.84h0c-41.84,0-75.76,33.92-75.76,75.76h0s43.84,0,43.84,0h0Z"/><path class="cls-15" d="M200.63,203.74h0s43.84,0,43.84,0h0c0-41.84-33.92-75.76-75.76-75.76v43.84c17.63,0,31.92,14.29,31.92,31.92Z"/><path class="cls-11" d="M196.99,102.57h2.43c.78,0,1.39.19,1.83.57.44.38.66.9.66,1.57,0,.48-.12.89-.35,1.23-.23.34-.55.59-.96.74l1.65,3.03h-1.27l-1.48-2.84h-1.38v2.84h-1.12v-7.14ZM200.75,104.73c0-.38-.12-.68-.36-.89-.24-.21-.57-.32-.99-.32h-1.28v2.4h1.28c.43,0,.76-.11,1-.32.24-.21.35-.5.35-.87Z"/><path class="cls-11" d="M202.71,107.23c0-.51.11-.97.32-1.37.21-.4.51-.71.88-.94.38-.23.8-.34,1.29-.34s.92.12,1.29.35c.37.23.65.56.86.97s.31.9.31,1.45v.2h-3.88c.04.43.21.78.5,1.03s.67.38,1.15.38c.58,0,1.1-.2,1.55-.6l.54.67c-.26.26-.58.47-.95.62s-.78.22-1.2.22c-.53,0-.99-.11-1.39-.33-.4-.22-.71-.53-.94-.93-.22-.4-.34-.85-.34-1.38ZM206.17,105.85c-.24-.23-.55-.34-.94-.34s-.73.12-.98.35-.41.54-.46.94h2.8c-.04-.4-.18-.71-.42-.94Z"/><path class="cls-11" d="M208.12,104.73h.88v-1.64h1.08v1.64h1.43v.88h-1.43v2.44c0,.31.06.54.17.69s.29.21.54.21c.27,0,.52-.1.76-.31l.46.68c-.38.36-.84.54-1.38.54s-.93-.15-1.21-.46-.42-.75-.42-1.33v-2.46h-.88v-.88Z"/><path class="cls-11" d="M212.73,104.73h1.01l.05.81c.17-.29.39-.51.67-.66.27-.16.58-.24.92-.24.19,0,.37.03.56.08l-.2.99c-.15-.05-.31-.08-.47-.08-.41,0-.76.14-1.03.41-.27.27-.41.63-.41,1.07v2.59h-1.08v-4.98Z"/><path class="cls-11" d="M216.26,108.27c0-.54.2-.96.59-1.26.4-.31.96-.46,1.7-.46.33,0,.69.03,1.07.08v-.18c0-.66-.41-.98-1.22-.98-.56,0-1.05.15-1.45.46l-.47-.73c.56-.41,1.23-.62,2-.62.69,0,1.23.16,1.61.49.38.33.57.78.57,1.35v3.3h-.95l-.04-.64c-.16.25-.39.44-.68.58s-.62.21-.99.21c-.52,0-.94-.14-1.26-.43s-.48-.68-.48-1.16ZM217.31,108.21c0,.26.08.47.25.61s.4.21.7.21c.26,0,.49-.05.69-.15s.37-.24.49-.41.18-.36.18-.56v-.56c-.36-.06-.67-.08-.95-.08-.44,0-.77.08-1.01.23-.24.16-.35.39-.35.7Z"/><path class="cls-11" d="M224.83,108.35c0-.19-.08-.33-.24-.44-.16-.11-.44-.2-.84-.28l-.35-.06c-.51-.1-.9-.28-1.15-.53-.25-.25-.38-.56-.38-.92,0-.47.19-.85.56-1.13s.87-.42,1.5-.42c.73,0,1.34.21,1.84.63l-.5.73c-.41-.33-.87-.49-1.39-.49-.64,0-.95.2-.95.6,0,.18.07.32.22.41.15.1.4.18.77.25l.36.07c.57.11.99.29,1.25.54.26.25.39.56.39.94,0,.51-.19.91-.58,1.19-.39.28-.91.42-1.56.42-.44,0-.84-.07-1.21-.2-.37-.13-.68-.32-.92-.55l.58-.72c.21.19.44.34.71.44.26.1.55.16.87.16.34,0,.59-.06.78-.17.18-.11.27-.27.27-.48Z"/><path class="cls-11" d="M226.74,107.21c0-.5.12-.95.35-1.34.23-.4.55-.71.95-.94.4-.23.85-.35,1.36-.35s.96.12,1.36.35c.4.23.72.55.95.94.23.4.35.84.35,1.34s-.12.96-.35,1.37c-.23.4-.55.72-.95.95s-.86.34-1.36.34-.96-.11-1.36-.34c-.4-.23-.72-.54-.95-.95-.23-.4-.35-.86-.35-1.37ZM227.84,107.22c0,.5.14.91.43,1.22.29.32.66.48,1.12.48.3,0,.57-.07.8-.22s.42-.35.56-.61c.13-.26.2-.55.2-.88s-.07-.63-.2-.88c-.13-.25-.32-.45-.55-.6s-.5-.22-.8-.22c-.46,0-.83.16-1.12.48-.29.32-.44.73-.44,1.23Z"/><path class="cls-11" d="M234.79,107.23c0-.51.11-.97.32-1.37.21-.4.51-.71.88-.94.37-.23.8-.34,1.29-.34s.92.12,1.29.35c.37.23.66.56.86.97s.31.9.31,1.45v.2h-3.88c.04.43.21.78.5,1.03s.67.38,1.15.38c.58,0,1.09-.2,1.55-.6l.54.67c-.26.26-.57.47-.95.62-.38.15-.78.22-1.2.22-.53,0-.99-.11-1.39-.33s-.71-.53-.94-.93-.34-.85-.34-1.38ZM238.25,105.85c-.24-.23-.55-.34-.94-.34s-.73.12-.99.35-.41.54-.46.94h2.8c-.04-.4-.18-.71-.42-.94Z"/><path class="cls-11" d="M240.76,104.73h1.01l.04.73c.17-.28.41-.5.7-.65.3-.16.63-.24,1.01-.24.59,0,1.05.18,1.38.55.33.37.49.88.49,1.54v3.05h-1.08v-2.9c0-.42-.09-.74-.28-.96-.19-.22-.46-.33-.82-.33-.41,0-.74.15-.99.44-.25.29-.37.68-.37,1.18v2.57h-1.08v-4.98Z"/><path class="cls-11" d="M248.69,102.57h2.43c1.23,0,2.19.31,2.87.93s1.02,1.49,1.02,2.62-.34,2.01-1.03,2.64c-.69.63-1.65.95-2.88.95h-2.42v-7.14ZM253.81,106.13c0-.82-.24-1.45-.71-1.89s-1.15-.66-2.02-.66h-1.23v5.11h1.24c.88,0,1.55-.22,2.02-.66.47-.44.7-1.07.7-1.89Z"/><path class="cls-11" d="M255.95,107.23c0-.51.11-.97.32-1.37.21-.4.51-.71.88-.94.37-.23.8-.34,1.29-.34s.92.12,1.29.35c.37.23.66.56.86.97s.31.9.31,1.45v.2h-3.88c.04.43.21.78.5,1.03s.67.38,1.15.38c.58,0,1.09-.2,1.55-.6l.54.67c-.26.26-.57.47-.95.62-.38.15-.78.22-1.2.22-.53,0-.99-.11-1.39-.33s-.71-.53-.94-.93-.34-.85-.34-1.38ZM259.41,105.85c-.24-.23-.55-.34-.94-.34s-.73.12-.99.35-.41.54-.46.94h2.8c-.04-.4-.18-.71-.42-.94Z"/><path class="cls-11" d="M264.83,108.35c0-.19-.08-.33-.24-.44-.16-.11-.44-.2-.84-.28l-.35-.06c-.51-.1-.9-.28-1.15-.53-.25-.25-.38-.56-.38-.92,0-.47.19-.85.56-1.13s.87-.42,1.5-.42c.73,0,1.34.21,1.84.63l-.5.73c-.41-.33-.87-.49-1.39-.49-.64,0-.95.2-.95.6,0,.18.07.32.22.41.15.1.4.18.77.25l.36.07c.57.11.99.29,1.25.54.26.25.39.56.39.94,0,.51-.19.91-.58,1.19-.39.28-.91.42-1.56.42-.44,0-.84-.07-1.21-.2-.37-.13-.68-.32-.92-.55l.58-.72c.21.19.44.34.71.44.26.1.55.16.87.16.34,0,.59-.06.78-.17.18-.11.27-.27.27-.48Z"/><path class="cls-11" d="M266.71,108.27c0-.54.2-.96.59-1.26.4-.31.96-.46,1.7-.46.33,0,.69.03,1.07.08v-.18c0-.66-.41-.98-1.22-.98-.56,0-1.05.15-1.45.46l-.47-.73c.56-.41,1.23-.62,2-.62.69,0,1.23.16,1.61.49.38.33.57.78.57,1.35v3.3h-.95l-.04-.64c-.16.25-.39.44-.68.58s-.62.21-.99.21c-.52,0-.94-.14-1.26-.43s-.48-.68-.48-1.16ZM267.76,108.21c0,.26.08.47.25.61s.4.21.7.21c.26,0,.49-.05.69-.15s.37-.24.49-.41.18-.36.18-.56v-.56c-.36-.06-.67-.08-.95-.08-.44,0-.77.08-1.01.23-.24.16-.35.39-.35.7Z"/><path class="cls-11" d="M272.37,104.73h1.01l.05.81c.17-.29.39-.51.67-.66.27-.16.58-.24.92-.24.19,0,.37.03.56.08l-.2.99c-.15-.05-.31-.08-.47-.08-.41,0-.76.14-1.03.41-.27.27-.41.63-.41,1.07v2.59h-1.08v-4.98Z"/><path class="cls-11" d="M276.33,104.73h1.01l.05.81c.17-.29.39-.51.67-.66.27-.16.58-.24.92-.24.19,0,.37.03.56.08l-.2.99c-.15-.05-.31-.08-.47-.08-.41,0-.76.14-1.03.41-.27.27-.41.63-.41,1.07v2.59h-1.08v-4.98Z"/><path class="cls-11" d="M279.88,107.21c0-.5.12-.95.35-1.34.23-.4.55-.71.95-.94.4-.23.85-.35,1.36-.35s.96.12,1.36.35c.4.23.72.55.95.94.23.4.35.84.35,1.34s-.12.96-.35,1.37c-.23.4-.55.72-.95.95s-.86.34-1.36.34-.96-.11-1.36-.34c-.4-.23-.72-.54-.95-.95-.23-.4-.35-.86-.35-1.37ZM280.99,107.22c0,.5.14.91.43,1.22.29.32.66.48,1.12.48.3,0,.57-.07.8-.22s.42-.35.56-.61c.13-.26.2-.55.2-.88s-.07-.63-.2-.88c-.13-.25-.32-.45-.55-.6s-.5-.22-.8-.22c-.46,0-.83.16-1.12.48-.29.32-.44.73-.44,1.23Z"/><path class="cls-11" d="M286.24,102.57h1.08v7.14h-1.08v-7.14Z"/><path class="cls-11" d="M288.62,102.57h1.08v7.14h-1.08v-7.14Z"/><path class="cls-11" d="M290.75,107.21c0-.5.12-.95.35-1.34.23-.4.55-.71.95-.94.4-.23.85-.35,1.36-.35s.96.12,1.36.35c.4.23.72.55.95.94.23.4.35.84.35,1.34s-.12.96-.35,1.37c-.23.4-.55.72-.95.95s-.86.34-1.36.34-.96-.11-1.36-.34c-.4-.23-.72-.54-.95-.95-.23-.4-.35-.86-.35-1.37ZM291.85,107.22c0,.5.14.91.43,1.22.29.32.66.48,1.12.48.3,0,.57-.07.8-.22s.42-.35.56-.61c.13-.26.2-.55.2-.88s-.07-.63-.2-.88c-.13-.25-.32-.45-.55-.6s-.5-.22-.8-.22c-.46,0-.83.16-1.12.48-.29.32-.44.73-.44,1.23Z"/><path d="M234.72,125.1c0-.38.07-.73.21-1.06.14-.33.37-.66.68-.99.32-.34.75-.71,1.29-1.13l.39-.3c.49-.38.83-.7,1.03-.95.19-.25.29-.52.29-.81,0-.36-.12-.65-.37-.86-.25-.21-.58-.31-1.01-.31-.69,0-1.27.33-1.73.97l-.91-.71c.62-.97,1.53-1.46,2.75-1.46.8,0,1.43.21,1.9.62.47.41.71.97.71,1.67,0,.33-.06.63-.18.91s-.31.56-.58.84c-.27.29-.63.6-1.09.95l-.38.27c-.4.31-.71.58-.94.79-.23.22-.39.42-.48.6-.1.18-.15.38-.17.58h3.88v1.16h-5.31v-.79Z"/><path d="M245.7,123.32c0-.49-.16-.87-.47-1.14-.31-.27-.74-.41-1.29-.41-.46,0-.9.11-1.31.34l-.62-.48.73-3.92h4.11v1.14h-3.14l-.42,2.07c.31-.13.67-.2,1.09-.2.82,0,1.47.23,1.95.7.48.46.71,1.09.71,1.89,0,.85-.28,1.53-.83,2.03-.55.51-1.3.76-2.25.76-1,0-1.86-.32-2.57-.95l.71-.96c.59.48,1.2.71,1.82.71.55,0,.98-.14,1.3-.44.32-.29.48-.67.48-1.15Z"/><path d="M248.25,119.93c0-.73.18-1.3.54-1.72.36-.42.86-.63,1.48-.63s1.12.21,1.48.63c.36.42.54.99.54,1.71s-.18,1.3-.54,1.72c-.36.42-.86.63-1.48.63s-1.12-.21-1.48-.63c-.36-.42-.54-.99-.54-1.71ZM249.3,119.93c0,.45.09.81.26,1.08.17.27.41.4.71.4s.54-.13.71-.4c.17-.26.26-.63.26-1.1s-.09-.82-.26-1.08c-.17-.26-.41-.4-.71-.4s-.54.13-.71.4c-.17.27-.26.63-.26,1.09ZM255.43,117.71h1.21l-5.24,8.19h-1.21l5.24-8.19ZM254.52,123.68c0-.73.18-1.3.55-1.72.36-.42.86-.63,1.48-.63s1.12.21,1.48.63c.36.42.55.99.55,1.71s-.18,1.3-.55,1.72c-.36.42-.86.63-1.48.63s-1.12-.21-1.48-.63c-.36-.42-.55-.99-.55-1.71ZM255.58,123.68c0,.45.09.81.26,1.08.17.27.41.4.71.4s.54-.13.71-.4c.17-.26.26-.63.26-1.1s-.09-.82-.26-1.08c-.17-.26-.41-.4-.71-.4s-.54.13-.71.4c-.17.27-.26.63-.26,1.09Z"/><path class="cls-11" d="M52.66,102.57h4.58v1.01h-3.44v1.96h2.6v.97h-2.6v2.19h3.69v1.01h-4.84v-7.14Z"/><path class="cls-11" d="M58.59,104.73h1.01l.05.81c.17-.29.39-.51.67-.66.27-.16.58-.24.92-.24.19,0,.37.03.56.08l-.2.99c-.15-.05-.31-.08-.47-.08-.41,0-.76.14-1.03.41-.27.27-.41.63-.41,1.07v2.59h-1.08v-4.98Z"/><path class="cls-11" d="M62.55,104.73h1.01l.05.81c.17-.29.39-.51.67-.66.27-.16.58-.24.92-.24.19,0,.37.03.56.08l-.2.99c-.15-.05-.31-.08-.47-.08-.41,0-.76.14-1.03.41-.27.27-.41.63-.41,1.07v2.59h-1.08v-4.98Z"/><path class="cls-11" d="M66.11,107.21c0-.5.12-.95.35-1.34.23-.4.55-.71.95-.94.4-.23.85-.35,1.36-.35s.96.12,1.36.35c.4.23.72.55.95.94.23.4.35.84.35,1.34s-.12.96-.35,1.37c-.23.4-.55.72-.95.95s-.86.34-1.36.34-.96-.11-1.36-.34c-.4-.23-.72-.54-.95-.95-.23-.4-.35-.86-.35-1.37ZM67.21,107.22c0,.5.14.91.43,1.22.29.32.66.48,1.12.48.3,0,.57-.07.8-.22s.42-.35.56-.61c.13-.26.2-.55.2-.88s-.07-.63-.2-.88c-.13-.25-.32-.45-.55-.6s-.5-.22-.8-.22c-.46,0-.83.16-1.12.48-.29.32-.44.73-.44,1.23Z"/><path class="cls-11" d="M72.46,104.73h1.01l.05.81c.17-.29.39-.51.67-.66.27-.16.58-.24.92-.24.19,0,.37.03.56.08l-.2.99c-.15-.05-.31-.08-.47-.08-.41,0-.76.14-1.03.41-.27.27-.41.63-.41,1.07v2.59h-1.08v-4.98Z"/><path class="cls-11" d="M76.05,107.23c0-.51.11-.97.32-1.37.21-.4.51-.71.88-.94.38-.23.8-.34,1.29-.34s.92.12,1.29.35c.37.23.65.56.86.97s.31.9.31,1.45v.2h-3.88c.04.43.21.78.5,1.03s.67.38,1.15.38c.58,0,1.1-.2,1.55-.6l.54.67c-.26.26-.58.47-.95.62s-.78.22-1.2.22c-.53,0-.99-.11-1.39-.33-.4-.22-.71-.53-.94-.93-.22-.4-.34-.85-.34-1.38ZM79.51,105.85c-.24-.23-.55-.34-.94-.34s-.73.12-.98.35-.41.54-.46.94h2.8c-.04-.4-.18-.71-.42-.94Z"/><path class="cls-11" d="M84.94,108.35c0-.19-.08-.33-.24-.44-.16-.11-.44-.2-.84-.28l-.35-.06c-.51-.1-.9-.28-1.15-.53-.25-.25-.38-.56-.38-.92,0-.47.19-.85.56-1.13.37-.28.87-.42,1.5-.42.73,0,1.34.21,1.84.63l-.5.73c-.41-.33-.87-.49-1.39-.49-.63,0-.95.2-.95.6,0,.18.07.32.22.41.15.1.4.18.77.25l.36.07c.57.11.99.29,1.25.54s.39.56.39.94c0,.51-.19.91-.58,1.19-.39.28-.91.42-1.56.42-.44,0-.84-.07-1.21-.2-.37-.13-.68-.32-.92-.55l.58-.72c.21.19.44.34.71.44.26.1.55.16.87.16.33,0,.59-.06.78-.17.18-.11.27-.27.27-.48Z"/><path class="cls-11" d="M88.78,107.23c0-.51.11-.97.32-1.37.21-.4.51-.71.88-.94.37-.23.8-.34,1.29-.34s.92.12,1.29.35c.37.23.66.56.86.97s.31.9.31,1.45v.2h-3.88c.04.43.21.78.5,1.03s.67.38,1.15.38c.58,0,1.09-.2,1.55-.6l.54.67c-.26.26-.57.47-.95.62-.38.15-.78.22-1.2.22-.53,0-.99-.11-1.39-.33s-.71-.53-.94-.93-.34-.85-.34-1.38ZM92.24,105.85c-.24-.23-.55-.34-.94-.34s-.73.12-.99.35-.41.54-.46.94h2.8c-.04-.4-.18-.71-.42-.94Z"/><path class="cls-11" d="M94.75,104.73h1.01l.04.73c.17-.28.41-.5.7-.65.3-.16.63-.24,1.01-.24.59,0,1.05.18,1.38.55.33.37.49.88.49,1.54v3.05h-1.08v-2.9c0-.42-.09-.74-.28-.96-.19-.22-.46-.33-.82-.33-.41,0-.74.15-.99.44-.25.29-.37.68-.37,1.18v2.57h-1.08v-4.98Z"/><path class="cls-11" d="M104.64,103.59h-2.49v-1.02h6.13v1.02h-2.49v6.12h-1.15v-6.12Z"/><path class="cls-11" d="M108.01,107.23c0-.51.11-.97.32-1.37.21-.4.51-.71.88-.94.38-.23.8-.34,1.29-.34s.92.12,1.29.35c.37.23.65.56.86.97s.31.9.31,1.45v.2h-3.88c.04.43.21.78.5,1.03s.67.38,1.15.38c.58,0,1.1-.2,1.55-.6l.54.67c-.26.26-.58.47-.95.62s-.78.22-1.2.22c-.53,0-.99-.11-1.39-.33-.4-.22-.71-.53-.94-.93-.22-.4-.34-.85-.34-1.38ZM111.48,105.85c-.24-.23-.55-.34-.94-.34s-.73.12-.98.35-.41.54-.46.94h2.8c-.04-.4-.18-.71-.42-.94Z"/><path class="cls-11" d="M116.9,108.35c0-.19-.08-.33-.24-.44-.16-.11-.44-.2-.84-.28l-.35-.06c-.51-.1-.9-.28-1.15-.53-.25-.25-.38-.56-.38-.92,0-.47.19-.85.56-1.13.37-.28.87-.42,1.5-.42.73,0,1.34.21,1.84.63l-.5.73c-.41-.33-.87-.49-1.39-.49-.63,0-.95.2-.95.6,0,.18.07.32.22.41.15.1.4.18.77.25l.36.07c.57.11.99.29,1.25.54s.39.56.39.94c0,.51-.19.91-.58,1.19-.39.28-.91.42-1.56.42-.44,0-.84-.07-1.21-.2-.37-.13-.68-.32-.92-.55l.58-.72c.21.19.44.34.71.44.26.1.55.16.87.16.33,0,.59-.06.78-.17.18-.11.27-.27.27-.48Z"/><path class="cls-11" d="M118.6,104.73h.88v-1.64h1.08v1.64h1.43v.88h-1.43v2.44c0,.31.06.54.17.69s.29.21.54.21c.27,0,.52-.1.76-.31l.46.68c-.38.36-.84.54-1.38.54s-.93-.15-1.21-.46-.42-.75-.42-1.33v-2.46h-.88v-.88Z"/><path class="cls-11" d="M123.16,102.75h1.18v1.11h-1.18v-1.11ZM123.2,104.73h1.08v4.98h-1.08v-4.98Z"/><path class="cls-11" d="M125.58,104.73h1.01l.04.73c.17-.28.41-.5.7-.65.3-.16.63-.24,1.01-.24.59,0,1.05.18,1.38.55.33.37.49.88.49,1.54v3.05h-1.08v-2.9c0-.42-.09-.74-.28-.96-.19-.22-.46-.33-.82-.33-.41,0-.74.15-.99.44-.25.29-.37.68-.37,1.18v2.57h-1.08v-4.98Z"/><path class="cls-11" d="M135.04,109.66v-.61c-.34.49-.87.73-1.57.73-.45,0-.84-.1-1.18-.31s-.6-.5-.79-.87c-.19-.37-.28-.8-.28-1.29,0-.56.12-1.04.36-1.45.24-.41.58-.72,1.02-.95.44-.22.95-.34,1.55-.34.32,0,.66.03,1.01.09s.67.15.95.26v4.69c0,.76-.22,1.35-.66,1.77-.44.41-1.08.62-1.91.62s-1.5-.21-2.04-.63l.47-.79c.48.34,1,.51,1.55.51,1.02,0,1.53-.48,1.53-1.44ZM135.02,107.44v-1.81c-.31-.08-.59-.12-.86-.12-.59,0-1.04.16-1.37.47-.33.31-.49.74-.49,1.29,0,.48.12.86.38,1.15s.58.43,1,.43.72-.13.97-.4c.25-.26.37-.6.37-1.02Z"/><path d="M82.7,125.1c0-.38.07-.73.21-1.06.14-.33.37-.66.68-.99.32-.34.75-.71,1.29-1.13l.39-.3c.49-.38.83-.7,1.03-.95.19-.25.29-.52.29-.81,0-.36-.12-.65-.37-.86-.25-.21-.58-.31-1.01-.31-.69,0-1.27.33-1.73.97l-.91-.71c.62-.97,1.53-1.46,2.75-1.46.8,0,1.43.21,1.9.62.47.41.71.97.71,1.67,0,.33-.06.63-.18.91s-.31.56-.58.84c-.27.29-.63.6-1.09.95l-.38.27c-.4.31-.71.58-.94.79-.23.22-.39.42-.48.6-.1.18-.15.38-.17.58h3.88v1.16h-5.31v-.79Z"/><path d="M93.68,123.32c0-.49-.16-.87-.47-1.14-.31-.27-.74-.41-1.29-.41-.46,0-.9.11-1.31.34l-.62-.48.73-3.92h4.11v1.14h-3.14l-.42,2.07c.31-.13.67-.2,1.09-.2.82,0,1.47.23,1.95.7.48.46.71,1.09.71,1.89,0,.85-.28,1.53-.83,2.03-.55.51-1.3.76-2.25.76-1,0-1.86-.32-2.57-.95l.71-.96c.59.48,1.2.71,1.82.71.55,0,.98-.14,1.3-.44.32-.29.48-.67.48-1.15Z"/><path d="M96.23,119.93c0-.73.18-1.3.54-1.72.36-.42.86-.63,1.48-.63s1.12.21,1.48.63c.36.42.54.99.54,1.71s-.18,1.3-.54,1.72c-.36.42-.86.63-1.48.63s-1.12-.21-1.48-.63c-.36-.42-.54-.99-.54-1.71ZM97.28,119.93c0,.45.09.81.26,1.08.17.27.41.4.71.4s.54-.13.71-.4c.17-.26.26-.63.26-1.1s-.09-.82-.26-1.08c-.17-.26-.41-.4-.71-.4s-.54.13-.71.4c-.17.27-.26.63-.26,1.09ZM103.41,117.71h1.21l-5.24,8.19h-1.21l5.24-8.19ZM102.5,123.68c0-.73.18-1.3.55-1.72.36-.42.86-.63,1.48-.63s1.12.21,1.48.63c.36.42.55.99.55,1.71s-.18,1.3-.55,1.72c-.36.42-.86.63-1.48.63s-1.12-.21-1.48-.63c-.36-.42-.55-.99-.55-1.71ZM103.56,123.68c0,.45.09.81.26,1.08.17.27.41.4.71.4s.54-.13.71-.4c.17-.26.26-.63.26-1.1s-.09-.82-.26-1.08c-.17-.26-.41-.4-.71-.4s-.54.13-.71.4c-.17.27-.26.63-.26,1.09Z"/><path class="cls-11" d="M202.75,282.42h4.58v1.01h-3.44v1.96h2.6v.97h-2.6v2.19h3.69v1.01h-4.84v-7.14Z"/><path class="cls-11" d="M208.68,284.58h1.01l.05.81c.17-.29.39-.51.67-.66.27-.16.58-.24.92-.24.19,0,.37.03.56.08l-.2.99c-.15-.05-.31-.08-.47-.08-.41,0-.76.14-1.03.41-.27.27-.41.63-.41,1.07v2.59h-1.08v-4.98Z"/><path class="cls-11" d="M212.64,284.58h1.01l.05.81c.17-.29.39-.51.67-.66.27-.16.58-.24.92-.24.19,0,.37.03.56.08l-.2.99c-.15-.05-.31-.08-.47-.08-.41,0-.76.14-1.03.41-.27.27-.41.63-.41,1.07v2.59h-1.08v-4.98Z"/><path class="cls-11" d="M216.19,287.05c0-.5.12-.95.35-1.34.23-.4.55-.71.95-.94.4-.23.85-.35,1.36-.35s.96.12,1.36.35c.4.23.72.55.95.94.23.4.35.84.35,1.34s-.12.96-.35,1.37c-.23.4-.55.72-.95.95s-.86.34-1.36.34-.96-.11-1.36-.34c-.4-.23-.72-.54-.95-.95-.23-.4-.35-.86-.35-1.37ZM217.29,287.06c0,.5.14.91.43,1.22.29.32.66.48,1.12.48.3,0,.57-.07.8-.22s.42-.35.56-.61c.13-.26.2-.55.2-.88s-.07-.63-.2-.88c-.13-.25-.32-.45-.55-.6s-.5-.22-.8-.22c-.46,0-.83.16-1.12.48-.29.32-.44.73-.44,1.23Z"/><path class="cls-11" d="M222.55,284.58h1.01l.05.81c.17-.29.39-.51.67-.66.27-.16.58-.24.92-.24.19,0,.37.03.56.08l-.2.99c-.15-.05-.31-.08-.47-.08-.41,0-.76.14-1.03.41-.27.27-.41.63-.41,1.07v2.59h-1.08v-4.98Z"/><path class="cls-11" d="M228.2,287.07c0-.51.11-.97.32-1.37.21-.4.51-.71.88-.94.38-.23.8-.34,1.29-.34s.92.12,1.29.35c.37.23.65.56.86.97s.31.9.31,1.45v.2h-3.88c.04.43.21.78.5,1.03s.67.38,1.15.38c.58,0,1.1-.2,1.55-.6l.54.67c-.26.26-.58.47-.95.62s-.78.22-1.2.22c-.53,0-.99-.11-1.39-.33-.4-.22-.71-.53-.94-.93-.22-.4-.34-.85-.34-1.38ZM231.66,285.69c-.24-.23-.55-.34-.94-.34s-.73.12-.98.35-.41.54-.46.94h2.8c-.04-.4-.18-.71-.42-.94Z"/><path class="cls-11" d="M234.17,284.58h1.01l.04.73c.17-.28.4-.5.7-.65.3-.16.63-.24,1.01-.24.59,0,1.05.18,1.38.55.32.37.49.88.49,1.54v3.05h-1.08v-2.9c0-.42-.09-.74-.28-.96s-.46-.33-.82-.33c-.41,0-.74.15-.99.44-.25.29-.37.68-.37,1.18v2.57h-1.08v-4.98Z"/><path class="cls-11" d="M245.87,287.61c0-.31-.11-.57-.33-.76-.22-.19-.58-.35-1.07-.47l-.37-.1c-.67-.16-1.17-.41-1.49-.73-.33-.32-.49-.73-.49-1.24,0-.41.1-.78.3-1.09.2-.31.48-.55.85-.72.36-.17.79-.26,1.28-.26s.92.09,1.32.26c.39.17.71.41.96.73l-.7.73c-.41-.47-.96-.71-1.63-.71-.38,0-.68.08-.9.26-.22.17-.33.41-.33.71,0,.26.1.48.3.64.2.16.54.31,1.03.43l.37.1c1.37.36,2.06,1.08,2.06,2.16,0,.43-.11.82-.32,1.15s-.52.58-.9.77c-.39.18-.84.27-1.35.27s-1.02-.1-1.48-.31c-.46-.21-.86-.5-1.19-.89l.72-.75c.58.63,1.23.94,1.96.94.44,0,.79-.1,1.04-.3.25-.2.38-.47.38-.81Z"/><path class="cls-11" d="M248.15,282.6h1.18v1.11h-1.18v-1.11ZM248.2,284.58h1.08v4.98h-1.08v-4.98Z"/><path class="cls-11" d="M253.48,288.2c0-.19-.08-.33-.24-.44-.16-.11-.44-.2-.84-.28l-.35-.06c-.51-.1-.9-.28-1.15-.53-.25-.25-.38-.56-.38-.92,0-.47.19-.85.56-1.13.37-.28.87-.42,1.5-.42.73,0,1.34.21,1.84.63l-.5.73c-.41-.33-.87-.49-1.39-.49-.63,0-.95.2-.95.6,0,.18.07.32.22.41.15.1.4.18.77.25l.36.07c.57.11.99.29,1.25.54s.39.56.39.94c0,.51-.19.91-.58,1.19-.39.28-.91.42-1.56.42-.44,0-.84-.07-1.21-.2-.37-.13-.68-.32-.92-.55l.58-.72c.21.19.44.34.71.44.26.1.55.16.87.16.33,0,.59-.06.78-.17.18-.11.27-.27.27-.48Z"/><path class="cls-11" d="M255.19,284.58h.88v-1.64h1.08v1.64h1.43v.88h-1.43v2.44c0,.31.06.54.17.69s.29.21.54.21c.27,0,.52-.1.76-.31l.46.68c-.38.36-.84.54-1.38.54s-.93-.15-1.21-.46-.42-.75-.42-1.33v-2.46h-.88v-.88Z"/><path class="cls-11" d="M259.36,287.07c0-.51.11-.97.32-1.37.21-.4.51-.71.88-.94.37-.23.8-.34,1.29-.34s.92.12,1.29.35c.37.23.66.56.86.97s.31.9.31,1.45v.2h-3.88c.04.43.21.78.5,1.03s.67.38,1.15.38c.58,0,1.09-.2,1.55-.6l.54.67c-.26.26-.57.47-.95.62-.38.15-.78.22-1.2.22-.53,0-.99-.11-1.39-.33s-.71-.53-.94-.93-.34-.85-.34-1.38ZM262.82,285.69c-.24-.23-.55-.34-.94-.34s-.73.12-.99.35-.41.54-.46.94h2.8c-.04-.4-.18-.71-.42-.94Z"/><path class="cls-11" d="M265.33,284.58h1.01l.04.74c.15-.29.37-.51.65-.66.29-.16.61-.24.98-.24.77,0,1.28.33,1.54.98.16-.31.4-.56.7-.73.3-.17.66-.26,1.07-.26.59,0,1.05.18,1.38.55.33.37.49.89.49,1.56v3.03h-1.08v-2.9c0-.42-.09-.74-.26-.96s-.43-.33-.75-.33c-.39,0-.71.15-.94.44-.23.29-.35.68-.35,1.18v2.57h-1.08v-2.9c0-.86-.35-1.28-1.04-1.28-.39,0-.7.15-.94.44-.23.29-.35.68-.35,1.18v2.57h-1.08v-4.98Z"/><path class="cls-11" d="M274.17,288.11c0-.54.2-.96.59-1.26.4-.31.96-.46,1.7-.46.33,0,.69.03,1.07.08v-.18c0-.66-.41-.98-1.22-.98-.56,0-1.05.15-1.45.46l-.47-.73c.56-.41,1.23-.62,2-.62.69,0,1.23.16,1.61.49.38.33.57.78.57,1.35v3.3h-.95l-.04-.64c-.16.25-.39.44-.68.58s-.62.21-.99.21c-.52,0-.94-.14-1.26-.43s-.48-.68-.48-1.16ZM275.22,288.06c0,.26.08.47.25.61s.4.21.7.21c.26,0,.49-.05.69-.15s.37-.24.49-.41.18-.36.18-.56v-.56c-.36-.06-.67-.08-.95-.08-.44,0-.77.08-1.01.23-.24.16-.35.39-.35.7Z"/><path d="M228.97,304.95c0-.38.07-.73.21-1.06.14-.33.37-.66.68-.99.32-.34.75-.71,1.29-1.13l.39-.3c.49-.38.83-.7,1.03-.95.19-.25.29-.52.29-.81,0-.36-.12-.65-.37-.86-.25-.21-.58-.31-1.01-.31-.69,0-1.27.33-1.73.97l-.91-.71c.62-.97,1.53-1.46,2.75-1.46.8,0,1.43.21,1.9.62.47.41.71.97.71,1.67,0,.33-.06.63-.18.91s-.31.56-.58.84c-.27.29-.63.6-1.09.95l-.38.27c-.4.31-.71.58-.94.79-.23.22-.39.42-.48.6-.1.18-.15.38-.17.58h3.88v1.16h-5.31v-.79Z"/><path d="M239.95,303.17c0-.49-.16-.87-.47-1.14-.31-.27-.74-.41-1.29-.41-.46,0-.9.11-1.31.34l-.62-.48.73-3.92h4.11v1.14h-3.14l-.42,2.07c.31-.13.67-.2,1.09-.2.82,0,1.47.23,1.95.7.48.46.71,1.09.71,1.89,0,.85-.28,1.53-.83,2.03-.55.51-1.3.76-2.25.76-1,0-1.86-.32-2.57-.95l.71-.96c.59.48,1.2.71,1.82.71.55,0,.98-.14,1.3-.44.32-.29.48-.67.48-1.15Z"/><path d="M242.49,299.77c0-.73.18-1.3.54-1.72.36-.42.86-.63,1.48-.63s1.12.21,1.48.63c.36.42.54.99.54,1.71s-.18,1.3-.54,1.72c-.36.42-.86.63-1.48.63s-1.12-.21-1.48-.63c-.36-.42-.54-.99-.54-1.71ZM243.54,299.77c0,.45.09.81.26,1.08.17.27.41.4.71.4s.54-.13.71-.4c.17-.26.26-.63.26-1.1s-.09-.82-.26-1.08c-.17-.26-.41-.4-.71-.4s-.54.13-.71.4c-.17.27-.26.63-.26,1.09ZM249.68,297.55h1.21l-5.24,8.19h-1.21l5.24-8.19ZM248.77,303.53c0-.73.18-1.3.55-1.72.36-.42.86-.63,1.48-.63s1.12.21,1.48.63c.36.42.55.99.55,1.71s-.18,1.3-.55,1.72c-.36.42-.86.63-1.48.63s-1.12-.21-1.48-.63c-.36-.42-.55-.99-.55-1.71ZM249.82,303.53c0,.45.09.81.26,1.08.17.27.41.4.71.4s.54-.13.71-.4c.17-.26.26-.63.26-1.1s-.09-.82-.26-1.08c-.17-.26-.41-.4-.71-.4s-.54.13-.71.4c-.17.27-.26.63-.26,1.09Z"/><path class="cls-11" d="M58.79,282.42h4.58v1.01h-3.44v1.96h2.6v.97h-2.6v2.19h3.69v1.01h-4.84v-7.14Z"/><path class="cls-11" d="M64.72,284.58h1.01l.05.81c.17-.29.39-.51.67-.66.27-.16.58-.24.92-.24.19,0,.37.03.56.08l-.2.99c-.15-.05-.31-.08-.47-.08-.41,0-.76.14-1.03.41-.27.27-.41.63-.41,1.07v2.59h-1.08v-4.98Z"/><path class="cls-11" d="M68.68,284.58h1.01l.05.81c.17-.29.39-.51.67-.66.27-.16.58-.24.92-.24.19,0,.37.03.56.08l-.2.99c-.15-.05-.31-.08-.47-.08-.41,0-.76.14-1.03.41-.27.27-.41.63-.41,1.07v2.59h-1.08v-4.98Z"/><path class="cls-11" d="M72.23,287.05c0-.5.12-.95.35-1.34.23-.4.55-.71.95-.94.4-.23.85-.35,1.36-.35s.96.12,1.36.35c.4.23.72.55.95.94.23.4.35.84.35,1.34s-.12.96-.35,1.37c-.23.4-.55.72-.95.95s-.86.34-1.36.34-.96-.11-1.36-.34c-.4-.23-.72-.54-.95-.95-.23-.4-.35-.86-.35-1.37ZM73.33,287.06c0,.5.14.91.43,1.22.29.32.66.48,1.12.48.3,0,.57-.07.8-.22s.42-.35.56-.61c.13-.26.2-.55.2-.88s-.07-.63-.2-.88c-.13-.25-.32-.45-.55-.6s-.5-.22-.8-.22c-.46,0-.83.16-1.12.48-.29.32-.44.73-.44,1.23Z"/><path class="cls-11" d="M78.59,284.58h1.01l.05.81c.17-.29.39-.51.67-.66.27-.16.58-.24.92-.24.19,0,.37.03.56.08l-.2.99c-.15-.05-.31-.08-.47-.08-.41,0-.76.14-1.03.41-.27.27-.41.63-.41,1.07v2.59h-1.08v-4.98Z"/><path class="cls-11" d="M84.32,285.98c0-.53.09-1.02.28-1.47s.44-.85.78-1.19c.33-.34.72-.6,1.17-.79.45-.19.93-.28,1.44-.28s1,.09,1.45.28c.45.19.84.46,1.17.8.33.34.6.74.78,1.19s.28.94.28,1.47-.09,1.01-.28,1.46-.44.85-.78,1.19c-.33.34-.72.61-1.17.8-.45.19-.93.28-1.45.28s-1-.09-1.45-.28c-.45-.19-.83-.46-1.17-.8-.33-.34-.59-.74-.78-1.19s-.28-.94-.28-1.47ZM85.53,285.98c0,.52.11.99.32,1.39.21.41.51.73.88.96s.79.35,1.26.35.9-.12,1.27-.35c.37-.24.66-.56.87-.96.21-.41.32-.87.32-1.38s-.11-.99-.32-1.39c-.21-.41-.5-.73-.87-.96-.37-.24-.79-.35-1.27-.35s-.89.12-1.26.35-.66.55-.88.96c-.21.4-.32.87-.32,1.39Z"/><path class="cls-11" d="M92.8,284.58h1.01l.04.6c.33-.51.87-.76,1.59-.76.45,0,.84.11,1.18.32.34.21.6.5.79.88.19.38.28.82.28,1.32,0,.54-.11,1.01-.33,1.43-.22.42-.52.75-.91.98-.39.24-.83.36-1.33.36-.44,0-.85-.11-1.25-.33v2.32h-1.08v-7.12ZM96.61,287c0-.49-.12-.89-.37-1.18-.25-.29-.58-.44-1-.44-.39,0-.72.13-.97.39-.25.26-.38.6-.38,1.02v1.65c.35.23.72.34,1.12.34.49,0,.87-.16,1.16-.48.29-.32.43-.75.43-1.29Z"/><path class="cls-11" d="M98.53,287.07c0-.51.11-.97.32-1.37.21-.4.51-.71.88-.94.38-.23.8-.34,1.29-.34s.92.12,1.29.35c.37.23.65.56.86.97s.31.9.31,1.45v.2h-3.88c.04.43.21.78.5,1.03s.67.38,1.15.38c.58,0,1.1-.2,1.55-.6l.54.67c-.26.26-.58.47-.95.62s-.78.22-1.2.22c-.53,0-.99-.11-1.39-.33-.4-.22-.71-.53-.94-.93-.22-.4-.34-.85-.34-1.38ZM101.99,285.69c-.24-.23-.55-.34-.94-.34s-.73.12-.98.35-.41.54-.46.94h2.8c-.04-.4-.18-.71-.42-.94Z"/><path class="cls-11" d="M104.5,284.58h1.01l.05.81c.17-.29.39-.51.67-.66.27-.16.58-.24.92-.24.19,0,.37.03.56.08l-.2.99c-.15-.05-.31-.08-.47-.08-.41,0-.76.14-1.03.41-.27.27-.41.63-.41,1.07v2.59h-1.08v-4.98Z"/><path class="cls-11" d="M108.04,288.11c0-.54.2-.96.59-1.26.4-.31.96-.46,1.7-.46.33,0,.69.03,1.07.08v-.18c0-.66-.41-.98-1.22-.98-.56,0-1.04.15-1.45.46l-.47-.73c.56-.41,1.23-.62,2-.62.69,0,1.23.16,1.61.49s.57.78.57,1.35v3.3h-.95l-.04-.64c-.17.25-.39.44-.68.58-.29.14-.62.21-.99.21-.52,0-.94-.14-1.26-.43-.32-.29-.48-.68-.48-1.16ZM109.09,288.06c0,.26.08.47.25.61.17.14.4.21.7.21.26,0,.49-.05.69-.15.2-.1.37-.24.49-.41.12-.17.18-.36.18-.56v-.56c-.36-.06-.67-.08-.95-.08-.44,0-.77.08-1.01.23-.24.16-.35.39-.35.7Z"/><path class="cls-11" d="M113.25,284.58h.88v-1.64h1.08v1.64h1.43v.88h-1.43v2.44c0,.31.06.54.17.69s.29.21.54.21c.27,0,.52-.1.76-.31l.46.68c-.38.36-.84.54-1.38.54s-.93-.15-1.21-.46-.42-.75-.42-1.33v-2.46h-.88v-.88Z"/><path class="cls-11" d="M117.81,282.6h1.18v1.11h-1.18v-1.11ZM117.85,284.58h1.08v4.98h-1.08v-4.98Z"/><path class="cls-11" d="M123.83,284.58h1.16l-2.14,4.98h-1.04l-2.14-4.98h1.21l1.49,3.78,1.47-3.78Z"/><path class="cls-11" d="M125.18,287.05c0-.5.12-.95.35-1.34.23-.4.55-.71.95-.94.4-.23.85-.35,1.36-.35s.96.12,1.37.35c.4.23.72.55.95.94.23.4.35.84.35,1.34s-.12.96-.35,1.37c-.23.4-.55.72-.95.95-.4.23-.86.34-1.37.34s-.96-.11-1.36-.34-.72-.54-.95-.95c-.23-.4-.35-.86-.35-1.37ZM126.29,287.06c0,.5.14.91.43,1.22.29.32.66.48,1.12.48.3,0,.57-.07.8-.22s.42-.35.56-.61c.14-.26.2-.55.2-.88s-.07-.63-.2-.88c-.13-.25-.32-.45-.55-.6s-.5-.22-.8-.22c-.46,0-.83.16-1.12.48-.29.32-.44.73-.44,1.23Z"/><path d="M82.84,304.95c0-.38.07-.73.21-1.06.14-.33.37-.66.68-.99.32-.34.75-.71,1.29-1.13l.39-.3c.49-.38.83-.7,1.03-.95.19-.25.29-.52.29-.81,0-.36-.12-.65-.37-.86-.25-.21-.58-.31-1.01-.31-.69,0-1.27.33-1.73.97l-.91-.71c.62-.97,1.53-1.46,2.75-1.46.8,0,1.43.21,1.9.62.47.41.71.97.71,1.67,0,.33-.06.63-.18.91s-.31.56-.58.84c-.27.29-.63.6-1.09.95l-.38.27c-.4.31-.71.58-.94.79-.23.22-.39.42-.48.6-.1.18-.15.38-.17.58h3.88v1.16h-5.31v-.79Z"/><path d="M93.82,303.17c0-.49-.16-.87-.47-1.14-.31-.27-.74-.41-1.29-.41-.46,0-.9.11-1.31.34l-.62-.48.73-3.92h4.11v1.14h-3.14l-.42,2.07c.31-.13.67-.2,1.09-.2.82,0,1.47.23,1.95.7.48.46.71,1.09.71,1.89,0,.85-.28,1.53-.83,2.03-.55.51-1.3.76-2.25.76-1,0-1.86-.32-2.57-.95l.71-.96c.59.48,1.2.71,1.82.71.55,0,.98-.14,1.3-.44.32-.29.48-.67.48-1.15Z"/><path d="M96.36,299.77c0-.73.18-1.3.54-1.72.36-.42.86-.63,1.48-.63s1.12.21,1.48.63c.36.42.54.99.54,1.71s-.18,1.3-.54,1.72c-.36.42-.86.63-1.48.63s-1.12-.21-1.48-.63c-.36-.42-.54-.99-.54-1.71ZM97.42,299.77c0,.45.09.81.26,1.08.17.27.41.4.71.4s.54-.13.71-.4c.17-.26.26-.63.26-1.1s-.09-.82-.26-1.08c-.17-.26-.41-.4-.71-.4s-.54.13-.71.4c-.17.27-.26.63-.26,1.09ZM103.55,297.55h1.21l-5.24,8.19h-1.21l5.24-8.19ZM102.64,303.53c0-.73.18-1.3.55-1.72.36-.42.86-.63,1.48-.63s1.12.21,1.48.63c.36.42.55.99.55,1.71s-.18,1.3-.55,1.72c-.36.42-.86.63-1.48.63s-1.12-.21-1.48-.63c-.36-.42-.55-.99-.55-1.71ZM103.69,303.53c0,.45.09.81.26,1.08.17.27.41.4.71.4s.54-.13.71-.4c.17-.26.26-.63.26-1.1s-.09-.82-.26-1.08c-.17-.26-.41-.4-.71-.4s-.54.13-.71.4c-.17.27-.26.63-.26,1.09Z"/><path d="M54.14,65.15h-4.81v-1.96h11.82v1.96h-4.81v11.8h-2.21v-11.8Z"/><path d="M62.81,63.54h2.27v2.15h-2.27v-2.15ZM62.89,67.36h2.08v9.6h-2.08v-9.6Z"/><path d="M67.47,67.36h1.94l.08,1.16c.65-.98,1.67-1.46,3.08-1.46.87,0,1.63.2,2.28.61.65.41,1.16.97,1.53,1.7.37.73.55,1.58.55,2.54,0,1.03-.21,1.95-.64,2.76-.43.8-1.01,1.44-1.75,1.9s-1.6.69-2.56.69c-.84,0-1.64-.21-2.42-.64v4.48h-2.08v-13.72ZM74.8,72.02c0-.95-.24-1.71-.71-2.28s-1.12-.86-1.93-.86c-.76,0-1.38.25-1.87.75-.49.5-.73,1.16-.73,1.97v3.18c.67.44,1.4.66,2.17.66.94,0,1.68-.31,2.24-.93.56-.62.84-1.45.84-2.5Z"/><path d="M78.45,72.12c0-.96.22-1.83.67-2.59.45-.76,1.06-1.37,1.83-1.82.77-.45,1.64-.67,2.62-.67s1.85.22,2.63.67c.78.45,1.39,1.05,1.84,1.82.45.76.67,1.63.67,2.59s-.22,1.85-.67,2.63c-.45.78-1.06,1.39-1.84,1.83-.78.44-1.65.66-2.63.66s-1.85-.22-2.62-.66c-.77-.44-1.38-1.05-1.83-1.83s-.67-1.65-.67-2.63ZM80.58,72.15c0,.96.28,1.75.84,2.36.56.61,1.28.92,2.16.92.58,0,1.09-.14,1.55-.42.45-.28.81-.67,1.07-1.17.26-.5.39-1.06.39-1.69s-.13-1.21-.38-1.7-.61-.87-1.06-1.16c-.45-.28-.97-.42-1.55-.42-.88,0-1.6.31-2.17.92-.56.61-.85,1.4-.85,2.36Z"/><path d="M93.91,72.41c0-1.05.22-1.97.65-2.78.43-.81,1.03-1.44,1.78-1.9.75-.46,1.6-.69,2.55-.69.84,0,1.64.21,2.39.64v-4.5h2.08v13.76h-1.94l-.08-1.22c-.32.48-.74.85-1.27,1.11-.53.26-1.13.39-1.81.39-.87,0-1.63-.2-2.28-.61s-1.16-.97-1.53-1.69c-.37-.72-.55-1.56-.55-2.53ZM96.04,72.27c0,.96.24,1.73.72,2.3.48.57,1.12.86,1.92.86s1.4-.25,1.88-.76.72-1.16.72-1.96v-3.16c-.67-.45-1.4-.68-2.17-.68-.94,0-1.68.31-2.24.92-.56.61-.84,1.44-.84,2.49Z"/><path d="M105.42,72.17c0-.99.21-1.87.62-2.64.41-.77.98-1.38,1.7-1.82.72-.44,1.55-.66,2.49-.66s1.78.22,2.49.67c.71.45,1.26,1.07,1.66,1.88s.6,1.74.6,2.8v.39h-7.47c.08.84.4,1.5.96,1.98.56.48,1.3.72,2.22.72,1.11,0,2.11-.38,2.99-1.16l1.03,1.3c-.5.51-1.11.9-1.84,1.19-.73.28-1.5.42-2.31.42-1.02,0-1.91-.21-2.68-.64-.77-.43-1.37-1.02-1.81-1.79-.43-.76-.65-1.65-.65-2.65ZM112.1,69.5c-.46-.44-1.06-.66-1.81-.66s-1.4.22-1.9.67c-.5.45-.79,1.05-.89,1.81h5.41c-.08-.77-.35-1.38-.82-1.82Z"/><path d="M120.9,63.19h8.83v1.94h-6.62v3.78h5.01v1.88h-5.01v4.23h7.12v1.94h-9.33v-13.76Z"/><path d="M132.33,67.36h1.94l.1,1.57c.33-.55.76-.98,1.29-1.28.53-.3,1.12-.45,1.76-.45.36,0,.71.06,1.07.17l-.39,1.9c-.29-.1-.59-.14-.91-.14-.8,0-1.46.26-1.99.78s-.79,1.21-.79,2.06v4.99h-2.08v-9.6Z"/><path d="M139.97,67.36h1.94l.1,1.57c.33-.55.76-.98,1.29-1.28.53-.3,1.12-.45,1.76-.45.36,0,.72.06,1.07.17l-.39,1.9c-.29-.1-.59-.14-.91-.14-.8,0-1.46.26-1.99.78-.53.52-.79,1.21-.79,2.06v4.99h-2.08v-9.6Z"/><path d="M146.82,72.12c0-.96.22-1.83.67-2.59.45-.76,1.06-1.37,1.83-1.82.77-.45,1.64-.67,2.62-.67s1.85.22,2.63.67c.78.45,1.39,1.05,1.84,1.82.45.76.67,1.63.67,2.59s-.22,1.85-.67,2.63c-.45.78-1.06,1.39-1.84,1.83-.78.44-1.65.66-2.63.66s-1.85-.22-2.62-.66c-.77-.44-1.38-1.05-1.83-1.83s-.67-1.65-.67-2.63ZM148.95,72.15c0,.96.28,1.75.84,2.36.56.61,1.28.92,2.16.92.58,0,1.09-.14,1.55-.42.45-.28.81-.67,1.07-1.17.26-.5.39-1.06.39-1.69s-.13-1.21-.38-1.7-.61-.87-1.06-1.16c-.45-.28-.97-.42-1.55-.42-.88,0-1.6.31-2.17.92-.56.61-.85,1.4-.85,2.36Z"/><path d="M159.08,67.36h1.94l.1,1.57c.33-.55.76-.98,1.29-1.28.53-.3,1.12-.45,1.76-.45.36,0,.72.06,1.07.17l-.39,1.9c-.29-.1-.59-.14-.91-.14-.8,0-1.46.26-1.99.78-.53.52-.79,1.21-.79,2.06v4.99h-2.08v-9.6Z"/><path d="M165.99,72.17c0-.99.21-1.87.62-2.64.41-.77.98-1.38,1.7-1.82.72-.44,1.55-.66,2.49-.66s1.78.22,2.49.67c.71.45,1.26,1.07,1.66,1.88.4.8.6,1.74.6,2.8v.39h-7.47c.08.84.4,1.5.96,1.98.56.48,1.3.72,2.22.72,1.11,0,2.11-.38,2.99-1.16l1.03,1.3c-.5.51-1.11.9-1.84,1.19s-1.5.42-2.31.42c-1.02,0-1.91-.21-2.68-.64-.77-.43-1.37-1.02-1.81-1.79-.43-.76-.65-1.65-.65-2.65ZM172.67,69.5c-.46-.44-1.06-.66-1.81-.66s-1.4.22-1.9.67c-.5.45-.79,1.05-.89,1.81h5.41c-.08-.77-.35-1.38-.81-1.82Z"/><path d="M183.12,74.33c0-.36-.16-.64-.46-.85-.31-.21-.85-.39-1.62-.54l-.68-.12c-.99-.19-1.73-.53-2.22-1.01-.49-.48-.73-1.07-.73-1.77,0-.91.36-1.63,1.07-2.18.72-.54,1.68-.81,2.89-.81,1.4,0,2.59.41,3.55,1.22l-.97,1.4c-.78-.63-1.68-.95-2.68-.95-1.22,0-1.84.39-1.84,1.16,0,.34.14.61.42.79.28.19.77.35,1.48.48l.7.14c1.1.22,1.9.57,2.4,1.04.5.47.75,1.08.75,1.81,0,.99-.37,1.75-1.11,2.29-.74.54-1.75.8-3.01.8-.84,0-1.62-.13-2.33-.38-.72-.25-1.31-.61-1.77-1.06l1.11-1.38c.4.37.85.66,1.36.86s1.07.3,1.67.3c.65,0,1.15-.11,1.5-.32.35-.21.53-.52.53-.92Z"/><path d="M948.47,103.14h-4.46v-2.43h4.46v-4.38h2.46v4.38h4.46v2.43h-4.46v4.38h-2.46v-4.38Z"/></svg>