<?xml version="1.0" encoding="UTF-8"?><svg id="PROJECT-MANAGEMENT" xmlns="http://www.w3.org/2000/svg" xmlns:xlink="http://www.w3.org/1999/xlink" viewBox="0 0 691 457"><defs><style>.cls-1,.cls-2{stroke:#f2edea;}.cls-1,.cls-2,.cls-3,.cls-4,.cls-5{fill:none;stroke-miterlimit:10;}.cls-1,.cls-2,.cls-5{stroke-width:1.8px;}.cls-6{fill:#00a689;}.cls-2,.cls-3,.cls-4,.cls-5{stroke-linecap:round;}.cls-7{fill:#b5ecfd;filter:url(#drop-shadow-4);}.cls-8{filter:url(#drop-shadow-5);}.cls-8,.cls-9{fill:#03bef2;}.cls-3{stroke-width:1.39px;}.cls-3,.cls-4,.cls-5{stroke:#000;}.cls-4{stroke-width:1.64px;}.cls-10{filter:url(#drop-shadow-1);}.cls-10,.cls-11,.cls-12{fill:#fff;}.cls-11{filter:url(#drop-shadow-2);}.cls-12{filter:url(#drop-shadow-6);}.cls-13{fill:#ef7b57;}.cls-14{fill:#f1ece9;}.cls-15{fill:#dcf3fd;}.cls-16{fill:#74e1ff;filter:url(#drop-shadow-3);}</style><filter id="drop-shadow-1" x="26.02" y="31.02" width="522" height="96" filterUnits="userSpaceOnUse"><feOffset dx="12.59" dy="12.59"/><feGaussianBlur result="blur" stdDeviation="8.99"/><feFlood flood-color="#888" flood-opacity=".3"/><feComposite in2="blur" operator="in"/><feComposite in="SourceGraphic"/></filter><filter id="drop-shadow-2" x="24.02" y="80.02" width="526" height="252" filterUnits="userSpaceOnUse"><feOffset dx="12.59" dy="12.59"/><feGaussianBlur result="blur-2" stdDeviation="8.99"/><feFlood flood-color="#888" flood-opacity=".3"/><feComposite in2="blur-2" operator="in"/><feComposite in="SourceGraphic"/></filter><filter id="drop-shadow-3" x="50.02" y="263.02" width="339" height="95" filterUnits="userSpaceOnUse"><feOffset dx="12.59" dy="12.59"/><feGaussianBlur result="blur-3" stdDeviation="8.99"/><feFlood flood-color="#888" flood-opacity=".3"/><feComposite in2="blur-3" operator="in"/><feComposite in="SourceGraphic"/></filter><filter id="drop-shadow-4" x="17.02" y="309.02" width="254" height="95" filterUnits="userSpaceOnUse"><feOffset dx="12.59" dy="12.59"/><feGaussianBlur result="blur-4" stdDeviation="8.99"/><feFlood flood-color="#888" flood-opacity=".3"/><feComposite in2="blur-4" operator="in"/><feComposite in="SourceGraphic"/></filter><filter id="drop-shadow-5" x="81.02" y="355.02" width="267" height="95" filterUnits="userSpaceOnUse"><feOffset dx="12.59" dy="12.59"/><feGaussianBlur result="blur-5" stdDeviation="8.99"/><feFlood flood-color="#888" flood-opacity=".3"/><feComposite in2="blur-5" operator="in"/><feComposite in="SourceGraphic"/></filter><filter id="drop-shadow-6" x="386.02" y="89.02" width="313" height="362" filterUnits="userSpaceOnUse"><feOffset dx="12.59" dy="12.59"/><feGaussianBlur result="blur-6" stdDeviation="8.99"/><feFlood flood-color="#888" flood-opacity=".3"/><feComposite in2="blur-6" operator="in"/><feComposite in="SourceGraphic"/></filter></defs><rect class="cls-10" x="40.65" y="45.88" width="467.1" height="40.86" rx="5.37" ry="5.37"/><path d="M62.15,62.36h3.4c1.04,0,1.86.26,2.45.79s.89,1.25.89,2.17-.3,1.66-.89,2.2-1.39.81-2.4.81h-1.66v3.48h-1.8v-9.45ZM67.07,65.35c0-.47-.14-.84-.43-1.1-.29-.26-.69-.4-1.21-.4h-1.47v2.99h1.47c.53,0,.93-.13,1.22-.39.28-.26.43-.63.43-1.1Z"/><path d="M70.27,65.2h1.59l.08,1.03c.23-.36.52-.64.87-.84s.74-.3,1.17-.3c.13,0,.26,0,.38.02s.24.04.34.08l-.25,1.54c-.1-.05-.21-.08-.33-.09s-.22-.02-.33-.02c-.52,0-.95.17-1.29.52-.34.34-.51.8-.51,1.35v3.31h-1.73v-6.61Z"/><path d="M75.11,68.5c0-.68.16-1.28.47-1.81s.74-.94,1.27-1.25c.54-.3,1.15-.45,1.83-.45s1.29.15,1.83.45c.54.3.96.72,1.27,1.25s.47,1.13.47,1.81-.16,1.27-.47,1.81c-.31.53-.74.95-1.27,1.26-.54.31-1.15.46-1.83.46s-1.29-.15-1.83-.46c-.54-.31-.96-.72-1.27-1.25s-.47-1.13-.47-1.81ZM76.84,68.51c0,.59.17,1.08.52,1.45.34.37.79.56,1.32.56s.97-.19,1.31-.56c.34-.37.52-.86.52-1.47s-.17-1.08-.51-1.45c-.34-.37-.78-.56-1.32-.56s-.98.19-1.32.56c-.34.37-.52.86-.52,1.47Z"/><path d="M87.93,65.2h1.83l-3.04,7.26c-.37.88-.74,1.5-1.12,1.85s-.85.54-1.42.54c-.59,0-1.13-.17-1.61-.51l.62-1.2c.29.2.57.3.84.3.24,0,.45-.09.63-.26.18-.17.37-.49.54-.94l.21-.52-2.95-6.51h1.93l1.84,4.73,1.7-4.73Z"/><path d="M90.06,68.54c0-.7.14-1.31.43-1.85.29-.53.69-.95,1.2-1.25.51-.3,1.09-.45,1.74-.45s1.23.15,1.72.46.88.74,1.16,1.29.42,1.2.42,1.93v.35h-4.97c.07.5.28.89.63,1.18s.82.42,1.39.42c.74,0,1.41-.25,2.01-.74l.75,1.08c-.34.34-.76.6-1.27.79-.51.18-1.05.28-1.62.28-.72,0-1.35-.14-1.89-.43-.54-.29-.96-.69-1.26-1.22s-.45-1.13-.45-1.83ZM94.57,66.83c-.28-.26-.65-.4-1.09-.4s-.84.13-1.15.4-.49.63-.55,1.08h3.3c-.06-.46-.23-.83-.51-1.09Z"/><path d="M97.65,68.52c0-.69.16-1.3.47-1.83.32-.53.75-.95,1.3-1.25s1.17-.46,1.85-.46c1.02,0,1.87.37,2.55,1.1l-.96,1.09c-.41-.46-.92-.69-1.53-.69-.56,0-1.02.19-1.38.57-.36.38-.55.86-.55,1.46s.18,1.07.55,1.44c.36.38.83.57,1.39.57.62,0,1.15-.24,1.59-.72l.93,1.12c-.66.74-1.54,1.1-2.63,1.1-.69,0-1.31-.15-1.85-.45-.54-.3-.97-.71-1.27-1.24-.31-.53-.46-1.13-.46-1.81Z"/><path d="M104.38,65.2h1.12v-2.17h1.73v2.17h1.81v1.36h-1.81v2.96c0,.73.29,1.09.88,1.09.33,0,.64-.13.93-.38l.65,1.1c-.52.46-1.15.69-1.9.69s-1.31-.21-1.71-.62c-.39-.42-.59-1.02-.59-1.83v-3.02h-1.12v-1.36Z"/><path d="M109.96,68.5c0-.68.16-1.28.47-1.81s.74-.94,1.27-1.25c.54-.3,1.15-.45,1.83-.45s1.29.15,1.83.45c.54.3.96.72,1.27,1.25s.47,1.13.47,1.81-.16,1.27-.47,1.81c-.31.53-.74.95-1.27,1.26-.54.31-1.15.46-1.83.46s-1.29-.15-1.83-.46c-.54-.31-.96-.72-1.27-1.25s-.47-1.13-.47-1.81ZM111.69,68.51c0,.59.17,1.08.52,1.45.34.37.79.56,1.32.56s.97-.19,1.31-.56c.34-.37.52-.86.52-1.47s-.17-1.08-.51-1.45c-.34-.37-.78-.56-1.32-.56s-.98.19-1.32.56c-.34.37-.52.86-.52,1.47Z"/><path d="M212.33,62.36h6.25v1.59h-4.43v2.25h3.34v1.5h-3.34v2.52h4.77v1.59h-6.58v-9.45Z"/><path d="M224.01,70.01c0-.23-.1-.4-.29-.53-.19-.13-.54-.24-1.04-.33l-.47-.1c-.69-.14-1.2-.38-1.53-.72s-.5-.75-.5-1.23c0-.64.26-1.15.77-1.54.51-.38,1.21-.57,2.07-.57.96,0,1.78.27,2.46.82l-.68,1.13c-.26-.2-.55-.35-.86-.46-.31-.11-.64-.16-.98-.16-.76,0-1.13.22-1.13.65,0,.21.08.37.25.47.17.11.47.21.91.29l.51.11c.76.15,1.32.4,1.66.74s.52.76.52,1.26c0,.72-.27,1.26-.82,1.63-.55.37-1.27.55-2.15.55-.59,0-1.13-.09-1.64-.26-.51-.17-.92-.41-1.24-.71l.81-1.16c.3.25.63.44.98.59.35.15.74.22,1.16.22.81,0,1.22-.23,1.22-.68Z"/><path d="M226.45,65.2h1.12v-2.17h1.73v2.17h1.81v1.36h-1.81v2.96c0,.73.29,1.09.88,1.09.33,0,.64-.13.93-.38l.65,1.1c-.52.46-1.15.69-1.9.69s-1.31-.21-1.71-.62c-.39-.42-.59-1.02-.59-1.83v-3.02h-1.12v-1.36Z"/><path d="M232.28,69.93c0-.73.26-1.3.79-1.71s1.29-.62,2.29-.62c.19,0,.39,0,.61.02s.44.04.68.08v-.18c0-.78-.51-1.18-1.53-1.18-.72,0-1.34.19-1.87.58l-.68-1.12c.76-.55,1.68-.82,2.73-.82.96,0,1.71.22,2.23.67.52.44.79,1.07.79,1.87v4.29h-1.52l-.07-.78c-.22.31-.51.55-.88.73-.37.17-.8.26-1.29.26-.68,0-1.23-.19-1.65-.57-.42-.38-.63-.89-.63-1.52ZM233.92,69.76c0,.32.1.56.3.73.2.17.48.25.84.25.44,0,.82-.12,1.12-.38.3-.25.45-.55.45-.91v-.68c-.4-.07-.76-.1-1.09-.1-.52,0-.92.09-1.2.27s-.42.45-.42.82Z"/><path d="M239.3,65.2h1.12v-2.17h1.73v2.17h1.81v1.36h-1.81v2.96c0,.73.29,1.09.88,1.09.33,0,.64-.13.93-.38l.65,1.1c-.52.46-1.15.69-1.9.69s-1.31-.21-1.71-.62c-.39-.42-.59-1.02-.59-1.83v-3.02h-1.12v-1.36Z"/><path d="M245.31,69.29v-4.09h1.73v3.77c0,.49.11.87.32,1.13s.52.4.91.4c.47,0,.85-.18,1.13-.54s.42-.84.42-1.44v-3.31h1.73v6.61h-1.57l-.08-.93c-.22.36-.52.64-.9.84-.38.2-.81.3-1.28.3-.76,0-1.35-.24-1.77-.72s-.64-1.15-.64-2.01Z"/><path d="M256.92,70.01c0-.23-.1-.4-.29-.53-.19-.13-.54-.24-1.04-.33l-.47-.1c-.69-.14-1.2-.38-1.53-.72s-.5-.75-.5-1.23c0-.64.26-1.15.77-1.54.51-.38,1.21-.57,2.07-.57.96,0,1.78.27,2.46.82l-.68,1.13c-.26-.2-.55-.35-.86-.46-.31-.11-.64-.16-.98-.16-.76,0-1.13.22-1.13.65,0,.21.08.37.25.47.17.11.47.21.91.29l.51.11c.76.15,1.32.4,1.66.74s.52.76.52,1.26c0,.72-.27,1.26-.82,1.63-.55.37-1.27.55-2.15.55-.59,0-1.13-.09-1.64-.26-.51-.17-.92-.41-1.24-.71l.81-1.16c.3.25.63.44.98.59.35.15.74.22,1.16.22.81,0,1.22-.23,1.22-.68Z"/><path d="M327.83,62.36h3.4c1.04,0,1.86.26,2.45.79s.89,1.25.89,2.17-.3,1.66-.89,2.2-1.39.81-2.4.81h-1.66v3.48h-1.8v-9.45ZM332.75,65.35c0-.47-.14-.84-.43-1.1-.29-.26-.69-.4-1.21-.4h-1.47v2.99h1.47c.53,0,.93-.13,1.22-.39.28-.26.43-.63.43-1.1Z"/><path d="M343.41,65.14l-2.34,4.08h-.92l-2.31-4.01-.27,6.6h-1.74l.44-9.45h1.76l2.63,4.6,2.63-4.6h1.74l.44,9.45h-1.81l-.25-6.67Z"/><path d="M402.91,62.36h6.23v1.61h-4.4v2.45h3.36v1.56h-3.36v3.82h-1.83v-9.45Z"/><path d="M409.33,68.54c0-.7.14-1.31.43-1.85.29-.53.69-.95,1.2-1.25.51-.3,1.09-.45,1.74-.45s1.23.15,1.72.46.88.74,1.16,1.29.42,1.2.42,1.93v.35h-4.97c.07.5.28.89.63,1.18s.82.42,1.39.42c.74,0,1.41-.25,2.01-.74l.75,1.08c-.34.34-.76.6-1.27.79-.51.18-1.05.28-1.62.28-.72,0-1.35-.14-1.89-.43-.54-.29-.96-.69-1.26-1.22s-.45-1.13-.45-1.83ZM413.84,66.83c-.28-.26-.65-.4-1.09-.4s-.84.13-1.15.4-.49.63-.55,1.08h3.3c-.06-.46-.23-.83-.51-1.09Z"/><path d="M416.92,68.52c0-.69.16-1.3.47-1.83.32-.53.75-.95,1.3-1.25s1.17-.46,1.85-.46c1.02,0,1.87.37,2.55,1.1l-.96,1.09c-.41-.46-.92-.69-1.53-.69-.56,0-1.02.19-1.38.57-.36.38-.55.86-.55,1.46s.18,1.07.55,1.44c.36.38.83.57,1.39.57.62,0,1.15-.24,1.59-.72l.93,1.12c-.66.74-1.54,1.1-2.63,1.1-.69,0-1.31-.15-1.85-.45-.54-.3-.97-.71-1.27-1.24-.31-.53-.46-1.13-.46-1.81Z"/><path d="M424.23,62.36h1.73v3.71c.22-.35.51-.62.89-.81.38-.19.8-.28,1.27-.28.76,0,1.35.24,1.77.72.42.48.64,1.15.64,2.01v4.09h-1.73v-3.79c0-1-.42-1.5-1.27-1.5-.48,0-.86.17-1.15.5-.28.34-.42.8-.42,1.38v3.41h-1.73v-9.45Z"/><path d="M431.75,69.93c0-.73.26-1.3.79-1.71s1.29-.62,2.29-.62c.19,0,.39,0,.61.02s.44.04.68.08v-.18c0-.78-.51-1.18-1.53-1.18-.72,0-1.34.19-1.87.58l-.68-1.12c.76-.55,1.68-.82,2.73-.82.96,0,1.71.22,2.23.67.52.44.79,1.07.79,1.87v4.29h-1.52l-.07-.78c-.22.31-.51.55-.88.73-.37.17-.8.26-1.29.26-.68,0-1.23-.19-1.65-.57-.42-.38-.63-.89-.63-1.52ZM433.39,69.76c0,.32.1.56.3.73.2.17.48.25.84.25.44,0,.82-.12,1.12-.38.3-.25.45-.55.45-.91v-.68c-.4-.07-.76-.1-1.09-.1-.52,0-.92.09-1.2.27s-.42.45-.42.82Z"/><path d="M441.52,68.69c0-.73.15-1.37.45-1.93s.7-.99,1.22-1.31c.51-.32,1.1-.47,1.75-.47.54,0,1.05.14,1.53.41v-3.03h1.73v9.45h-1.59l-.07-.82c-.21.33-.49.59-.85.76s-.77.27-1.23.27c-.58,0-1.09-.14-1.53-.42-.44-.28-.79-.67-1.03-1.17s-.37-1.08-.37-1.74ZM443.26,68.57c0,.6.15,1.08.44,1.43s.68.52,1.18.52.85-.16,1.15-.47c.29-.32.44-.73.44-1.24v-1.94c-.41-.25-.84-.38-1.3-.38-.58,0-1.04.19-1.38.56-.34.37-.52.88-.52,1.52Z"/><path d="M449.56,68.54c0-.7.14-1.31.43-1.85.29-.53.69-.95,1.2-1.25.51-.3,1.09-.45,1.74-.45s1.23.15,1.72.46.88.74,1.16,1.29.42,1.2.42,1.93v.35h-4.97c.07.5.28.89.63,1.18s.82.42,1.39.42c.74,0,1.41-.25,2.01-.74l.75,1.08c-.34.34-.76.6-1.27.79-.51.18-1.05.28-1.62.28-.72,0-1.35-.14-1.89-.43-.54-.29-.96-.69-1.26-1.22s-.45-1.13-.45-1.83ZM454.07,66.83c-.28-.26-.65-.4-1.09-.4s-.84.13-1.15.4-.49.63-.55,1.08h3.3c-.06-.46-.23-.83-.51-1.09Z"/><path d="M460.16,62.36h1.83v9.45h-1.83v-9.45Z"/><path d="M463.78,65.2h1.59l.08.91c.22-.35.52-.62.9-.82s.82-.3,1.31-.3c.76,0,1.36.24,1.78.72.42.48.64,1.15.64,2.01v4.09h-1.73v-3.79c0-1-.42-1.5-1.27-1.5-.48,0-.86.17-1.15.5-.28.34-.42.8-.42,1.38v3.41h-1.73v-6.61Z"/><path d="M471.6,62.51h1.83v1.63h-1.83v-1.63ZM471.66,65.2h1.73v6.61h-1.73v-6.61Z"/><path d="M474.67,68.52c0-.69.16-1.3.47-1.83.32-.53.75-.95,1.3-1.25s1.17-.46,1.85-.46c1.02,0,1.87.37,2.55,1.1l-.96,1.09c-.41-.46-.92-.69-1.53-.69-.56,0-1.02.19-1.38.57-.36.38-.55.86-.55,1.46s.18,1.07.55,1.44c.36.38.83.57,1.39.57.62,0,1.15-.24,1.59-.72l.93,1.12c-.66.74-1.54,1.1-2.63,1.1-.69,0-1.31-.15-1.85-.45-.54-.3-.97-.71-1.27-1.24-.31-.53-.46-1.13-.46-1.81Z"/><path d="M481.92,62.51h1.83v1.63h-1.83v-1.63ZM481.98,65.2h1.73v6.61h-1.73v-6.61Z"/><path d="M484.99,68.5c0-.68.16-1.28.47-1.81s.74-.94,1.27-1.25c.54-.3,1.15-.45,1.83-.45s1.29.15,1.83.45c.54.3.96.72,1.27,1.25s.47,1.13.47,1.81-.16,1.27-.47,1.81c-.31.53-.74.95-1.27,1.26-.54.31-1.15.46-1.83.46s-1.29-.15-1.83-.46c-.54-.31-.96-.72-1.27-1.25s-.47-1.13-.47-1.81ZM486.72,68.51c0,.59.17,1.08.52,1.45.34.37.79.56,1.32.56s.97-.19,1.31-.56c.34-.37.52-.86.52-1.47s-.17-1.08-.51-1.45c-.34-.37-.78-.56-1.32-.56s-.98.19-1.32.56c-.34.37-.52.86-.52,1.47Z"/><rect class="cls-11" x="39.12" y="95.06" width="470.5" height="196.63" rx="5.71" ry="5.71"/><line class="cls-1" x1="39.12" y1="143.57" x2="507.84" y2="143.57"/><line class="cls-1" x1="39.12" y1="192.68" x2="507.84" y2="192.68"/><line class="cls-1" x1="39.12" y1="241.39" x2="507.84" y2="241.39"/><path d="M61.42,112.43h3.07c1.63,0,2.9.41,3.8,1.23s1.35,1.97,1.35,3.46-.45,2.67-1.35,3.5c-.9.83-2.17,1.25-3.82,1.25h-3.06v-9.45ZM68.3,117.14c0-1.16-.33-2.05-.99-2.66-.66-.61-1.62-.92-2.88-.92h-1.74v7.18h1.77c1.25,0,2.2-.31,2.85-.93.66-.62.98-1.51.98-2.67Z"/><path d="M70.92,118.59c0-.68.14-1.28.42-1.81.28-.52.66-.93,1.15-1.23.49-.3,1.05-.45,1.69-.45s1.2.15,1.69.46c.48.31.86.73,1.13,1.28.27.55.4,1.18.4,1.91v.18h-5.27c.04.64.26,1.15.68,1.52.42.37.96.56,1.63.56.79,0,1.49-.28,2.1-.83l.68.72c-.35.38-.77.67-1.25.86s-1.01.3-1.56.3c-.68,0-1.28-.15-1.81-.44-.52-.29-.93-.7-1.23-1.23-.29-.52-.44-1.13-.44-1.82ZM75.56,116.66c-.35-.34-.8-.51-1.36-.51s-1.05.17-1.43.52-.59.8-.65,1.37h4.04c-.05-.58-.25-1.03-.6-1.37Z"/><path d="M82.74,120.09c0-.27-.12-.49-.35-.64-.23-.16-.62-.29-1.17-.39l-.45-.08c-1.35-.25-2.02-.88-2.02-1.87,0-.6.24-1.09.72-1.45.48-.36,1.11-.54,1.9-.54.97,0,1.77.28,2.39.85l-.65.82c-.51-.44-1.12-.67-1.84-.67-.43,0-.77.08-1.01.23-.24.16-.35.38-.35.66,0,.25.11.46.33.6.22.15.59.27,1.1.38l.45.08c.74.14,1.28.37,1.63.68.35.31.52.73.52,1.25,0,.64-.24,1.15-.73,1.52-.49.37-1.15.56-1.99.56-.58,0-1.1-.09-1.59-.26s-.88-.42-1.19-.74l.74-.79c.53.53,1.21.79,2.04.79.49,0,.87-.08,1.13-.25.26-.17.39-.41.39-.72Z"/><path d="M85.09,119.95c0-.7.26-1.25.78-1.65s1.26-.6,2.22-.6c.22,0,.46.01.73.04s.53.05.79.09v-.3c0-.93-.57-1.4-1.7-1.4-.76,0-1.4.21-1.94.62l-.57-.82c.72-.55,1.57-.82,2.56-.82.88,0,1.56.21,2.05.62s.73.99.73,1.73v4.42h-1.06l-.04-.88c-.23.34-.54.6-.93.79-.4.19-.83.28-1.3.28-.69,0-1.25-.19-1.67-.57s-.64-.9-.64-1.55ZM86.25,119.93c0,.38.12.67.37.88.25.21.58.31,1.01.31.37,0,.7-.08,1.01-.23.3-.15.54-.35.72-.59.17-.25.26-.51.26-.81v-.76c-.25-.05-.49-.08-.74-.1-.25-.02-.47-.03-.67-.03-.63,0-1.12.11-1.45.34-.34.23-.5.56-.5.99Z"/><path d="M92.48,115.3h1.12l.06,1.1c.24-.39.54-.68.91-.89.37-.21.77-.31,1.22-.31.27,0,.52.04.75.11l-.27,1.11c-.19-.07-.39-.1-.61-.1-.57,0-1.04.19-1.42.57-.38.38-.57.87-.57,1.47v3.51h-1.19v-6.57Z"/><path d="M97.6,115.3h1.12l.06,1.1c.24-.39.54-.68.91-.89.37-.21.77-.31,1.22-.31.27,0,.52.04.75.11l-.27,1.11c-.19-.07-.39-.1-.61-.1-.57,0-1.04.19-1.42.57-.38.38-.57.87-.57,1.47v3.51h-1.19v-6.57Z"/><path d="M102.17,118.58c0-.66.15-1.25.45-1.77s.72-.93,1.24-1.24,1.12-.46,1.78-.46,1.25.15,1.77.46c.52.31.93.72,1.24,1.24s.46,1.11.46,1.77-.15,1.25-.46,1.78c-.31.53-.72.95-1.24,1.25-.52.31-1.11.46-1.77.46s-1.25-.15-1.78-.46-.94-.72-1.24-1.25c-.3-.53-.45-1.12-.45-1.78ZM103.39,118.59c0,.47.1.89.29,1.26.19.37.46.66.8.86.34.21.73.31,1.16.31s.82-.1,1.15-.31c.33-.21.6-.5.8-.86s.3-.79.3-1.26-.1-.89-.29-1.26-.46-.66-.8-.86-.73-.31-1.16-.31-.82.1-1.16.31-.61.5-.8.86c-.19.37-.29.79-.29,1.26Z"/><path d="M110.57,112.43h1.19v9.45h-1.19v-9.45Z"/><path d="M113.54,112.43h1.19v9.45h-1.19v-9.45Z"/><path d="M116.19,118.58c0-.66.15-1.25.45-1.77s.72-.93,1.24-1.24,1.12-.46,1.78-.46,1.25.15,1.77.46c.52.31.93.72,1.24,1.24s.46,1.11.46,1.77-.15,1.25-.46,1.78c-.31.53-.72.95-1.24,1.25-.52.31-1.11.46-1.77.46s-1.25-.15-1.78-.46-.94-.72-1.24-1.25c-.3-.53-.45-1.12-.45-1.78ZM117.41,118.59c0,.47.1.89.29,1.26.19.37.46.66.8.86.34.21.73.31,1.16.31s.82-.1,1.15-.31c.33-.21.6-.5.8-.86s.3-.79.3-1.26-.1-.89-.29-1.26-.46-.66-.8-.86-.73-.31-1.16-.31-.82.1-1.16.31-.61.5-.8.86c-.19.37-.29.79-.29,1.26Z"/><path d="M61.42,161.83h1.27v9.45h-1.27v-9.45Z"/><path d="M64.69,164.71h1.12l.04.99c.21-.38.5-.67.88-.88.38-.21.82-.31,1.32-.31,1.04,0,1.73.45,2.07,1.34.21-.42.52-.75.93-.99.41-.24.89-.35,1.44-.35.78,0,1.39.25,1.83.74.43.49.65,1.18.65,2.08v3.95h-1.19v-3.88c0-.6-.13-1.06-.38-1.38s-.62-.47-1.09-.47c-.57,0-1.02.21-1.36.64s-.51,1-.51,1.71v3.38h-1.19v-3.88c0-.6-.13-1.06-.38-1.38s-.62-.47-1.1-.47c-.57,0-1.02.21-1.36.64s-.51,1-.51,1.71v3.38h-1.19v-6.57Z"/><path d="M76.69,164.71h1.12l.04.81c.44-.67,1.15-1,2.12-1,.6,0,1.13.14,1.59.42.45.28.81.67,1.06,1.16.25.5.38,1.07.38,1.73,0,.71-.15,1.34-.44,1.88-.29.55-.7.98-1.21,1.3s-1.1.47-1.76.47c-.59,0-1.16-.15-1.71-.45v3.09h-1.19v-9.4ZM81.79,167.89c0-.71-.18-1.27-.53-1.7s-.83-.64-1.44-.64c-.57,0-1.03.19-1.39.56-.36.37-.55.85-.55,1.44v2.37c.5.34,1.04.51,1.63.51.7,0,1.25-.23,1.66-.69s.62-1.07.62-1.85Z"/><path d="M84.47,161.83h1.19v9.45h-1.19v-9.45Z"/><path d="M87.12,167.99c0-.68.14-1.28.42-1.81.28-.52.66-.93,1.15-1.23.49-.3,1.05-.45,1.69-.45s1.2.15,1.69.46c.48.31.86.73,1.13,1.28.27.55.4,1.19.4,1.91v.18h-5.27c.04.64.26,1.15.68,1.52s.96.56,1.63.56c.79,0,1.49-.28,2.1-.84l.68.72c-.35.38-.77.67-1.25.86-.49.2-1.01.3-1.56.3-.68,0-1.28-.15-1.81-.44-.52-.29-.93-.7-1.23-1.22-.29-.52-.44-1.13-.44-1.82ZM91.76,166.07c-.35-.34-.8-.51-1.36-.51s-1.05.17-1.43.52-.59.8-.65,1.37h4.04c-.05-.58-.25-1.03-.6-1.37Z"/><path d="M95.02,164.71h1.12l.04.99c.21-.38.5-.67.88-.88.38-.21.82-.31,1.32-.31,1.04,0,1.73.45,2.07,1.34.21-.42.52-.75.93-.99.41-.24.89-.35,1.44-.35.78,0,1.39.25,1.83.74.43.49.65,1.18.65,2.08v3.95h-1.19v-3.88c0-.6-.13-1.06-.38-1.38s-.62-.47-1.09-.47c-.57,0-1.02.21-1.36.64s-.51,1-.51,1.71v3.38h-1.19v-3.88c0-.6-.13-1.06-.38-1.38s-.62-.47-1.1-.47c-.57,0-1.02.21-1.36.64s-.51,1-.51,1.71v3.38h-1.19v-6.57Z"/><path d="M106.7,167.99c0-.68.14-1.28.42-1.81.28-.52.66-.93,1.15-1.23.49-.3,1.05-.45,1.69-.45s1.2.15,1.69.46c.48.31.86.73,1.13,1.28.27.55.4,1.19.4,1.91v.18h-5.27c.04.64.26,1.15.68,1.52s.96.56,1.63.56c.79,0,1.49-.28,2.1-.84l.68.72c-.35.38-.77.67-1.25.86-.49.2-1.01.3-1.56.3-.68,0-1.28-.15-1.81-.44-.52-.29-.93-.7-1.23-1.22-.29-.52-.44-1.13-.44-1.82ZM111.34,166.07c-.35-.34-.8-.51-1.36-.51s-1.05.17-1.43.52-.59.8-.65,1.37h4.04c-.05-.58-.25-1.03-.6-1.37Z"/><path d="M114.6,164.71h1.12l.04.99c.24-.38.55-.67.95-.88.4-.21.85-.31,1.36-.31.78,0,1.39.25,1.83.74.43.49.65,1.17.65,2.05v3.98h-1.19v-3.88c0-.6-.14-1.06-.41-1.38s-.67-.47-1.18-.47c-.6,0-1.09.21-1.44.64s-.54,1-.54,1.71v3.38h-1.19v-6.57Z"/><path d="M121.67,164.71h1.2v-2.15h1.19v2.15h1.95v.99h-1.95v3.47c0,.44.08.77.23.97s.4.3.74.3c.21,0,.39-.04.56-.11.17-.08.34-.19.52-.34l.57.75c-.49.49-1.08.74-1.77.74s-1.17-.2-1.52-.59-.52-.96-.52-1.72v-3.47h-1.2v-.99Z"/><path d="M127.3,169.35c0-.7.26-1.25.78-1.65s1.26-.6,2.22-.6c.22,0,.46.01.73.04s.53.05.79.09v-.3c0-.93-.57-1.4-1.7-1.4-.76,0-1.4.21-1.94.62l-.57-.82c.72-.55,1.57-.82,2.56-.82.88,0,1.56.21,2.05.62.49.42.73.99.73,1.73v4.42h-1.06l-.04-.88c-.23.34-.54.6-.93.79s-.83.28-1.3.28c-.69,0-1.25-.19-1.67-.57-.42-.38-.64-.9-.64-1.55ZM128.47,169.34c0,.38.12.67.37.88.25.21.58.31,1.01.31.37,0,.7-.08,1.01-.23.3-.15.54-.35.72-.59.17-.25.26-.51.26-.81v-.76c-.25-.05-.49-.08-.74-.1-.25-.02-.47-.03-.67-.03-.63,0-1.12.11-1.45.34-.34.23-.5.56-.5.99Z"/><path d="M134.37,168.02c0-.68.15-1.28.46-1.81.31-.53.73-.94,1.27-1.25.54-.3,1.15-.45,1.83-.45,1.01,0,1.85.37,2.51,1.1l-.78.75c-.21-.25-.47-.45-.77-.59-.31-.14-.64-.21-1-.21-.44,0-.84.11-1.18.32-.34.21-.62.5-.81.87s-.3.79-.3,1.26.1.89.3,1.25.47.65.81.86c.34.21.74.31,1.2.31.74,0,1.35-.28,1.83-.84l.74.78c-.65.74-1.51,1.1-2.58,1.1-.68,0-1.28-.15-1.81-.45-.53-.3-.94-.71-1.25-1.22s-.45-1.11-.45-1.78Z"/><path d="M141.66,162.14h1.33v1.36h-1.33v-1.36ZM141.73,164.71h1.19v6.57h-1.19v-6.57Z"/><path d="M144.38,167.98c0-.66.15-1.25.45-1.77s.72-.93,1.24-1.24,1.12-.46,1.78-.46,1.25.15,1.77.46c.52.31.93.72,1.24,1.24s.46,1.11.46,1.77-.15,1.26-.46,1.78c-.31.53-.72.95-1.24,1.25-.52.31-1.11.46-1.77.46s-1.25-.15-1.78-.46-.94-.72-1.24-1.25c-.3-.53-.45-1.12-.45-1.78ZM145.6,167.99c0,.47.1.89.29,1.26.19.37.46.66.8.86s.73.31,1.16.31.82-.1,1.15-.31c.33-.21.6-.5.8-.86s.3-.79.3-1.26-.1-.89-.29-1.26-.46-.66-.8-.86-.73-.31-1.16-.31-.82.1-1.16.31-.61.5-.8.86c-.19.37-.29.79-.29,1.26ZM148.46,161.46h1.46l-1.54,2.17h-1.1l1.19-2.17Z"/><path d="M152.78,164.71h1.12l.04.99c.24-.38.55-.67.95-.88.4-.21.85-.31,1.36-.31.78,0,1.39.25,1.83.74.43.49.65,1.17.65,2.05v3.98h-1.19v-3.88c0-.6-.14-1.06-.41-1.38s-.67-.47-1.18-.47c-.6,0-1.09.21-1.44.64s-.54,1-.54,1.71v3.38h-1.19v-6.57Z"/><path d="M61.42,211.58h3.03c1.01,0,1.8.25,2.38.74.58.49.86,1.17.86,2.04,0,.63-.16,1.17-.47,1.61-.32.44-.76.76-1.32.96l2.25,4.11h-1.43l-2.05-3.89h-2v3.89h-1.25v-9.45ZM66.4,214.37c0-.54-.17-.96-.51-1.26-.34-.3-.81-.45-1.4-.45h-1.83v3.4h1.83c.6,0,1.07-.15,1.41-.45.33-.3.5-.71.5-1.24Z"/><path d="M68.81,217.74c0-.68.14-1.28.42-1.81.28-.52.66-.93,1.15-1.23.49-.3,1.05-.45,1.69-.45s1.2.15,1.69.46c.48.31.86.73,1.13,1.28.27.55.4,1.19.4,1.91v.18h-5.27c.04.64.26,1.15.68,1.52s.96.56,1.63.56c.79,0,1.49-.28,2.1-.84l.68.72c-.35.38-.77.67-1.25.86-.49.2-1.01.3-1.56.3-.68,0-1.28-.15-1.81-.44-.52-.29-.93-.7-1.23-1.22-.29-.52-.44-1.13-.44-1.82ZM73.45,215.82c-.35-.34-.8-.51-1.36-.51s-1.05.17-1.43.52-.59.8-.65,1.37h4.04c-.05-.58-.25-1.03-.6-1.37Z"/><path d="M81.13,214.46h1.29l-2.83,6.57h-1.19l-2.83-6.57h1.36l2.11,5.24,2.1-5.24Z"/><path d="M83.34,211.9h1.33v1.36h-1.33v-1.36ZM83.41,214.46h1.19v6.57h-1.19v-6.57Z"/><path d="M90.3,219.25c0-.27-.12-.49-.35-.64-.23-.16-.62-.29-1.17-.39l-.45-.08c-1.35-.25-2.02-.88-2.02-1.87,0-.6.24-1.09.72-1.45.48-.36,1.11-.54,1.9-.54.97,0,1.77.28,2.39.85l-.65.82c-.51-.44-1.12-.67-1.84-.67-.43,0-.77.08-1.01.23-.24.16-.35.38-.35.66,0,.25.11.46.33.6s.59.27,1.1.38l.45.08c.74.14,1.28.37,1.63.68.35.31.52.73.52,1.25,0,.64-.24,1.15-.73,1.52s-1.15.56-1.99.56c-.58,0-1.1-.09-1.59-.26s-.88-.42-1.19-.74l.74-.79c.53.53,1.21.79,2.04.79.49,0,.87-.08,1.13-.25.26-.17.39-.41.39-.72Z"/><path d="M92.96,211.9h1.33v1.36h-1.33v-1.36ZM93.04,214.46h1.19v6.57h-1.19v-6.57Z"/><path d="M95.68,217.73c0-.66.15-1.25.45-1.77s.72-.93,1.24-1.24,1.12-.46,1.78-.46,1.25.15,1.77.46c.52.31.93.72,1.24,1.24s.46,1.11.46,1.77-.15,1.26-.46,1.78c-.31.53-.72.95-1.24,1.25-.52.31-1.11.46-1.77.46s-1.25-.15-1.78-.46-.94-.72-1.24-1.25c-.3-.53-.45-1.12-.45-1.78ZM96.9,217.74c0,.47.1.89.29,1.26.19.37.46.66.8.86s.73.31,1.16.31.82-.1,1.15-.31c.33-.21.6-.5.8-.86s.3-.79.3-1.26-.1-.89-.29-1.26-.46-.66-.8-.86-.73-.31-1.16-.31-.82.1-1.16.31-.61.5-.8.86c-.19.37-.29.79-.29,1.26ZM99.76,211.22h1.46l-1.54,2.17h-1.1l1.19-2.17Z"/><path d="M104.08,214.46h1.12l.04.99c.24-.38.55-.67.95-.88.4-.21.85-.31,1.36-.31.78,0,1.39.25,1.83.74.43.49.65,1.17.65,2.05v3.98h-1.19v-3.88c0-.6-.14-1.06-.41-1.38s-.67-.47-1.18-.47c-.6,0-1.09.21-1.44.64s-.54,1-.54,1.71v3.38h-1.19v-6.57Z"/><path d="M61.02,265.65c0-.72.12-1.38.35-1.99.24-.61.56-1.14.98-1.59.42-.45.92-.79,1.49-1.04.58-.25,1.2-.37,1.88-.37.77,0,1.48.16,2.12.49.64.33,1.16.79,1.56,1.38l-.92.75c-.62-.97-1.53-1.46-2.73-1.46-.66,0-1.25.16-1.76.48-.51.32-.92.77-1.2,1.34-.29.57-.43,1.24-.43,1.99s.14,1.39.42,1.95.67,1.01,1.18,1.33,1.08.48,1.74.48c1.1,0,2.04-.49,2.82-1.46l.89.74c-.42.6-.95,1.07-1.59,1.4-.65.33-1.36.49-2.15.49-.9,0-1.7-.21-2.4-.63-.7-.42-1.26-1-1.66-1.74-.4-.74-.6-1.59-.6-2.54Z"/><path d="M70.35,267.04c0-.66.15-1.25.45-1.77s.72-.93,1.24-1.24,1.12-.46,1.78-.46,1.25.15,1.77.46c.52.31.93.72,1.24,1.24s.46,1.11.46,1.77-.15,1.26-.46,1.78c-.31.53-.72.95-1.24,1.25-.52.31-1.11.46-1.77.46s-1.25-.15-1.78-.46-.94-.72-1.24-1.25c-.3-.53-.45-1.12-.45-1.78ZM71.57,267.05c0,.47.1.89.29,1.26.19.37.46.66.8.86s.73.31,1.16.31.82-.1,1.15-.31c.33-.21.6-.5.8-.86s.3-.79.3-1.26-.1-.89-.29-1.26-.46-.66-.8-.86-.73-.31-1.16-.31-.82.1-1.16.31-.61.5-.8.86c-.19.37-.29.79-.29,1.26Z"/><path d="M78.75,263.77h1.12l.04.99c.21-.38.5-.67.88-.88.38-.21.82-.31,1.32-.31,1.04,0,1.73.45,2.07,1.34.21-.42.52-.75.93-.99.41-.24.89-.35,1.44-.35.78,0,1.39.25,1.83.74.43.49.65,1.18.65,2.08v3.95h-1.19v-3.88c0-.6-.13-1.06-.38-1.38s-.62-.47-1.09-.47c-.57,0-1.02.21-1.36.64s-.51,1-.51,1.71v3.38h-1.19v-3.88c0-.6-.13-1.06-.38-1.38s-.62-.47-1.1-.47c-.57,0-1.02.21-1.36.64s-.51,1-.51,1.71v3.38h-1.19v-6.57Z"/><path d="M90.71,267.73v-3.96h1.19v3.87c0,.6.13,1.07.39,1.39.26.32.63.48,1.13.48.59,0,1.07-.23,1.44-.68.36-.45.54-1.05.54-1.8v-3.26h1.19v6.57h-1.12l-.04-1.01c-.24.38-.55.67-.94.89-.39.21-.84.32-1.34.32-.77,0-1.37-.25-1.8-.74s-.64-1.18-.64-2.07Z"/><path d="M98.37,263.77h1.12l.04.99c.24-.38.55-.67.95-.88.4-.21.85-.31,1.36-.31.78,0,1.39.25,1.83.74.43.49.65,1.17.65,2.05v3.98h-1.19v-3.88c0-.6-.14-1.06-.41-1.38s-.67-.47-1.18-.47c-.6,0-1.09.21-1.44.64s-.54,1-.54,1.71v3.38h-1.19v-6.57Z"/><path d="M105.99,261.21h1.33v1.36h-1.33v-1.36ZM106.06,263.77h1.19v6.57h-1.19v-6.57Z"/><path d="M108.71,267.08c0-.68.15-1.28.46-1.81.31-.53.73-.94,1.27-1.25.54-.3,1.15-.45,1.83-.45,1.01,0,1.85.37,2.51,1.1l-.78.75c-.21-.25-.47-.45-.77-.59-.31-.14-.64-.21-1-.21-.44,0-.84.11-1.18.32-.34.21-.62.5-.81.87s-.3.79-.3,1.26.1.89.3,1.25.47.65.81.86c.34.21.74.31,1.2.31.74,0,1.35-.28,1.83-.84l.74.78c-.65.74-1.51,1.1-2.58,1.1-.68,0-1.28-.15-1.81-.45-.53-.3-.94-.71-1.25-1.22s-.45-1.11-.45-1.78Z"/><path d="M115.69,268.41c0-.7.26-1.25.78-1.65s1.26-.6,2.22-.6c.22,0,.46.01.73.04s.53.05.79.09v-.3c0-.93-.57-1.4-1.7-1.4-.76,0-1.4.21-1.94.62l-.57-.82c.72-.55,1.57-.82,2.56-.82.88,0,1.56.21,2.05.62.49.42.73.99.73,1.73v4.42h-1.06l-.04-.88c-.23.34-.54.6-.93.79s-.83.28-1.3.28c-.69,0-1.25-.19-1.67-.57-.42-.38-.64-.9-.64-1.55ZM116.85,268.4c0,.38.12.67.37.88.25.21.58.31,1.01.31.37,0,.7-.08,1.01-.23.3-.15.54-.35.72-.59.17-.25.26-.51.26-.81v-.76c-.25-.05-.49-.08-.74-.1-.25-.02-.47-.03-.67-.03-.63,0-1.12.11-1.45.34-.34.23-.5.56-.5.99Z"/><path d="M122.76,267.08c0-.68.15-1.28.46-1.81.31-.53.73-.94,1.27-1.25.54-.3,1.15-.45,1.83-.45,1.01,0,1.85.37,2.51,1.1l-.78.75c-.21-.25-.47-.45-.77-.59-.31-.14-.64-.21-1-.21-.44,0-.84.11-1.18.32-.34.21-.62.5-.81.87s-.3.79-.3,1.26.1.89.3,1.25.47.65.81.86c.34.21.74.31,1.2.31.74,0,1.35-.28,1.83-.84l.74.78c-.65.74-1.51,1.1-2.58,1.1-.68,0-1.28-.15-1.81-.45-.53-.3-.94-.71-1.25-1.22s-.45-1.11-.45-1.78Z"/><path d="M130.05,261.21h1.33v1.36h-1.33v-1.36ZM130.12,263.77h1.19v6.57h-1.19v-6.57Z"/><path d="M132.77,267.04c0-.66.15-1.25.45-1.77s.72-.93,1.24-1.24,1.12-.46,1.78-.46,1.25.15,1.77.46c.52.31.93.72,1.24,1.24s.46,1.11.46,1.77-.15,1.26-.46,1.78c-.31.53-.72.95-1.24,1.25-.52.31-1.11.46-1.77.46s-1.25-.15-1.78-.46-.94-.72-1.24-1.25c-.3-.53-.45-1.12-.45-1.78ZM133.99,267.05c0,.47.1.89.29,1.26.19.37.46.66.8.86s.73.31,1.16.31.82-.1,1.15-.31c.33-.21.6-.5.8-.86s.3-.79.3-1.26-.1-.89-.29-1.26-.46-.66-.8-.86-.73-.31-1.16-.31-.82.1-1.16.31-.61.5-.8.86c-.19.37-.29.79-.29,1.26ZM136.85,260.53h1.46l-1.54,2.17h-1.1l1.19-2.17Z"/><path d="M141.17,263.77h1.12l.04.99c.24-.38.55-.67.95-.88.4-.21.85-.31,1.36-.31.78,0,1.39.25,1.83.74.43.49.65,1.17.65,2.05v3.98h-1.19v-3.88c0-.6-.14-1.06-.41-1.38s-.67-.47-1.18-.47c-.6,0-1.09.21-1.44.64s-.54,1-.54,1.71v3.38h-1.19v-6.57Z"/><circle class="cls-13" cx="218.33" cy="119.29" r="4.75"/><rect class="cls-14" x="230.21" y="114.94" width="59.01" height="8.71" rx="4.36" ry="4.36"/><circle class="cls-6" cx="218.33" cy="168.7" r="4.75"/><rect class="cls-14" x="230.21" y="164.34" width="35.92" height="8.71" rx="3.4" ry="3.4"/><circle class="cls-6" cx="218.33" cy="218.45" r="4.75"/><rect class="cls-14" x="230.21" y="214.09" width="71.67" height="8.71" rx="4.36" ry="4.36"/><circle class="cls-6" cx="218.33" cy="267.76" r="4.75"/><rect class="cls-14" x="230.21" y="263.4" width="71.88" height="8.71" rx="4.36" ry="4.36"/><circle class="cls-15" cx="336.59" cy="119.29" r="14.06"/><circle class="cls-15" cx="336.59" cy="168.7" r="14.06"/><circle class="cls-15" cx="336.59" cy="218.45" r="14.06"/><circle class="cls-15" cx="336.59" cy="267.76" r="14.06"/><rect class="cls-16" x="64.47" y="277.8" width="284.42" height="40.18" rx="20.09" ry="20.09"/><line class="cls-5" x1="82.59" y1="302.48" x2="98.93" y2="302.48"/><line class="cls-5" x1="82.59" y1="292.88" x2="98.93" y2="292.88"/><line class="cls-5" x1="82.59" y1="297.43" x2="93.93" y2="297.43"/><path d="M114.59,299.39h-3.84l-.92,2.55h-1.59l3.67-9.45h1.6l3.65,9.45h-1.66l-.92-2.55ZM112.68,294.08l-1.49,4.09h2.96l-1.47-4.09Z"/><path d="M118.19,292.49h1.43v3.6c.45-.63,1.14-.95,2.05-.95.6,0,1.13.14,1.58.42.45.28.8.67,1.05,1.17.25.5.38,1.09.38,1.76,0,.75-.16,1.39-.47,1.94-.32.55-.76.97-1.32,1.27-.57.3-1.24.45-2.01.45-.45,0-.93-.04-1.42-.13s-.91-.2-1.26-.33v-9.18ZM123.22,298.54c0-.64-.16-1.16-.49-1.55s-.77-.59-1.32-.59c-.52,0-.95.17-1.28.51-.34.34-.5.79-.5,1.35v2.48c.4.11.79.17,1.19.17.76,0,1.35-.21,1.77-.62.42-.42.64-1,.64-1.74Z"/><path d="M126.05,295.35h1.33l.07,1.08c.23-.38.52-.67.89-.88.36-.21.77-.31,1.21-.31.25,0,.49.04.74.11l-.27,1.3c-.2-.07-.41-.1-.62-.1-.55,0-1,.18-1.37.54-.36.36-.55.83-.55,1.42v3.43h-1.43v-6.58Z"/><path d="M131.23,292.73h1.56v1.47h-1.56v-1.47ZM131.29,295.35h1.43v6.58h-1.43v-6.58Z"/><path d="M134.43,295.35h1.33l.07,1.08c.23-.38.52-.67.89-.88.36-.21.77-.31,1.21-.31.25,0,.49.04.74.11l-.27,1.3c-.2-.07-.41-.1-.62-.1-.55,0-1,.18-1.37.54-.36.36-.55.83-.55,1.42v3.43h-1.43v-6.58Z"/><path d="M144.98,293.84h-3.3v-1.35h8.11v1.35h-3.3v8.1h-1.52v-8.1Z"/><path d="M149.64,300.02c0-.71.26-1.26.79-1.67.52-.41,1.27-.61,2.24-.61.44,0,.92.04,1.42.11v-.24c0-.87-.54-1.3-1.61-1.3-.75,0-1.38.2-1.91.61l-.62-.96c.75-.55,1.63-.82,2.65-.82.92,0,1.62.21,2.12.64.5.43.75,1.03.75,1.79v4.36h-1.26l-.06-.85c-.22.33-.52.59-.9.77-.38.18-.82.28-1.31.28-.69,0-1.24-.19-1.66-.57-.42-.38-.63-.89-.63-1.54ZM151.03,299.95c0,.35.11.62.33.81.22.19.53.28.93.28.34,0,.64-.07.91-.2.27-.13.48-.31.64-.54s.24-.47.24-.74v-.74c-.47-.08-.89-.11-1.26-.11-.58,0-1.02.1-1.33.31-.31.21-.47.51-.47.92Z"/><path d="M157.13,295.35h1.33l.07,1.08c.23-.38.52-.67.89-.88.36-.21.77-.31,1.21-.31.25,0,.49.04.74.11l-.27,1.3c-.2-.07-.41-.1-.62-.1-.55,0-1,.18-1.37.54-.36.36-.55.83-.55,1.42v3.43h-1.43v-6.58Z"/><path d="M161.88,298.65c0-.68.14-1.28.42-1.81.28-.53.67-.94,1.17-1.25.5-.3,1.06-.45,1.71-.45s1.22.15,1.71.46.87.74,1.14,1.29c.27.55.41,1.19.41,1.92v.27h-5.13c.06.58.28,1.03.66,1.36s.89.5,1.52.5c.76,0,1.45-.26,2.05-.79l.71.89c-.34.35-.76.62-1.26.81s-1.03.29-1.59.29c-.7,0-1.31-.15-1.84-.44-.53-.29-.94-.7-1.24-1.22-.3-.52-.45-1.13-.45-1.82ZM166.46,296.82c-.32-.3-.73-.45-1.24-.45s-.96.15-1.3.46c-.34.31-.54.72-.61,1.24h3.71c-.06-.53-.24-.94-.56-1.25Z"/><path d="M169.41,300.02c0-.71.26-1.26.79-1.67.52-.41,1.27-.61,2.24-.61.44,0,.92.04,1.42.11v-.24c0-.87-.54-1.3-1.61-1.3-.75,0-1.38.2-1.91.61l-.62-.96c.75-.55,1.63-.82,2.65-.82.92,0,1.62.21,2.12.64.5.43.75,1.03.75,1.79v4.36h-1.26l-.06-.85c-.22.33-.52.59-.9.77-.38.18-.82.28-1.31.28-.69,0-1.24-.19-1.66-.57-.42-.38-.63-.89-.63-1.54ZM170.8,299.95c0,.35.11.62.33.81.22.19.53.28.93.28.34,0,.64-.07.91-.2.27-.13.48-.31.64-.54s.24-.47.24-.74v-.74c-.47-.08-.89-.11-1.26-.11-.58,0-1.02.1-1.33.31-.31.21-.47.51-.47.92Z"/><path d="M180.75,300.14c0-.25-.11-.44-.32-.58s-.58-.26-1.11-.37l-.47-.08c-.68-.13-1.19-.36-1.52-.69-.34-.33-.5-.74-.5-1.22,0-.62.25-1.12.74-1.49.49-.37,1.15-.56,1.98-.56.96,0,1.77.28,2.44.83l-.67.96c-.54-.43-1.15-.65-1.84-.65-.84,0-1.26.26-1.26.79,0,.24.1.42.29.55.19.13.53.24,1.01.33l.48.1c.76.15,1.31.39,1.65.71.34.33.52.74.52,1.24,0,.68-.25,1.2-.77,1.57-.51.37-1.2.55-2.07.55-.58,0-1.11-.09-1.6-.26s-.9-.42-1.22-.73l.76-.95c.27.25.59.45.93.59s.73.21,1.15.21c.44,0,.79-.07,1.03-.22s.36-.36.36-.63Z"/><path d="M185.79,298.82c0-.72.15-1.35.45-1.9.3-.55.7-.99,1.22-1.3.51-.32,1.1-.47,1.75-.47.58,0,1.12.15,1.64.44v-3.09h1.43v9.45h-1.33l-.06-.84c-.22.33-.51.59-.87.76-.36.18-.78.27-1.24.27-.59,0-1.12-.14-1.56-.42-.45-.28-.8-.67-1.05-1.16-.25-.5-.38-1.07-.38-1.73ZM187.25,298.72c0,.66.17,1.19.5,1.58s.77.59,1.32.59.96-.17,1.29-.52c.33-.35.5-.8.5-1.34v-2.17c-.46-.31-.96-.47-1.49-.47-.64,0-1.15.21-1.54.63s-.57.99-.57,1.71Z"/><path d="M193.7,298.65c0-.68.14-1.28.42-1.81.28-.53.67-.94,1.17-1.25.5-.3,1.06-.45,1.71-.45s1.22.15,1.71.46.87.74,1.14,1.29c.27.55.41,1.19.41,1.92v.27h-5.13c.06.58.28,1.03.66,1.36s.89.5,1.52.5c.76,0,1.45-.26,2.05-.79l.71.89c-.34.35-.76.62-1.26.81s-1.03.29-1.59.29c-.7,0-1.31-.15-1.84-.44-.53-.29-.94-.7-1.24-1.22-.3-.52-.45-1.13-.45-1.82ZM198.28,296.82c-.32-.3-.73-.45-1.24-.45s-.96.15-1.3.46c-.34.31-.54.72-.61,1.24h3.71c-.06-.53-.24-.94-.56-1.25Z"/><path d="M204.32,292.49h3.17c1.03,0,1.83.26,2.41.77.58.51.87,1.23.87,2.13s-.29,1.61-.86,2.13c-.57.52-1.36.79-2.37.79h-1.73v3.62h-1.5v-9.45ZM209.24,295.41c0-.51-.16-.91-.47-1.2-.32-.29-.75-.44-1.31-.44h-1.64v3.26h1.64c.57,0,1.01-.14,1.32-.42.31-.28.47-.68.47-1.19Z"/><path d="M212.27,295.35h1.33l.07,1.08c.23-.38.52-.67.89-.88.36-.21.77-.31,1.21-.31.25,0,.49.04.74.11l-.27,1.3c-.2-.07-.41-.1-.62-.1-.55,0-1,.18-1.37.54-.36.36-.55.83-.55,1.42v3.43h-1.43v-6.58Z"/><path d="M216.97,298.62c0-.66.15-1.25.46-1.78.31-.52.72-.94,1.25-1.25s1.13-.46,1.8-.46,1.27.15,1.81.46c.53.31.95.72,1.26,1.25.31.52.46,1.12.46,1.78s-.15,1.27-.46,1.81-.73.95-1.26,1.25c-.53.3-1.14.45-1.81.45s-1.27-.15-1.8-.45-.95-.72-1.25-1.25c-.31-.53-.46-1.14-.46-1.81ZM218.43,298.64c0,.66.19,1.2.57,1.62s.88.63,1.48.63c.4,0,.75-.1,1.06-.29s.56-.46.74-.8c.18-.34.27-.73.27-1.16s-.09-.83-.26-1.17-.42-.6-.73-.79-.67-.29-1.06-.29c-.6,0-1.1.21-1.49.63s-.58.96-.58,1.62Z"/><path d="M225.39,302.36v-7.02h1.43v7.08c0,.86-.18,1.5-.53,1.91-.35.42-.88.62-1.58.62-.33,0-.62-.04-.87-.13-.25-.09-.49-.21-.71-.36l.57-1c.27.2.55.3.84.3.3,0,.52-.11.66-.33.14-.22.21-.57.21-1.06ZM225.33,292.73h1.56v1.47h-1.56v-1.47Z"/><path d="M228.25,298.65c0-.68.14-1.28.42-1.81.28-.53.67-.94,1.17-1.25.5-.3,1.06-.45,1.71-.45s1.22.15,1.71.46.87.74,1.14,1.29c.27.55.41,1.19.41,1.92v.27h-5.13c.06.58.28,1.03.66,1.36s.89.5,1.52.5c.76,0,1.45-.26,2.05-.79l.71.89c-.34.35-.76.62-1.26.81s-1.03.29-1.59.29c-.7,0-1.31-.15-1.84-.44-.53-.29-.94-.7-1.24-1.22-.3-.52-.45-1.13-.45-1.82ZM232.83,296.82c-.32-.3-.73-.45-1.24-.45s-.96.15-1.3.46c-.34.31-.54.72-.61,1.24h3.71c-.06-.53-.24-.94-.56-1.25Z"/><path d="M235.82,298.66c0-.68.16-1.29.47-1.82s.74-.95,1.28-1.25c.54-.3,1.15-.45,1.83-.45,1.03,0,1.87.37,2.54,1.1l-.86.91c-.21-.25-.45-.43-.74-.57s-.59-.2-.92-.2c-.42,0-.78.1-1.1.29s-.57.46-.76.8-.28.73-.28,1.18c0,.66.2,1.2.6,1.61.4.42.91.62,1.54.62.69,0,1.27-.26,1.73-.78l.82.92c-.65.74-1.52,1.1-2.61,1.1-.68,0-1.29-.15-1.82-.45-.53-.3-.95-.71-1.26-1.22-.31-.52-.46-1.12-.46-1.8Z"/><path d="M242.56,295.35h1.16v-2.17h1.43v2.17h1.9v1.16h-1.9v3.23c0,.42.08.72.23.91.15.19.39.28.71.28.36,0,.69-.14,1.01-.41l.61.91c-.5.47-1.11.71-1.83.71s-1.23-.2-1.6-.6-.55-.99-.55-1.76v-3.26h-1.16v-1.16Z"/><path d="M258.82,294.81l-2.55,4.4h-.78l-2.52-4.35-.3,7.07h-1.43l.44-9.45h1.44l2.8,4.81,2.79-4.81h1.46l.44,9.45h-1.5l-.3-7.12Z"/><path d="M262.02,300.02c0-.71.26-1.26.79-1.67.52-.41,1.27-.61,2.24-.61.44,0,.92.04,1.42.11v-.24c0-.87-.54-1.3-1.61-1.3-.75,0-1.38.2-1.91.61l-.62-.96c.75-.55,1.63-.82,2.65-.82.92,0,1.62.21,2.12.64.5.43.75,1.03.75,1.79v4.36h-1.26l-.06-.85c-.22.33-.52.59-.9.77-.38.18-.82.28-1.31.28-.69,0-1.24-.19-1.66-.57-.42-.38-.63-.89-.63-1.54ZM263.41,299.95c0,.35.11.62.33.81.22.19.53.28.93.28.34,0,.64-.07.91-.2.27-.13.48-.31.64-.54s.24-.47.24-.74v-.74c-.47-.08-.89-.11-1.26-.11-.58,0-1.02.1-1.33.31-.31.21-.47.51-.47.92Z"/><path d="M269.51,295.35h1.33l.06.96c.23-.37.54-.66.93-.86.39-.21.84-.31,1.34-.31.78,0,1.39.24,1.82.73.43.49.64,1.16.64,2.03v4.04h-1.43v-3.84c0-.56-.12-.98-.38-1.27-.25-.29-.61-.43-1.08-.43-.55,0-.98.19-1.31.58s-.49.91-.49,1.56v3.4h-1.43v-6.58Z"/><path d="M276.92,300.02c0-.71.26-1.26.79-1.67.52-.41,1.27-.61,2.24-.61.44,0,.92.04,1.42.11v-.24c0-.87-.54-1.3-1.61-1.3-.75,0-1.38.2-1.91.61l-.62-.96c.75-.55,1.63-.82,2.65-.82.92,0,1.62.21,2.12.64.5.43.75,1.03.75,1.79v4.36h-1.26l-.06-.85c-.22.33-.52.59-.9.77-.38.18-.82.28-1.31.28-.69,0-1.24-.19-1.66-.57-.42-.38-.63-.89-.63-1.54ZM278.3,299.95c0,.35.11.62.33.81.22.19.53.28.93.28.34,0,.64-.07.91-.2.27-.13.48-.31.64-.54s.24-.47.24-.74v-.74c-.47-.08-.89-.11-1.26-.11-.58,0-1.02.1-1.33.31-.31.21-.47.51-.47.92Z"/><path d="M289.15,301.86v-.81c-.45.64-1.15.96-2.08.96-.59,0-1.12-.14-1.56-.41-.45-.27-.8-.66-1.05-1.15-.25-.49-.38-1.06-.38-1.71,0-.74.16-1.37.48-1.91s.77-.96,1.35-1.25c.58-.3,1.26-.45,2.05-.45.42,0,.87.04,1.33.12.46.08.88.2,1.26.35v6.2c0,1.01-.29,1.79-.88,2.34-.59.55-1.43.82-2.52.82s-1.99-.28-2.7-.83l.62-1.05c.63.45,1.32.68,2.05.68,1.35,0,2.02-.63,2.02-1.9ZM289.12,298.93v-2.39c-.41-.1-.78-.16-1.13-.16-.77,0-1.38.21-1.81.62-.43.41-.64.98-.64,1.71,0,.63.17,1.14.5,1.52.33.38.77.57,1.32.57s.96-.17,1.28-.52c.33-.35.49-.8.49-1.34Z"/><path d="M291.98,298.65c0-.68.14-1.28.42-1.81.28-.53.67-.94,1.17-1.25.5-.3,1.06-.45,1.71-.45s1.22.15,1.71.46.87.74,1.14,1.29c.27.55.41,1.19.41,1.92v.27h-5.13c.06.58.28,1.03.66,1.36s.89.5,1.52.5c.76,0,1.45-.26,2.05-.79l.71.89c-.34.35-.76.62-1.26.81s-1.03.29-1.59.29c-.7,0-1.31-.15-1.84-.44-.53-.29-.94-.7-1.24-1.22-.3-.52-.45-1.13-.45-1.82ZM296.56,296.82c-.32-.3-.73-.45-1.24-.45s-.96.15-1.3.46c-.34.31-.54.72-.61,1.24h3.71c-.06-.53-.24-.94-.56-1.25Z"/><path d="M299.88,295.35h1.33l.06.98c.2-.38.49-.67.86-.88.38-.21.81-.31,1.3-.31,1.02,0,1.7.43,2.04,1.3.22-.42.53-.74.93-.96s.87-.34,1.41-.34c.78,0,1.39.24,1.83.73.43.49.65,1.17.65,2.06v4.01h-1.43v-3.84c0-.56-.12-.98-.35-1.27s-.56-.43-1-.43c-.52,0-.93.19-1.24.58s-.46.91-.46,1.56v3.4h-1.43v-3.84c0-1.13-.46-1.7-1.37-1.7-.52,0-.93.19-1.24.58-.31.39-.46.91-.46,1.56v3.4h-1.43v-6.58Z"/><path d="M311.67,298.65c0-.68.14-1.28.42-1.81.28-.53.67-.94,1.17-1.25.5-.3,1.06-.45,1.71-.45s1.22.15,1.71.46.87.74,1.14,1.29c.27.55.41,1.19.41,1.92v.27h-5.13c.06.58.28,1.03.66,1.36s.89.5,1.52.5c.76,0,1.45-.26,2.05-.79l.71.89c-.34.35-.76.62-1.26.81s-1.03.29-1.59.29c-.7,0-1.31-.15-1.84-.44-.53-.29-.94-.7-1.24-1.22-.3-.52-.45-1.13-.45-1.82ZM316.25,296.82c-.32-.3-.73-.45-1.24-.45s-.96.15-1.3.46c-.34.31-.54.72-.61,1.24h3.71c-.06-.53-.24-.94-.56-1.25Z"/><path d="M319.57,295.35h1.33l.06.96c.23-.37.54-.66.93-.86.39-.21.84-.31,1.34-.31.78,0,1.39.24,1.82.73.43.49.64,1.16.64,2.03v4.04h-1.43v-3.84c0-.56-.12-.98-.38-1.27-.25-.29-.61-.43-1.08-.43-.55,0-.98.19-1.31.58s-.49.91-.49,1.56v3.4h-1.43v-6.58Z"/><path d="M326.75,295.35h1.16v-2.17h1.43v2.17h1.9v1.16h-1.9v3.23c0,.42.08.72.23.91.15.19.39.28.71.28.36,0,.69-.14,1.01-.41l.61.91c-.5.47-1.11.71-1.83.71s-1.23-.2-1.6-.6-.55-.99-.55-1.76v-3.26h-1.16v-1.16Z"/><rect class="cls-7" x="31.8" y="324.14" width="198.67" height="40.18" rx="20.09" ry="20.09"/><path d="M76.07,343.57c0-.72.12-1.38.35-1.98.24-.6.57-1.13,1-1.58.43-.45.93-.79,1.51-1.04.58-.25,1.21-.37,1.9-.37.78,0,1.5.16,2.15.49.65.33,1.17.79,1.58,1.38l-1.06.91c-.61-.93-1.48-1.4-2.61-1.4-.63,0-1.19.15-1.67.45-.48.3-.86.72-1.13,1.26s-.41,1.16-.41,1.87.13,1.32.4,1.86.64.96,1.12,1.26c.48.3,1.03.45,1.66.45,1.05,0,1.94-.47,2.68-1.4l1.03.88c-.42.6-.96,1.07-1.61,1.4-.65.33-1.37.5-2.17.5-.92,0-1.73-.21-2.44-.63s-1.27-1-1.67-1.74-.61-1.59-.61-2.56Z"/><path d="M85.87,341.69h1.33l.07,1.08c.23-.38.52-.67.89-.88.36-.21.77-.31,1.21-.31.25,0,.49.04.74.11l-.27,1.3c-.2-.07-.41-.1-.62-.1-.55,0-1,.18-1.37.54-.36.36-.55.83-.55,1.42v3.43h-1.43v-6.58Z"/><path d="M90.62,344.99c0-.68.14-1.28.42-1.81.28-.53.67-.94,1.17-1.25.5-.3,1.06-.45,1.71-.45s1.22.15,1.71.46.87.74,1.14,1.29c.27.55.41,1.19.41,1.92v.27h-5.13c.06.58.28,1.03.66,1.36s.89.5,1.52.5c.76,0,1.45-.26,2.05-.79l.71.89c-.34.35-.76.62-1.26.81s-1.03.29-1.59.29c-.7,0-1.31-.15-1.84-.44-.53-.29-.94-.7-1.24-1.22-.3-.52-.45-1.13-.45-1.82ZM95.2,343.16c-.32-.3-.73-.45-1.24-.45s-.96.15-1.3.46c-.34.31-.54.72-.61,1.24h3.71c-.06-.53-.24-.94-.56-1.25Z"/><path d="M98.15,346.36c0-.71.26-1.26.79-1.67.52-.41,1.27-.61,2.24-.61.44,0,.92.04,1.42.11v-.24c0-.87-.54-1.3-1.61-1.3-.75,0-1.38.2-1.91.61l-.62-.96c.75-.55,1.63-.82,2.65-.82.92,0,1.62.21,2.12.64.5.43.75,1.03.75,1.79v4.36h-1.26l-.06-.85c-.22.33-.52.59-.9.77-.38.18-.82.28-1.31.28-.69,0-1.24-.19-1.66-.57-.42-.38-.63-.89-.63-1.54ZM99.54,346.29c0,.35.11.62.33.81.22.19.53.28.93.28.34,0,.64-.07.91-.2.27-.13.48-.31.64-.54s.24-.47.24-.74v-.74c-.47-.08-.89-.11-1.26-.11-.58,0-1.02.1-1.33.31-.31.21-.47.51-.47.92Z"/><path d="M105.64,341.69h1.33l.07,1.08c.23-.38.52-.67.89-.88.36-.21.77-.31,1.21-.31.25,0,.49.04.74.11l-.27,1.3c-.2-.07-.41-.1-.62-.1-.55,0-1,.18-1.37.54-.36.36-.55.83-.55,1.42v3.43h-1.43v-6.58Z"/><path d="M113.36,345.69v-4.01h1.43v3.81c0,.56.12.98.36,1.28.24.3.58.45,1.03.45.55,0,.98-.21,1.31-.62.33-.41.49-.96.49-1.64v-3.29h1.43v6.58h-1.32l-.06-1.01c-.23.38-.54.67-.93.89-.39.21-.83.32-1.32.32-.76,0-1.35-.24-1.78-.73-.43-.49-.64-1.17-.64-2.05Z"/><path d="M121.1,341.69h1.33l.06.96c.23-.37.54-.66.93-.86.39-.21.84-.31,1.34-.31.78,0,1.39.24,1.82.73.43.49.64,1.16.64,2.03v4.04h-1.43v-3.84c0-.56-.12-.98-.38-1.27-.25-.29-.61-.43-1.08-.43-.55,0-.98.19-1.31.58s-.49.91-.49,1.56v3.4h-1.43v-6.58Z"/><path d="M131.6,338.83h1.47l5.01,7.08v-7.08h1.49v9.45h-1.46l-5.03-7.11v7.11h-1.49v-9.45Z"/><path d="M141.42,345.69v-4.01h1.43v3.81c0,.56.12.98.36,1.28.24.3.58.45,1.03.45.55,0,.98-.21,1.31-.62.33-.41.49-.96.49-1.64v-3.29h1.43v6.58h-1.32l-.06-1.01c-.23.38-.54.67-.93.89-.39.21-.83.32-1.32.32-.76,0-1.35-.24-1.78-.73-.43-.49-.64-1.17-.64-2.05Z"/><path d="M148.89,344.99c0-.68.14-1.28.42-1.81.28-.53.67-.94,1.17-1.25.5-.3,1.06-.45,1.71-.45s1.22.15,1.71.46.87.74,1.14,1.29c.27.55.41,1.19.41,1.92v.27h-5.13c.06.58.28,1.03.66,1.36s.89.5,1.52.5c.76,0,1.45-.26,2.05-.79l.71.89c-.34.35-.76.62-1.26.81s-1.03.29-1.59.29c-.7,0-1.31-.15-1.84-.44-.53-.29-.94-.7-1.24-1.22-.3-.52-.45-1.13-.45-1.82ZM153.47,343.16c-.32-.3-.73-.45-1.24-.45s-.96.15-1.3.46c-.34.31-.54.72-.61,1.24h3.71c-.06-.53-.24-.94-.56-1.25Z"/><path d="M161.19,341.69h1.53l-2.83,6.58h-1.37l-2.83-6.58h1.6l1.97,5,1.94-5Z"/><path d="M162.99,344.96c0-.66.15-1.25.46-1.78.31-.52.72-.94,1.25-1.25s1.13-.46,1.8-.46,1.27.15,1.81.46c.53.31.95.72,1.26,1.25.31.52.46,1.12.46,1.78s-.15,1.27-.46,1.81-.73.95-1.26,1.25c-.53.3-1.14.45-1.81.45s-1.27-.15-1.8-.45-.95-.72-1.25-1.25c-.31-.53-.46-1.14-.46-1.81ZM164.45,344.97c0,.66.19,1.2.57,1.62s.88.63,1.48.63c.4,0,.75-.1,1.06-.29s.56-.46.74-.8c.18-.34.27-.73.27-1.16s-.09-.83-.26-1.17-.42-.6-.73-.79-.67-.29-1.06-.29c-.6,0-1.1.21-1.49.63s-.58.96-.58,1.62Z"/><path d="M173.74,343.54c0-.7.12-1.35.37-1.95s.59-1.12,1.03-1.57c.44-.45.95-.8,1.54-1.05.59-.25,1.22-.38,1.9-.38s1.33.12,1.92.38c.59.25,1.11.6,1.55,1.06.44.45.79.98,1.03,1.58.25.6.37,1.25.37,1.95s-.12,1.33-.37,1.93c-.25.6-.59,1.12-1.03,1.58s-.95.81-1.54,1.06-1.23.38-1.92.38-1.33-.12-1.92-.38c-.59-.25-1.1-.6-1.54-1.06s-.78-.98-1.03-1.58-.37-1.25-.37-1.95ZM175.34,343.54c0,.69.14,1.3.42,1.84s.67.96,1.16,1.27,1.05.47,1.67.47,1.19-.16,1.68-.47.87-.74,1.15-1.27.42-1.15.42-1.83-.14-1.3-.42-1.84-.67-.96-1.15-1.27-1.05-.47-1.68-.47-1.18.16-1.67.47-.88.73-1.16,1.27-.42,1.14-.42,1.83Z"/><path d="M184.97,341.69h1.33l.07,1.08c.23-.38.52-.67.89-.88.36-.21.77-.31,1.21-.31.25,0,.49.04.74.11l-.27,1.3c-.2-.07-.41-.1-.62-.1-.55,0-1,.18-1.37.54-.36.36-.55.83-.55,1.42v3.43h-1.43v-6.58Z"/><path d="M189.67,345.16c0-.72.15-1.35.45-1.9.3-.55.7-.99,1.22-1.3.51-.32,1.1-.47,1.75-.47.58,0,1.12.15,1.64.44v-3.09h1.43v9.45h-1.33l-.06-.84c-.22.33-.51.59-.87.76-.36.18-.78.27-1.24.27-.59,0-1.12-.14-1.56-.42-.45-.28-.8-.67-1.05-1.16-.25-.5-.38-1.07-.38-1.73ZM191.13,345.06c0,.66.17,1.19.5,1.58s.77.59,1.32.59.96-.17,1.29-.52c.33-.35.5-.8.5-1.34v-2.17c-.46-.31-.96-.47-1.49-.47-.64,0-1.15.21-1.54.63s-.57.99-.57,1.71Z"/><path d="M197.57,344.99c0-.68.14-1.28.42-1.81.28-.53.67-.94,1.17-1.25.5-.3,1.06-.45,1.71-.45s1.22.15,1.71.46.87.74,1.14,1.29c.27.55.41,1.19.41,1.92v.27h-5.13c.06.58.28,1.03.66,1.36s.89.5,1.52.5c.76,0,1.45-.26,2.05-.79l.71.89c-.34.35-.76.62-1.26.81s-1.03.29-1.59.29c-.7,0-1.31-.15-1.84-.44-.53-.29-.94-.7-1.24-1.22-.3-.52-.45-1.13-.45-1.82ZM202.15,343.16c-.32-.3-.73-.45-1.24-.45s-.96.15-1.3.46c-.34.31-.54.72-.61,1.24h3.71c-.06-.53-.24-.94-.56-1.25Z"/><path d="M205.47,341.69h1.33l.06.96c.23-.37.54-.66.93-.86.39-.21.84-.31,1.34-.31.78,0,1.39.24,1.82.73.43.49.64,1.16.64,2.03v4.04h-1.43v-3.84c0-.56-.12-.98-.38-1.27-.25-.29-.61-.43-1.08-.43-.55,0-.98.19-1.31.58s-.49.91-.49,1.56v3.4h-1.43v-6.58Z"/><rect class="cls-8" x="95.66" y="369.59" width="212.54" height="40.18" rx="20.09" ry="20.09"/><path d="M139.93,389.02c0-.72.12-1.38.35-1.98.24-.6.57-1.13,1-1.58.43-.45.93-.79,1.51-1.04.58-.25,1.21-.37,1.9-.37.78,0,1.5.16,2.15.49.65.33,1.17.79,1.58,1.38l-1.06.91c-.61-.93-1.48-1.4-2.61-1.4-.63,0-1.19.15-1.67.45-.48.3-.86.72-1.13,1.26s-.41,1.16-.41,1.87.13,1.32.4,1.86.64.96,1.12,1.26c.48.3,1.03.45,1.66.45,1.05,0,1.94-.47,2.68-1.4l1.03.88c-.42.6-.96,1.07-1.61,1.4-.65.33-1.37.5-2.17.5-.92,0-1.73-.21-2.44-.63s-1.27-1-1.67-1.74-.61-1.59-.61-2.56Z"/><path d="M149.73,387.13h1.33l.07,1.08c.23-.38.52-.67.89-.88.36-.21.77-.31,1.21-.31.25,0,.49.04.74.11l-.27,1.3c-.2-.07-.41-.1-.62-.1-.55,0-1,.18-1.37.54-.36.36-.55.83-.55,1.42v3.43h-1.43v-6.58Z"/><path d="M154.48,390.43c0-.68.14-1.28.42-1.81.28-.53.67-.94,1.17-1.25.5-.3,1.06-.45,1.71-.45s1.22.15,1.71.46.87.74,1.14,1.29c.27.55.41,1.19.41,1.92v.27h-5.13c.06.58.28,1.03.66,1.36s.89.5,1.52.5c.76,0,1.45-.26,2.05-.79l.71.89c-.34.35-.76.62-1.26.81s-1.03.29-1.59.29c-.7,0-1.31-.15-1.84-.44-.53-.29-.94-.7-1.24-1.22-.3-.52-.45-1.13-.45-1.82ZM159.06,388.61c-.32-.3-.73-.45-1.24-.45s-.96.15-1.3.46c-.34.31-.54.72-.61,1.24h3.71c-.06-.53-.24-.94-.56-1.25Z"/><path d="M162.01,391.81c0-.71.26-1.26.79-1.67.52-.41,1.27-.61,2.24-.61.44,0,.92.04,1.42.11v-.24c0-.87-.54-1.3-1.61-1.3-.75,0-1.38.2-1.91.61l-.62-.96c.75-.55,1.63-.82,2.65-.82.92,0,1.62.21,2.12.64.5.43.75,1.03.75,1.79v4.36h-1.26l-.06-.85c-.22.33-.52.59-.9.77-.38.18-.82.28-1.31.28-.69,0-1.24-.19-1.66-.57-.42-.38-.63-.89-.63-1.54ZM163.4,391.74c0,.35.11.62.33.81.22.19.53.28.93.28.34,0,.64-.07.91-.2.27-.13.48-.31.64-.54s.24-.47.24-.74v-.74c-.47-.08-.89-.11-1.26-.11-.58,0-1.02.1-1.33.31-.31.21-.47.51-.47.92Z"/><path d="M169.5,387.13h1.33l.07,1.08c.23-.38.52-.67.89-.88.36-.21.77-.31,1.21-.31.25,0,.49.04.74.11l-.27,1.3c-.2-.07-.41-.1-.62-.1-.55,0-1,.18-1.37.54-.36.36-.55.83-.55,1.42v3.43h-1.43v-6.58Z"/><path d="M177.46,384.27h1.47l5.01,7.08v-7.08h1.49v9.45h-1.46l-5.03-7.11v7.11h-1.49v-9.45Z"/><path d="M187.29,391.14v-4.01h1.43v3.81c0,.56.12.98.36,1.28.24.3.58.45,1.03.45.55,0,.98-.21,1.31-.62.33-.41.49-.96.49-1.64v-3.29h1.43v6.58h-1.32l-.06-1.01c-.23.38-.54.67-.93.89-.39.21-.83.32-1.32.32-.76,0-1.35-.24-1.78-.73-.43-.49-.64-1.17-.64-2.05Z"/><path d="M194.75,390.43c0-.68.14-1.28.42-1.81.28-.53.67-.94,1.17-1.25.5-.3,1.06-.45,1.71-.45s1.22.15,1.71.46.87.74,1.14,1.29c.27.55.41,1.19.41,1.92v.27h-5.13c.06.58.28,1.03.66,1.36s.89.5,1.52.5c.76,0,1.45-.26,2.05-.79l.71.89c-.34.35-.76.62-1.26.81s-1.03.29-1.59.29c-.7,0-1.31-.15-1.84-.44-.53-.29-.94-.7-1.24-1.22-.3-.52-.45-1.13-.45-1.82ZM199.33,388.61c-.32-.3-.73-.45-1.24-.45s-.96.15-1.3.46c-.34.31-.54.72-.61,1.24h3.71c-.06-.53-.24-.94-.56-1.25Z"/><path d="M207.06,387.13h1.53l-2.83,6.58h-1.37l-2.83-6.58h1.6l1.97,5,1.94-5Z"/><path d="M208.85,390.4c0-.66.15-1.25.46-1.78.31-.52.72-.94,1.25-1.25s1.13-.46,1.8-.46,1.27.15,1.81.46c.53.31.95.72,1.26,1.25.31.52.46,1.12.46,1.78s-.15,1.27-.46,1.81-.73.95-1.26,1.25c-.53.3-1.14.45-1.81.45s-1.27-.15-1.8-.45-.95-.72-1.25-1.25c-.31-.53-.46-1.14-.46-1.81ZM210.31,390.42c0,.66.19,1.2.57,1.62s.88.63,1.48.63c.4,0,.75-.1,1.06-.29s.56-.46.74-.8c.18-.34.27-.73.27-1.16s-.09-.83-.26-1.17-.42-.6-.73-.79-.67-.29-1.06-.29c-.6,0-1.1.21-1.49.63s-.58.96-.58,1.62Z"/><path d="M219.98,384.27h3.21c1.63,0,2.9.41,3.8,1.22.9.82,1.35,1.97,1.35,3.46s-.45,2.66-1.36,3.5c-.91.84-2.18,1.26-3.81,1.26h-3.2v-9.45ZM226.75,388.99c0-1.09-.31-1.92-.93-2.5-.62-.58-1.52-.87-2.68-.87h-1.63v6.75h1.64c1.16,0,2.05-.29,2.67-.88.62-.58.93-1.42.93-2.51Z"/><path d="M229.54,390.4c0-.66.15-1.25.46-1.78.31-.52.72-.94,1.25-1.25s1.13-.46,1.8-.46,1.27.15,1.81.46c.53.31.95.72,1.26,1.25.31.52.46,1.12.46,1.78s-.15,1.27-.46,1.81-.73.95-1.26,1.25c-.53.3-1.14.45-1.81.45s-1.27-.15-1.8-.45-.95-.72-1.25-1.25c-.31-.53-.46-1.14-.46-1.81ZM231,390.42c0,.66.19,1.2.57,1.62s.88.63,1.48.63c.4,0,.75-.1,1.06-.29s.56-.46.74-.8c.18-.34.27-.73.27-1.16s-.09-.83-.26-1.17-.42-.6-.73-.79-.67-.29-1.06-.29c-.6,0-1.1.21-1.49.63s-.58.96-.58,1.62Z"/><path d="M237.63,390.45c0-.68.16-1.29.47-1.82s.74-.95,1.28-1.25c.54-.3,1.15-.45,1.83-.45,1.03,0,1.87.37,2.54,1.1l-.86.91c-.21-.25-.45-.43-.74-.57s-.59-.2-.92-.2c-.42,0-.78.1-1.1.29s-.57.46-.76.8-.28.73-.28,1.18c0,.66.2,1.2.6,1.61.4.42.91.62,1.54.62.69,0,1.27-.26,1.73-.78l.82.92c-.65.74-1.52,1.1-2.61,1.1-.68,0-1.29-.15-1.82-.45-.53-.3-.95-.71-1.26-1.22-.31-.52-.46-1.12-.46-1.8Z"/><path d="M244.92,391.14v-4.01h1.43v3.81c0,.56.12.98.36,1.28.24.3.58.45,1.03.45.55,0,.98-.21,1.31-.62.33-.41.49-.96.49-1.64v-3.29h1.43v6.58h-1.32l-.06-1.01c-.23.38-.54.67-.93.89-.39.21-.83.32-1.32.32-.76,0-1.35-.24-1.78-.73-.43-.49-.64-1.17-.64-2.05Z"/><path d="M252.67,387.13h1.33l.06.98c.2-.38.49-.67.86-.88.38-.21.81-.31,1.3-.31,1.02,0,1.7.43,2.04,1.3.22-.42.53-.74.93-.96s.87-.34,1.41-.34c.78,0,1.39.24,1.83.73.43.49.65,1.17.65,2.06v4.01h-1.43v-3.84c0-.56-.12-.98-.35-1.27s-.56-.43-1-.43c-.52,0-.93.19-1.24.58s-.46.91-.46,1.56v3.4h-1.43v-3.84c0-1.13-.46-1.7-1.37-1.7-.52,0-.93.19-1.24.58-.31.39-.46.91-.46,1.56v3.4h-1.43v-6.58Z"/><path d="M264.45,390.43c0-.68.14-1.28.42-1.81.28-.53.67-.94,1.17-1.25.5-.3,1.06-.45,1.71-.45s1.22.15,1.71.46.87.74,1.14,1.29c.27.55.41,1.19.41,1.92v.27h-5.13c.06.58.28,1.03.66,1.36s.89.5,1.52.5c.76,0,1.45-.26,2.05-.79l.71.89c-.34.35-.76.62-1.26.81s-1.03.29-1.59.29c-.7,0-1.31-.15-1.84-.44-.53-.29-.94-.7-1.24-1.22-.3-.52-.45-1.13-.45-1.82ZM269.03,388.61c-.32-.3-.73-.45-1.24-.45s-.96.15-1.3.46c-.34.31-.54.72-.61,1.24h3.71c-.06-.53-.24-.94-.56-1.25Z"/><path d="M272.35,387.13h1.33l.06.96c.23-.37.54-.66.93-.86.39-.21.84-.31,1.34-.31.78,0,1.39.24,1.82.73.43.49.64,1.16.64,2.03v4.04h-1.43v-3.84c0-.56-.12-.98-.38-1.27-.25-.29-.61-.43-1.08-.43-.55,0-.98.19-1.31.58s-.49.91-.49,1.56v3.4h-1.43v-6.58Z"/><path d="M279.53,387.13h1.16v-2.17h1.43v2.17h1.9v1.16h-1.9v3.23c0,.42.08.72.23.91.15.19.39.28.71.28.36,0,.69-.14,1.01-.41l.61.91c-.5.47-1.11.71-1.83.71s-1.23-.2-1.6-.6-.55-.99-.55-1.76v-3.26h-1.16v-1.16Z"/><path d="M285.01,390.4c0-.66.15-1.25.46-1.78.31-.52.72-.94,1.25-1.25s1.13-.46,1.8-.46,1.27.15,1.81.46c.53.31.95.72,1.26,1.25.31.52.46,1.12.46,1.78s-.15,1.27-.46,1.81-.73.95-1.26,1.25c-.53.3-1.14.45-1.81.45s-1.27-.15-1.8-.45-.95-.72-1.25-1.25c-.31-.53-.46-1.14-.46-1.81ZM286.47,390.42c0,.66.19,1.2.57,1.62s.88.63,1.48.63c.4,0,.75-.1,1.06-.29s.56-.46.74-.8c.18-.34.27-.73.27-1.16s-.09-.83-.26-1.17-.42-.6-.73-.79-.67-.29-1.06-.29c-.6,0-1.1.21-1.49.63s-.58.96-.58,1.62Z"/><polyline class="cls-5" points="62.94 348.8 64.79 350.65 68.24 347.2"/><polyline class="cls-5" points="67.84 344.49 67.84 339.14 59.3 334.64 51.35 338.85 51.35 347.98 59.74 352.43 61.82 350.65"/><polyline class="cls-5" points="51.5 338.99 59.67 343.3 59.67 352.43"/><line class="cls-5" x1="67.84" y1="339.14" x2="59.67" y2="343.3"/><line class="cls-5" x1="55.58" y1="336.73" x2="62.79" y2="341.3"/><path class="cls-4" d="M128.46,398.67h-8.66c-1.67,0-3.02-1.35-3.02-3.02v-11.71c0-1.67,1.35-3.02,3.02-3.02h5.78l5.91,5.91v8.83c0,1.67-1.35,3.02-3.02,3.02Z"/><path class="cls-3" d="M125.72,381.87v3.78c0,.54.43.97.97.97h3.9"/><rect class="cls-12" x="400.57" y="103.99" width="258.63" height="307.13" rx="11.81" ry="11.81"/><polyline class="cls-2" points="446.91 162.21 446.91 365.08 642.36 365.08"/><rect class="cls-9" x="462.06" y="270.92" width="32.38" height="93.27" rx="4.37" ry="4.37"/><rect class="cls-9" x="506.61" y="217.46" width="32.38" height="146.74" rx="5.48" ry="5.48"/><rect class="cls-9" x="550.57" y="258.09" width="32.38" height="106.1" rx="4.66" ry="4.66"/><rect class="cls-9" x="595.13" y="174.58" width="32.38" height="189.61" rx="6.23" ry="6.23"/><line class="cls-2" x1="447.8" y1="173.5" x2="643.84" y2="173.5"/><path d="M418.28,127.21h1.96l6.66,9.4v-9.4h1.97v12.54h-1.94l-6.68-9.44v9.44h-1.98v-12.54Z"/><path d="M431.34,136.33v-5.32h1.9v5.06c0,.74.16,1.31.48,1.7.32.4.77.59,1.36.59.73,0,1.31-.27,1.74-.82.43-.54.65-1.27.65-2.17v-4.36h1.9v8.75h-1.75l-.08-1.33c-.3.5-.71.89-1.23,1.17-.52.28-1.11.42-1.76.42-1,0-1.79-.32-2.36-.97-.57-.65-.86-1.55-.86-2.72ZM436.02,126.67h2.24l-2.11,2.93h-1.69l1.56-2.93Z"/><path d="M441.62,131.01h1.77l.08,1.3c.26-.5.65-.89,1.15-1.17.5-.28,1.08-.41,1.73-.41,1.35,0,2.26.58,2.71,1.73.29-.55.7-.98,1.23-1.28.53-.3,1.16-.45,1.87-.45,1.04,0,1.85.32,2.43.97.58.65.87,1.56.87,2.74v5.32h-1.9v-5.1c0-.74-.15-1.3-.46-1.68-.31-.38-.75-.57-1.33-.57-.69,0-1.24.26-1.65.77-.41.51-.61,1.2-.61,2.07v4.51h-1.9v-5.1c0-1.5-.61-2.26-1.82-2.26-.69,0-1.24.26-1.65.77-.41.51-.61,1.2-.61,2.07v4.51h-1.9v-8.75Z"/><path d="M457.27,135.39c0-.9.19-1.71.56-2.41.38-.7.89-1.25,1.55-1.66s1.41-.6,2.27-.6,1.62.2,2.27.61c.65.41,1.15.98,1.51,1.71.36.73.55,1.58.55,2.55v.36h-6.81c.08.76.37,1.37.87,1.81.51.44,1.18.66,2.02.66,1.02,0,1.92-.35,2.73-1.05l.94,1.18c-.45.46-1.01.83-1.67,1.08-.67.26-1.37.39-2.11.39-.93,0-1.74-.2-2.45-.58-.7-.39-1.25-.93-1.65-1.63-.4-.7-.59-1.5-.59-2.42ZM463.35,132.97c-.42-.4-.97-.6-1.65-.6s-1.28.2-1.73.61c-.45.41-.72.96-.81,1.65h4.93c-.08-.7-.32-1.25-.74-1.65Z"/><path d="M467.76,131.01h1.77l.09,1.43c.3-.5.69-.89,1.18-1.17.48-.28,1.02-.41,1.61-.41.33,0,.65.05.98.15l-.36,1.73c-.26-.09-.54-.13-.83-.13-.73,0-1.33.24-1.81.71-.48.48-.72,1.1-.72,1.88v4.55h-1.9v-8.75Z"/><path d="M474.01,135.35c0-.88.2-1.66.61-2.36.41-.7.96-1.25,1.66-1.65.7-.41,1.5-.61,2.39-.61s1.69.2,2.4.61c.71.41,1.27.96,1.67,1.65.41.7.61,1.48.61,2.36s-.2,1.69-.61,2.4c-.41.71-.97,1.26-1.67,1.66-.71.4-1.51.6-2.4.6s-1.69-.2-2.39-.6c-.7-.4-1.26-.96-1.66-1.66-.41-.71-.61-1.51-.61-2.4ZM475.95,135.37c0,.88.25,1.6.76,2.15.51.56,1.16.84,1.97.84.53,0,1-.13,1.41-.39.41-.26.74-.61.98-1.06s.36-.97.36-1.54-.12-1.11-.35-1.55c-.23-.45-.56-.8-.97-1.05-.41-.26-.88-.39-1.41-.39-.8,0-1.46.28-1.97.84-.51.56-.77,1.28-.77,2.15Z"/><path d="M488.1,135.62c0-.95.2-1.8.59-2.53.4-.73.93-1.31,1.62-1.73.68-.42,1.46-.63,2.32-.63.76,0,1.49.19,2.18.58v-4.1h1.9v12.54h-1.77l-.08-1.11c-.29.44-.67.78-1.16,1.02-.48.24-1.03.36-1.65.36-.79,0-1.48-.19-2.08-.56-.6-.37-1.06-.88-1.39-1.54-.33-.66-.5-1.43-.5-2.3ZM490.03,135.49c0,.88.22,1.58.66,2.1.44.52,1.02.78,1.75.78s1.27-.23,1.71-.7.66-1.06.66-1.79v-2.88c-.61-.41-1.27-.62-1.97-.62-.85,0-1.53.28-2.04.84-.51.56-.76,1.31-.76,2.27Z"/><path d="M498.59,135.39c0-.9.19-1.71.56-2.41.38-.7.89-1.25,1.55-1.66s1.41-.6,2.27-.6,1.62.2,2.27.61c.65.41,1.15.98,1.51,1.71.36.73.55,1.58.55,2.55v.36h-6.81c.08.76.37,1.37.87,1.81.51.44,1.18.66,2.02.66,1.02,0,1.92-.35,2.73-1.05l.94,1.18c-.45.46-1.01.83-1.67,1.08-.67.26-1.37.39-2.11.39-.93,0-1.74-.2-2.45-.58-.7-.39-1.25-.93-1.65-1.63-.4-.7-.59-1.5-.59-2.42ZM504.67,132.97c-.42-.4-.97-.6-1.65-.6s-1.28.2-1.73.61c-.45.41-.72.96-.81,1.65h4.93c-.08-.7-.32-1.25-.74-1.65Z"/><path d="M516.14,129h-4.38v-1.79h10.78v1.79h-4.38v10.76h-2.01v-10.76Z"/><path d="M522.33,137.22c0-.94.35-1.68,1.04-2.22.7-.54,1.69-.81,2.98-.81.59,0,1.22.05,1.88.15v-.32c0-1.15-.71-1.73-2.14-1.73-.99,0-1.84.27-2.54.81l-.83-1.28c.99-.73,2.16-1.09,3.52-1.09,1.22,0,2.16.29,2.82.86s1,1.36,1,2.38v5.79h-1.67l-.08-1.13c-.29.44-.69.78-1.19,1.03s-1.09.37-1.74.37c-.92,0-1.65-.25-2.21-.76-.56-.51-.84-1.19-.84-2.04ZM524.17,137.12c0,.46.15.82.44,1.07.29.25.71.38,1.23.38.45,0,.86-.09,1.21-.26s.64-.41.86-.71c.21-.3.32-.63.32-.98v-.98c-.63-.1-1.18-.15-1.67-.15-.76,0-1.35.14-1.77.41-.41.28-.62.68-.62,1.22Z"/><path d="M532.27,131.01h1.77l.09,1.43c.3-.5.69-.89,1.18-1.17.48-.28,1.02-.41,1.61-.41.33,0,.65.05.98.15l-.36,1.73c-.26-.09-.54-.13-.83-.13-.73,0-1.33.24-1.81.71-.48.48-.72,1.1-.72,1.88v4.55h-1.9v-8.75Z"/><path d="M538.57,135.39c0-.9.19-1.71.56-2.41.38-.7.89-1.25,1.55-1.66s1.41-.6,2.27-.6,1.62.2,2.27.61c.65.41,1.15.98,1.51,1.71.36.73.55,1.58.55,2.55v.36h-6.81c.08.76.37,1.37.87,1.81.51.44,1.18.66,2.02.66,1.02,0,1.92-.35,2.73-1.05l.94,1.18c-.45.46-1.01.83-1.67,1.08-.67.26-1.37.39-2.11.39-.93,0-1.74-.2-2.45-.58-.7-.39-1.25-.93-1.65-1.63-.4-.7-.59-1.5-.59-2.42ZM544.66,132.97c-.42-.4-.97-.6-1.65-.6s-1.28.2-1.73.61c-.45.41-.72.96-.81,1.65h4.93c-.08-.7-.32-1.25-.74-1.65Z"/><path d="M548.58,137.22c0-.94.35-1.68,1.04-2.22.7-.54,1.69-.81,2.98-.81.59,0,1.22.05,1.88.15v-.32c0-1.15-.71-1.73-2.14-1.73-.99,0-1.84.27-2.54.81l-.83-1.28c.99-.73,2.16-1.09,3.52-1.09,1.22,0,2.16.29,2.82.86s1,1.36,1,2.38v5.79h-1.67l-.08-1.13c-.29.44-.69.78-1.19,1.03s-1.09.37-1.74.37c-.92,0-1.65-.25-2.21-.76-.56-.51-.84-1.19-.84-2.04ZM550.42,137.12c0,.46.15.82.44,1.07.29.25.71.38,1.23.38.45,0,.86-.09,1.21-.26s.64-.41.86-.71c.21-.3.32-.63.32-.98v-.98c-.63-.1-1.18-.15-1.67-.15-.76,0-1.35.14-1.77.41-.41.28-.62.68-.62,1.22Z"/><path d="M563.64,137.37c0-.33-.14-.58-.42-.77-.28-.19-.77-.35-1.48-.49l-.62-.11c-.9-.17-1.58-.48-2.02-.92-.45-.44-.67-.98-.67-1.62,0-.83.33-1.49.98-1.98.65-.5,1.53-.74,2.63-.74,1.28,0,2.36.37,3.23,1.11l-.88,1.28c-.71-.58-1.53-.87-2.45-.87-1.12,0-1.67.35-1.67,1.05,0,.31.13.55.39.72.26.17.71.32,1.34.44l.64.13c1,.2,1.73.52,2.19.95.46.43.69.98.69,1.65,0,.9-.34,1.6-1.02,2.09-.68.49-1.59.73-2.75.73-.76,0-1.47-.12-2.12-.35-.65-.23-1.19-.55-1.62-.97l1.02-1.26c.36.34.78.6,1.24.78.46.18.97.27,1.52.27.59,0,1.04-.1,1.36-.29s.48-.47.48-.84Z"/><path d="M424.17,176.08c0-.48-.15-.87-.45-1.15s-.7-.43-1.2-.43c-.29,0-.6.05-.93.16l-.44-.75,2.52-2.79h-3.57v-1.25h5.24v1.13l-2.25,2.51h.06c.75,0,1.35.24,1.81.71.46.47.69,1.1.69,1.88,0,.58-.14,1.1-.42,1.54-.28.44-.67.78-1.18,1.02-.51.24-1.1.36-1.78.36-1.1,0-2.04-.34-2.83-1.03l.81-1.06c.6.52,1.29.78,2.07.78.57,0,1.02-.14,1.35-.43.33-.29.5-.68.5-1.18Z"/><path d="M427.55,177.92c0-.42.08-.8.23-1.15.15-.35.4-.72.74-1.08.34-.37.81-.78,1.41-1.23l.42-.33c.54-.42.91-.76,1.12-1.03.21-.27.31-.57.31-.88,0-.4-.13-.71-.4-.93s-.64-.34-1.1-.34c-.76,0-1.38.35-1.88,1.06l-.99-.78c.67-1.06,1.67-1.59,3-1.59.87,0,1.56.22,2.07.67.51.45.77,1.06.77,1.82,0,.36-.06.69-.19.99-.13.3-.34.61-.63.92-.29.31-.69.66-1.19,1.03l-.41.3c-.43.34-.77.63-1.02.86s-.42.45-.52.65-.17.41-.18.64h4.23v1.26h-5.79v-.86Z"/><path d="M420.24,272.27h1.98v-6.12l-1.78.98-.58-1.13,2.55-1.39h1.23v7.66h1.83v1.26h-5.23v-1.26Z"/><path d="M427.31,269.34c0-1.03.16-1.91.47-2.65s.76-1.3,1.34-1.71,1.27-.6,2.06-.6,1.51.2,2.11.59l-.61,1.15c-.43-.29-.93-.44-1.49-.44-.7,0-1.26.25-1.69.76-.42.51-.67,1.2-.75,2.09.62-.47,1.32-.71,2.08-.71.84,0,1.5.25,1.99.76s.73,1.19.73,2.06c0,.61-.13,1.16-.38,1.63-.25.47-.6.84-1.06,1.1-.45.26-.98.39-1.57.39-1.02,0-1.81-.39-2.39-1.17-.57-.78-.86-1.86-.86-3.25ZM430.57,272.44c.5,0,.9-.16,1.19-.48.29-.32.44-.75.44-1.3s-.15-.93-.44-1.22c-.29-.28-.7-.42-1.23-.42-.63,0-1.23.24-1.78.72.06,1.8.67,2.7,1.83,2.7Z"/><path d="M426.25,364.22c0-1.47.3-2.62.91-3.45.6-.83,1.44-1.24,2.52-1.24s1.93.42,2.54,1.25c.6.83.91,1.98.91,3.44s-.3,2.61-.91,3.44c-.6.83-1.45,1.25-2.54,1.25s-1.92-.41-2.52-1.24-.91-1.98-.91-3.45ZM427.74,364.22c0,1.07.17,1.89.51,2.48s.82.88,1.43.88,1.1-.29,1.44-.88.51-1.41.51-2.48-.17-1.89-.51-2.48c-.34-.59-.82-.88-1.44-.88s-1.09.29-1.43.88c-.34.58-.51,1.41-.51,2.48Z"/><path d="M472.5,384.58v-6.46h1.52v6.56c0,.98-.26,1.75-.79,2.29s-1.28.82-2.25.82c-1.14,0-2.08-.42-2.8-1.27l.99-.98c.48.58,1.06.86,1.73.86.51,0,.91-.16,1.19-.48s.42-.77.42-1.35Z"/><path d="M475.74,385v-4.01h1.43v3.81c0,.56.12.98.36,1.28.24.3.58.45,1.03.45.55,0,.98-.21,1.31-.62.33-.41.49-.96.49-1.64v-3.29h1.43v6.58h-1.32l-.06-1.01c-.23.38-.54.67-.93.89-.39.21-.83.32-1.32.32-.76,0-1.35-.24-1.78-.73-.43-.49-.64-1.17-.64-2.05Z"/><path d="M483.49,380.99h1.33l.06.96c.23-.37.54-.66.93-.86.39-.21.84-.31,1.34-.31.78,0,1.39.24,1.82.73.43.49.64,1.16.64,2.03v4.04h-1.43v-3.84c0-.56-.12-.98-.38-1.27-.25-.29-.61-.43-1.08-.43-.55,0-.98.19-1.31.58s-.49.91-.49,1.56v3.4h-1.43v-6.58Z"/><path d="M517.48,384.58v-6.46h1.52v6.56c0,.98-.26,1.75-.79,2.29s-1.28.82-2.25.82c-1.14,0-2.08-.42-2.8-1.27l.99-.98c.48.58,1.06.86,1.73.86.51,0,.91-.16,1.19-.48s.42-.77.42-1.35Z"/><path d="M520.73,385v-4.01h1.43v3.81c0,.56.12.98.36,1.28.24.3.58.45,1.03.45.55,0,.98-.21,1.31-.62.33-.41.49-.96.49-1.64v-3.29h1.43v6.58h-1.32l-.06-1.01c-.23.38-.54.67-.93.89-.39.21-.83.32-1.32.32-.76,0-1.35-.24-1.78-.73-.43-.49-.64-1.17-.64-2.05Z"/><path d="M528.47,378.13h1.43v9.45h-1.43v-9.45Z"/><path d="M560.28,385.02h-3.84l-.92,2.55h-1.59l3.67-9.45h1.6l3.65,9.45h-1.66l-.92-2.55ZM558.37,379.71l-1.49,4.09h2.96l-1.47-4.09Z"/><path d="M568.48,387.5v-.81c-.45.64-1.15.96-2.08.96-.59,0-1.12-.14-1.56-.41-.45-.27-.8-.66-1.05-1.15-.25-.49-.38-1.06-.38-1.71,0-.74.16-1.37.48-1.91s.77-.96,1.35-1.25c.58-.3,1.26-.45,2.05-.45.42,0,.87.04,1.33.12.46.08.88.2,1.26.35v6.2c0,1.01-.29,1.79-.88,2.34-.59.55-1.43.82-2.52.82s-1.99-.28-2.7-.83l.62-1.05c.63.45,1.32.68,2.05.68,1.35,0,2.02-.63,2.02-1.9ZM568.45,384.57v-2.39c-.41-.1-.78-.16-1.13-.16-.77,0-1.38.21-1.81.62-.43.41-.64.98-.64,1.71,0,.63.17,1.14.5,1.52.33.38.77.57,1.32.57s.96-.17,1.28-.52c.33-.35.49-.8.49-1.34Z"/><path d="M571.27,384.26c0-.66.15-1.25.46-1.78.31-.52.72-.94,1.25-1.25s1.13-.46,1.8-.46,1.27.15,1.81.46c.53.31.95.72,1.26,1.25.31.52.46,1.12.46,1.78s-.15,1.27-.46,1.81-.73.95-1.26,1.25c-.53.3-1.14.45-1.81.45s-1.27-.15-1.8-.45-.95-.72-1.25-1.25c-.31-.53-.46-1.14-.46-1.81ZM572.73,384.27c0,.66.19,1.2.57,1.62s.88.63,1.48.63c.4,0,.75-.1,1.06-.29s.56-.46.74-.8c.18-.34.27-.73.27-1.16s-.09-.83-.26-1.17-.42-.6-.73-.79-.67-.29-1.06-.29c-.6,0-1.1.21-1.49.63s-.58.96-.58,1.62Z"/><path d="M605.58,385c0-.42-.15-.75-.44-1.01-.29-.25-.76-.46-1.42-.62l-.5-.13c-.89-.22-1.55-.54-1.98-.96-.43-.42-.64-.97-.64-1.64,0-.55.13-1.03.4-1.44.26-.41.64-.73,1.12-.96s1.05-.34,1.7-.34,1.22.11,1.74.34c.52.23.94.55,1.27.96l-.92.96c-.55-.62-1.27-.93-2.15-.93-.5,0-.9.11-1.19.34s-.44.54-.44.93c0,.35.13.63.4.85.26.22.72.41,1.36.57l.5.13c1.81.47,2.72,1.43,2.72,2.86,0,.58-.14,1.08-.42,1.51-.28.43-.68.77-1.2,1.01-.51.24-1.11.36-1.79.36s-1.35-.14-1.96-.41c-.61-.27-1.14-.67-1.58-1.17l.95-.99c.76.83,1.63,1.25,2.59,1.25.59,0,1.05-.13,1.38-.4.33-.26.5-.62.5-1.08Z"/><path d="M608.37,384.29c0-.68.14-1.28.42-1.81.28-.53.67-.94,1.17-1.25.5-.3,1.06-.45,1.71-.45s1.22.15,1.71.46.87.74,1.14,1.29c.27.55.41,1.19.41,1.92v.27h-5.13c.06.58.28,1.03.66,1.36s.89.5,1.52.5c.76,0,1.45-.26,2.05-.79l.71.89c-.34.35-.76.62-1.26.81s-1.03.29-1.59.29c-.7,0-1.31-.15-1.84-.44-.53-.29-.94-.7-1.24-1.22-.3-.52-.45-1.13-.45-1.82ZM612.95,382.46c-.32-.3-.73-.45-1.24-.45s-.96.15-1.3.46c-.34.31-.54.72-.61,1.24h3.71c-.06-.53-.24-.94-.56-1.25Z"/><path d="M616.27,380.99h1.33l.06.79c.44-.67,1.15-1,2.11-1,.6,0,1.12.14,1.57.42.45.28.8.67,1.05,1.17.25.5.38,1.08.38,1.74,0,.71-.15,1.34-.44,1.89-.29.55-.69.99-1.2,1.3s-1.1.47-1.76.47c-.58,0-1.13-.15-1.66-.44v3.07h-1.43v-9.42ZM621.3,384.19c0-.65-.16-1.17-.49-1.56-.33-.39-.77-.59-1.32-.59-.52,0-.95.17-1.28.52-.33.34-.5.79-.5,1.35v2.18c.46.3.96.45,1.49.45.64,0,1.15-.21,1.54-.64.38-.42.57-1,.57-1.71Z"/></svg>