<?xml version="1.0" encoding="UTF-8"?><svg id="Capa_2" xmlns="http://www.w3.org/2000/svg" xmlns:xlink="http://www.w3.org/1999/xlink" viewBox="0 0 682 421"><defs><style>.cls-1,.cls-2{stroke:#f2edea;}.cls-1,.cls-2,.cls-3,.cls-4,.cls-5{fill:none;stroke-miterlimit:10;}.cls-1,.cls-2,.cls-5{stroke-width:1.8px;}.cls-6{fill:#00a689;}.cls-2,.cls-3,.cls-4,.cls-5{stroke-linecap:round;}.cls-7{fill:#b5ecfd;filter:url(#drop-shadow-4);}.cls-8{font-family:EffraCC-SemiBold, 'Effra CC';font-weight:600;}.cls-8,.cls-9,.cls-10{font-size:14.16px;}.cls-11{filter:url(#drop-shadow-5);}.cls-11,.cls-12{fill:#03bef2;}.cls-3{stroke-width:1.39px;}.cls-3,.cls-4,.cls-5{stroke:#000;}.cls-4{stroke-width:1.64px;}.cls-9,.cls-13{font-family:EffraCC-Medium, 'Effra CC';font-weight:500;}.cls-14{letter-spacing:0em;}.cls-15{letter-spacing:0em;}.cls-16{letter-spacing:0em;}.cls-17{filter:url(#drop-shadow-1);}.cls-17,.cls-18,.cls-19{fill:#fff;}.cls-18{filter:url(#drop-shadow-2);}.cls-19{filter:url(#drop-shadow-6);}.cls-10{font-family:EffraCC-Regular, 'Effra CC';}.cls-20{fill:#ef7b57;}.cls-21{fill:#f1ece9;}.cls-22{letter-spacing:-.07em;}.cls-23{letter-spacing:-.07em;}.cls-24{letter-spacing:-.02em;}.cls-13{font-size:18.81px;}.cls-25{letter-spacing:-.02em;}.cls-26{letter-spacing:-.02em;}.cls-27{fill:#dcf3fd;}.cls-28{letter-spacing:-.01em;}.cls-29{letter-spacing:-.01em;}.cls-30{letter-spacing:-.01em;}.cls-31{letter-spacing:-.05em;}.cls-32{letter-spacing:-.03em;}.cls-33{letter-spacing:0em;}.cls-34{letter-spacing:0em;}.cls-35{fill:#74e1ff;filter:url(#drop-shadow-3);}</style><filter id="drop-shadow-1" x="9" y="0" width="522" height="96" filterUnits="userSpaceOnUse"><feOffset dx="12.59" dy="12.59"/><feGaussianBlur result="blur" stdDeviation="8.99"/><feFlood flood-color="#888" flood-opacity=".3"/><feComposite in2="blur" operator="in"/><feComposite in="SourceGraphic"/></filter><filter id="drop-shadow-2" x="7" y="50" width="526" height="251" filterUnits="userSpaceOnUse"><feOffset dx="12.59" dy="12.59"/><feGaussianBlur result="blur-2" stdDeviation="8.99"/><feFlood flood-color="#888" flood-opacity=".3"/><feComposite in2="blur-2" operator="in"/><feComposite in="SourceGraphic"/></filter><filter id="drop-shadow-3" x="32" y="232" width="340" height="96" filterUnits="userSpaceOnUse"><feOffset dx="12.59" dy="12.59"/><feGaussianBlur result="blur-3" stdDeviation="8.99"/><feFlood flood-color="#888" flood-opacity=".3"/><feComposite in2="blur-3" operator="in"/><feComposite in="SourceGraphic"/></filter><filter id="drop-shadow-4" x="0" y="279" width="253" height="95" filterUnits="userSpaceOnUse"><feOffset dx="12.59" dy="12.59"/><feGaussianBlur result="blur-4" stdDeviation="8.99"/><feFlood flood-color="#888" flood-opacity=".3"/><feComposite in2="blur-4" operator="in"/><feComposite in="SourceGraphic"/></filter><filter id="drop-shadow-5" x="64" y="324" width="267" height="95" filterUnits="userSpaceOnUse"><feOffset dx="12.59" dy="12.59"/><feGaussianBlur result="blur-5" stdDeviation="8.99"/><feFlood flood-color="#888" flood-opacity=".3"/><feComposite in2="blur-5" operator="in"/><feComposite in="SourceGraphic"/></filter><filter id="drop-shadow-6" x="368" y="59" width="314" height="362" filterUnits="userSpaceOnUse"><feOffset dx="12.59" dy="12.59"/><feGaussianBlur result="blur-6" stdDeviation="8.99"/><feFlood flood-color="#888" flood-opacity=".3"/><feComposite in2="blur-6" operator="in"/><feComposite in="SourceGraphic"/></filter></defs><g id="PROJECT-MANAGEMENT"><rect class="cls-17" x="23.43" y="15.36" width="467.1" height="40.86" rx="5.37" ry="5.37"/><text class="cls-8" transform="translate(43.94 41.29)"><tspan x="0" y="0">P</tspan><tspan class="cls-28" x="8.3" y="0">r</tspan><tspan class="cls-24" x="13.47" y="0">oy</tspan><tspan class="cls-16" x="28.34" y="0">ec</tspan><tspan class="cls-25" x="42.99" y="0">t</tspan><tspan x="48.32" y="0">o</tspan></text><text class="cls-8" transform="translate(194.11 41.29)"><tspan x="0" y="0">Esta</tspan><tspan class="cls-34" x="27.74" y="0">t</tspan><tspan x="33.21" y="0">us</tspan></text><text class="cls-8" transform="translate(309.62 41.29)"><tspan class="cls-33" x="0" y="0">P</tspan><tspan class="cls-14" x="8.16" y="0">M</tspan></text><text class="cls-8" transform="translate(384.69 41.29)"><tspan class="cls-31" x="0" y="0">F</tspan><tspan class="cls-16" x="6.85" y="0">echa de Inicio</tspan></text><rect class="cls-18" x="21.9" y="64.54" width="470.5" height="196.63" rx="5.71" ry="5.71"/><line class="cls-1" x1="21.9" y1="113.05" x2="490.61" y2="113.05"/><line class="cls-1" x1="21.9" y1="162.16" x2="490.61" y2="162.16"/><line class="cls-1" x1="21.9" y1="210.87" x2="490.61" y2="210.87"/><text class="cls-10" transform="translate(43.09 91.35)"><tspan x="0" y="0">Desar</tspan><tspan class="cls-28" x="36.39" y="0">r</tspan><tspan class="cls-16" x="41.29" y="0">ollo</tspan></text><text class="cls-10" transform="translate(43.09 140.76)"><tspan x="0" y="0">Implementación</tspan></text><text class="cls-10" transform="translate(43.09 190.51)"><tspan class="cls-32" x="0" y="0">R</tspan><tspan class="cls-24" x="7.93" y="0">e</tspan><tspan x="15.15" y="0">visión</tspan></text><text class="cls-10" transform="translate(43.09 239.82)"><tspan class="cls-34" x="0" y="0">C</tspan><tspan x="9.47" y="0">omunicación</tspan></text><circle class="cls-20" cx="201.11" cy="88.77" r="4.75"/><rect class="cls-21" x="212.99" y="84.42" width="59.01" height="8.71" rx="4.36" ry="4.36"/><circle class="cls-6" cx="201.11" cy="138.18" r="4.75"/><rect class="cls-21" x="212.99" y="133.82" width="35.92" height="8.71" rx="3.4" ry="3.4"/><circle class="cls-6" cx="201.11" cy="187.93" r="4.75"/><rect class="cls-21" x="212.99" y="183.57" width="71.67" height="8.71" rx="4.36" ry="4.36"/><circle class="cls-6" cx="201.11" cy="237.24" r="4.75"/><rect class="cls-21" x="212.99" y="232.88" width="71.88" height="8.71" rx="4.36" ry="4.36"/><circle class="cls-27" cx="319.36" cy="88.77" r="14.06"/><circle class="cls-27" cx="319.36" cy="138.18" r="14.06"/><circle class="cls-27" cx="319.36" cy="187.93" r="14.06"/><circle class="cls-27" cx="319.36" cy="237.24" r="14.06"/><rect class="cls-35" x="47.25" y="247.28" width="284.42" height="40.18" rx="20.09" ry="20.09"/><line class="cls-5" x1="65.37" y1="271.96" x2="81.7" y2="271.96"/><line class="cls-5" x1="65.37" y1="262.36" x2="81.7" y2="262.36"/><line class="cls-5" x1="65.37" y1="266.91" x2="76.7" y2="266.91"/><text class="cls-9" transform="translate(90.86 271.42)"><tspan x="0" y="0">Abrir </tspan><tspan class="cls-23" x="33.26" y="0">T</tspan><tspan class="cls-16" x="41.08" y="0">a</tspan><tspan class="cls-28" x="48.2" y="0">r</tspan><tspan x="53.23" y="0">eas de P</tspan><tspan class="cls-28" x="103.34" y="0">r</tspan><tspan class="cls-14" x="108.37" y="0">oject Management</tspan></text><rect class="cls-7" x="14.57" y="293.62" width="198.67" height="40.18" rx="20.09" ry="20.09"/><text class="cls-9" transform="translate(58.18 317.75)"><tspan x="0" y="0">C</tspan><tspan class="cls-29" x="9.61" y="0">r</tspan><tspan class="cls-14" x="14.64" y="0">ear un Nu</tspan><tspan class="cls-24" x="72.91" y="0">ev</tspan><tspan x="87.06" y="0">o O</tspan><tspan class="cls-28" x="108.71" y="0">r</tspan><tspan class="cls-16" x="113.74" y="0">den</tspan></text><rect class="cls-11" x="78.44" y="339.07" width="212.54" height="40.18" rx="20.09" ry="20.09"/><text class="cls-9" transform="translate(122.05 363.2)"><tspan x="0" y="0">C</tspan><tspan class="cls-29" x="9.61" y="0">r</tspan><tspan class="cls-14" x="14.64" y="0">ear Nu</tspan><tspan class="cls-24" x="54.91" y="0">ev</tspan><tspan x="69.06" y="0">o Documen</tspan><tspan class="cls-26" x="140.01" y="0">t</tspan><tspan x="145.22" y="0">o</tspan></text><polyline class="cls-5" points="45.71 318.28 47.57 320.13 51.02 316.68"/><polyline class="cls-5" points="50.61 313.97 50.61 308.62 42.07 304.12 34.13 308.33 34.13 317.46 42.52 321.91 44.6 320.13"/><polyline class="cls-5" points="34.28 308.47 42.44 312.78 42.44 321.91"/><line class="cls-5" x1="50.61" y1="308.62" x2="42.44" y2="312.78"/><line class="cls-5" x1="38.36" y1="306.21" x2="45.56" y2="310.78"/><path class="cls-4" d="M111.23,368.15h-8.66c-1.67,0-3.02-1.35-3.02-3.02v-11.71c0-1.67,1.35-3.02,3.02-3.02h5.78l5.91,5.91v8.83c0,1.67-1.35,3.02-3.02,3.02Z"/><path class="cls-3" d="M108.5,351.35v3.78c0,.54.43.97.97.97h3.9"/><rect class="cls-19" x="383.35" y="73.47" width="258.63" height="307.13" rx="11.81" ry="11.81"/><polyline class="cls-2" points="429.69 131.69 429.69 334.56 625.13 334.56"/><rect class="cls-12" x="444.83" y="240.4" width="32.38" height="93.27" rx="4.37" ry="4.37"/><rect class="cls-12" x="489.39" y="186.94" width="32.38" height="146.74" rx="5.48" ry="5.48"/><rect class="cls-12" x="533.35" y="227.57" width="32.38" height="106.1" rx="4.66" ry="4.66"/><rect class="cls-12" x="577.9" y="144.06" width="32.38" height="189.61" rx="6.23" ry="6.23"/><line class="cls-2" x1="430.58" y1="142.98" x2="626.62" y2="142.98"/><text class="cls-13" transform="translate(399.67 109.24)"><tspan x="0" y="0">Núme</tspan><tspan class="cls-30" x="49.75" y="0">r</tspan><tspan class="cls-15" x="56.42" y="0">o de </tspan><tspan class="cls-22" x="94.41" y="0">T</tspan><tspan x="104.79" y="0">a</tspan><tspan class="cls-30" x="114.25" y="0">r</tspan><tspan x="120.93" y="0">eas</tspan></text><text class="cls-9" transform="translate(401.58 148.26)"><tspan x="0" y="0">32</tspan></text><text class="cls-9" transform="translate(401.58 243.01)"><tspan x="0" y="0">16</tspan></text><text class="cls-9" transform="translate(408.61 338.16)"><tspan x="0" y="0">0</tspan></text><text class="cls-9" transform="translate(450.76 357.05)"><tspan x="0" y="0">Jun</tspan></text><text class="cls-9" transform="translate(495.74 357.05)"><tspan x="0" y="0">Jul</tspan></text><text class="cls-9" transform="translate(536.55 357.05)"><tspan class="cls-33" x="0" y="0">A</tspan><tspan x="9.12" y="0">go</tspan></text><text class="cls-9" transform="translate(582.32 357.05)"><tspan x="0" y="0">Sep</tspan></text></g></svg>